<svg xmlns="http://www.w3.org/2000/svg" xmlns:xlink="http://www.w3.org/1999/xlink" contentStyleType="text/css" height="1074px" preserveAspectRatio="none" style="width:415px;height:1074px;background:#FFFFFF;" version="1.1" viewBox="0 0 415 1074" width="415px" zoomAndPan="magnify"><defs/><g><rect fill="none" height="682.373" style="stroke:#000000;stroke-width:1.5;" width="398.916" x="10" y="337.2402"/><rect fill="none" height="207.0371" style="stroke:#000000;stroke-width:1.5;" width="378.916" x="20" y="567.9082"/><rect fill="none" height="223.668" style="stroke:#000000;stroke-width:1.5;" width="378.916" x="20" y="788.9453"/><line style="stroke:#181818;stroke-width:0.5;stroke-dasharray:5.0,5.0;" x1="71" x2="71" y1="38.6211" y2="1036.6133"/><line style="stroke:#181818;stroke-width:0.5;stroke-dasharray:5.0,5.0;" x1="180.2412" x2="180.2412" y1="38.6211" y2="1036.6133"/><line style="stroke:#181818;stroke-width:0.5;stroke-dasharray:5.0,5.0;" x1="360.6816" x2="360.6816" y1="38.6211" y2="1036.6133"/><rect fill="#E2E2F0" height="32.6211" rx="2.5" ry="2.5" style="stroke:#181818;stroke-width:0.5;" width="83.2412" x="30" y="5"/><text fill="#000000" font-family="sans-serif" font-size="14" lengthAdjust="spacing" textLength="69.2412" x="37" y="27.1074">User Client</text><rect fill="#E2E2F0" height="32.6211" rx="2.5" ry="2.5" style="stroke:#181818;stroke-width:0.5;" width="83.2412" x="30" y="1035.6133"/><text fill="#000000" font-family="sans-serif" font-size="14" lengthAdjust="spacing" textLength="69.2412" x="37" y="1057.7207">User Client</text><rect fill="#E2E2F0" height="32.6211" rx="2.5" ry="2.5" style="stroke:#181818;stroke-width:0.5;" width="115.9375" x="123.2412" y="5"/><text fill="#000000" font-family="sans-serif" font-size="14" lengthAdjust="spacing" textLength="101.9375" x="130.2412" y="27.1074">Employee Client</text><rect fill="#E2E2F0" height="32.6211" rx="2.5" ry="2.5" style="stroke:#181818;stroke-width:0.5;" width="115.9375" x="123.2412" y="1035.6133"/><text fill="#000000" font-family="sans-serif" font-size="14" lengthAdjust="spacing" textLength="101.9375" x="130.2412" y="1057.7207">Employee Client</text><rect fill="#E2E2F0" height="32.6211" rx="2.5" ry="2.5" style="stroke:#181818;stroke-width:0.5;" width="55.2344" x="333.6816" y="5"/><text fill="#000000" font-family="sans-serif" font-size="14" lengthAdjust="spacing" textLength="41.2344" x="340.6816" y="27.1074">Server</text><rect fill="#E2E2F0" height="32.6211" rx="2.5" ry="2.5" style="stroke:#181818;stroke-width:0.5;" width="55.2344" x="333.6816" y="1035.6133"/><text fill="#000000" font-family="sans-serif" font-size="14" lengthAdjust="spacing" textLength="41.2344" x="340.6816" y="1057.7207">Server</text><polygon fill="#181818" points="349.2988,67.9121,359.2988,71.9121,349.2988,75.9121,353.2988,71.9121" style="stroke:#181818;stroke-width:1.0;"/><line style="stroke:#181818;stroke-width:1.0;" x1="71.6206" x2="355.2988" y1="71.9121" y2="71.9121"/><text fill="#000000" font-family="sans-serif" font-size="13" lengthAdjust="spacing" textLength="156.0889" x="78.6206" y="66.6494">Connect to chat websocket</text><polygon fill="#181818" points="82.6206,99.2031,72.6206,103.2031,82.6206,107.2031,78.6206,103.2031" style="stroke:#181818;stroke-width:1.0;"/><line style="stroke:#181818;stroke-width:1.0;" x1="76.6206" x2="360.2988" y1="103.2031" y2="103.2031"/><text fill="#000000" font-family="sans-serif" font-size="13" lengthAdjust="spacing" textLength="135.1479" x="88.6206" y="97.9404">Connection established</text><polygon fill="#181818" points="82.6206,130.4941,72.6206,134.4941,82.6206,138.4941,78.6206,134.4941" style="stroke:#181818;stroke-width:1.0;"/><line style="stroke:#181818;stroke-width:1.0;" x1="76.6206" x2="360.2988" y1="134.4941" y2="134.4941"/><text fill="#000000" font-family="sans-serif" font-size="13" lengthAdjust="spacing" textLength="82.3354" x="88.6206" y="129.2314">CONNECTED</text><polygon fill="#181818" points="349.2988,161.7852,359.2988,165.7852,349.2988,169.7852,353.2988,165.7852" style="stroke:#181818;stroke-width:1.0;"/><line style="stroke:#181818;stroke-width:1.0;" x1="181.21" x2="355.2988" y1="165.7852" y2="165.7852"/><text fill="#000000" font-family="sans-serif" font-size="13" lengthAdjust="spacing" textLength="156.0889" x="188.21" y="160.5225">Connect to chat websocket</text><polygon fill="#181818" points="192.21,193.0762,182.21,197.0762,192.21,201.0762,188.21,197.0762" style="stroke:#181818;stroke-width:1.0;"/><line style="stroke:#181818;stroke-width:1.0;" x1="186.21" x2="360.2988" y1="197.0762" y2="197.0762"/><text fill="#000000" font-family="sans-serif" font-size="13" lengthAdjust="spacing" textLength="135.1479" x="198.21" y="191.8135">Connection established</text><polygon fill="#181818" points="192.21,224.3672,182.21,228.3672,192.21,232.3672,188.21,228.3672" style="stroke:#181818;stroke-width:1.0;"/><line style="stroke:#181818;stroke-width:1.0;" x1="186.21" x2="360.2988" y1="228.3672" y2="228.3672"/><text fill="#000000" font-family="sans-serif" font-size="13" lengthAdjust="spacing" textLength="82.3354" x="198.21" y="223.1045">CONNECTED</text><polygon fill="#181818" points="349.2988,255.6582,359.2988,259.6582,349.2988,263.6582,353.2988,259.6582" style="stroke:#181818;stroke-width:1.0;"/><line style="stroke:#181818;stroke-width:1.0;" x1="71.6206" x2="355.2988" y1="259.6582" y2="259.6582"/><text fill="#000000" font-family="sans-serif" font-size="13" lengthAdjust="spacing" textLength="106.1709" x="78.6206" y="254.3955">WANT_TO_CHAT</text><polygon fill="#181818" points="192.21,286.9492,182.21,290.9492,192.21,294.9492,188.21,290.9492" style="stroke:#181818;stroke-width:1.0;"/><line style="stroke:#181818;stroke-width:1.0;" x1="186.21" x2="360.2988" y1="290.9492" y2="290.9492"/><text fill="#000000" font-family="sans-serif" font-size="13" lengthAdjust="spacing" textLength="112.7153" x="198.21" y="285.6865">CHAT_AVAILABLE</text><polygon fill="#181818" points="82.6206,318.2402,72.6206,322.2402,82.6206,326.2402,78.6206,322.2402" style="stroke:#181818;stroke-width:1.0;"/><line style="stroke:#181818;stroke-width:1.0;" x1="76.6206" x2="360.2988" y1="322.2402" y2="322.2402"/><text fill="#000000" font-family="sans-serif" font-size="13" lengthAdjust="spacing" textLength="109.7827" x="88.6206" y="316.9775">WAIT_FOR_CHAT</text><path d="M10,337.2402 L70.1709,337.2402 L70.1709,346.5313 L60.1709,356.5313 L10,356.5313 L10,337.2402 " fill="#EEEEEE" style="stroke:#000000;stroke-width:1.5;"/><rect fill="none" height="682.373" style="stroke:#000000;stroke-width:1.5;" width="398.916" x="10" y="337.2402"/><text fill="#000000" font-family="sans-serif" font-size="13" font-weight="bold" lengthAdjust="spacing" textLength="15.1709" x="25" y="352.2686">alt</text><text fill="#000000" font-family="sans-serif" font-size="11" font-weight="bold" lengthAdjust="spacing" textLength="182.1392" x="85.1709" y="351.1104">[user gets bored and wants to exit]</text><polygon fill="#181818" points="349.2988,375.8223,359.2988,379.8223,349.2988,383.8223,353.2988,379.8223" style="stroke:#181818;stroke-width:1.0;"/><line style="stroke:#181818;stroke-width:1.0;" x1="71.6206" x2="355.2988" y1="379.8223" y2="379.8223"/><text fill="#000000" font-family="sans-serif" font-size="13" lengthAdjust="spacing" textLength="87.4009" x="78.6206" y="374.5596">ABORT_CHAT</text><polygon fill="#181818" points="192.21,407.1133,182.21,411.1133,192.21,415.1133,188.21,411.1133" style="stroke:#181818;stroke-width:1.0;"/><line style="stroke:#181818;stroke-width:1.0;" x1="186.21" x2="360.2988" y1="411.1133" y2="411.1133"/><text fill="#000000" font-family="sans-serif" font-size="13" lengthAdjust="spacing" textLength="139.4453" x="198.21" y="405.8506">NO_CHAT_AVAILABLE</text><polygon fill="#181818" points="82.6206,438.4043,72.6206,442.4043,82.6206,446.4043,78.6206,442.4043" style="stroke:#181818;stroke-width:1.0;"/><line style="stroke:#181818;stroke-width:1.0;" x1="76.6206" x2="360.2988" y1="442.4043" y2="442.4043"/><text fill="#000000" font-family="sans-serif" font-size="13" lengthAdjust="spacing" textLength="82.3354" x="88.6206" y="437.1416">CONNECTED</text><line style="stroke:#000000;stroke-width:1.0;stroke-dasharray:2.0,2.0;" x1="10" x2="408.916" y1="451.4043" y2="451.4043"/><text fill="#000000" font-family="sans-serif" font-size="11" font-weight="bold" lengthAdjust="spacing" textLength="114.3022" x="15" y="463.2744">[user gets connected]</text><polygon fill="#181818" points="349.2988,486.3262,359.2988,490.3262,349.2988,494.3262,353.2988,490.3262" style="stroke:#181818;stroke-width:1.0;"/><line style="stroke:#181818;stroke-width:1.0;" x1="181.21" x2="355.2988" y1="490.3262" y2="490.3262"/><text fill="#000000" font-family="sans-serif" font-size="13" lengthAdjust="spacing" textLength="95.3481" x="188.21" y="485.0635">ACCEPT_CHAT</text><polygon fill="#181818" points="82.6206,517.6172,72.6206,521.6172,82.6206,525.6172,78.6206,521.6172" style="stroke:#181818;stroke-width:1.0;"/><line style="stroke:#181818;stroke-width:1.0;" x1="76.6206" x2="360.2988" y1="521.6172" y2="521.6172"/><text fill="#000000" font-family="sans-serif" font-size="13" lengthAdjust="spacing" textLength="124.9536" x="88.6206" y="516.3545">CHAT_CONNECTED</text><polygon fill="#181818" points="192.21,548.9082,182.21,552.9082,192.21,556.9082,188.21,552.9082" style="stroke:#181818;stroke-width:1.0;"/><line style="stroke:#181818;stroke-width:1.0;" x1="186.21" x2="360.2988" y1="552.9082" y2="552.9082"/><text fill="#000000" font-family="sans-serif" font-size="13" lengthAdjust="spacing" textLength="124.9536" x="198.21" y="547.6455">CHAT_CONNECTED</text><path d="M20,567.9082 L92.4346,567.9082 L92.4346,577.1992 L82.4346,587.1992 L20,587.1992 L20,567.9082 " fill="#EEEEEE" style="stroke:#000000;stroke-width:1.5;"/><rect fill="none" height="207.0371" style="stroke:#000000;stroke-width:1.5;" width="378.916" x="20" y="567.9082"/><text fill="#000000" font-family="sans-serif" font-size="13" font-weight="bold" lengthAdjust="spacing" textLength="27.4346" x="35" y="582.9365">loop</text><text fill="#000000" font-family="sans-serif" font-size="11" font-weight="bold" lengthAdjust="spacing" textLength="108.2168" x="107.4346" y="581.7783">[message exchange]</text><polygon fill="#181818" points="349.2988,606.4902,359.2988,610.4902,349.2988,614.4902,353.2988,610.4902" style="stroke:#181818;stroke-width:1.0;"/><line style="stroke:#181818;stroke-width:1.0;" x1="71.6206" x2="355.2988" y1="610.4902" y2="610.4902"/><text fill="#000000" font-family="sans-serif" font-size="13" lengthAdjust="spacing" textLength="107.6436" x="78.6206" y="605.2275">SEND_MESSAGE</text><polygon fill="#181818" points="82.6206,637.7813,72.6206,641.7813,82.6206,645.7813,78.6206,641.7813" style="stroke:#181818;stroke-width:1.0;"/><line style="stroke:#181818;stroke-width:1.0;" x1="76.6206" x2="360.2988" y1="641.7813" y2="641.7813"/><text fill="#000000" font-family="sans-serif" font-size="13" lengthAdjust="spacing" textLength="106.1963" x="88.6206" y="636.5186">MESSAGE_SENT</text><polygon fill="#181818" points="192.21,669.0723,182.21,673.0723,192.21,677.0723,188.21,673.0723" style="stroke:#181818;stroke-width:1.0;"/><line style="stroke:#181818;stroke-width:1.0;" x1="186.21" x2="360.2988" y1="673.0723" y2="673.0723"/><text fill="#000000" font-family="sans-serif" font-size="13" lengthAdjust="spacing" textLength="137.9854" x="198.21" y="667.8096">MESSAGE_RECEIVED</text><polygon fill="#181818" points="349.2988,700.3633,359.2988,704.3633,349.2988,708.3633,353.2988,704.3633" style="stroke:#181818;stroke-width:1.0;"/><line style="stroke:#181818;stroke-width:1.0;" x1="181.21" x2="355.2988" y1="704.3633" y2="704.3633"/><text fill="#000000" font-family="sans-serif" font-size="13" lengthAdjust="spacing" textLength="107.6436" x="188.21" y="699.1006">SEND_MESSAGE</text><polygon fill="#181818" points="192.21,731.6543,182.21,735.6543,192.21,739.6543,188.21,735.6543" style="stroke:#181818;stroke-width:1.0;"/><line style="stroke:#181818;stroke-width:1.0;" x1="186.21" x2="360.2988" y1="735.6543" y2="735.6543"/><text fill="#000000" font-family="sans-serif" font-size="13" lengthAdjust="spacing" textLength="106.1963" x="198.21" y="730.3916">MESSAGE_SENT</text><polygon fill="#181818" points="82.6206,762.9453,72.6206,766.9453,82.6206,770.9453,78.6206,766.9453" style="stroke:#181818;stroke-width:1.0;"/><line style="stroke:#181818;stroke-width:1.0;" x1="76.6206" x2="360.2988" y1="766.9453" y2="766.9453"/><text fill="#000000" font-family="sans-serif" font-size="13" lengthAdjust="spacing" textLength="137.9854" x="88.6206" y="761.6826">MESSAGE_RECEIVED</text><path d="M20,788.9453 L80.1709,788.9453 L80.1709,798.2363 L70.1709,808.2363 L20,808.2363 L20,788.9453 " fill="#EEEEEE" style="stroke:#000000;stroke-width:1.5;"/><rect fill="none" height="223.668" style="stroke:#000000;stroke-width:1.5;" width="378.916" x="20" y="788.9453"/><text fill="#000000" font-family="sans-serif" font-size="13" font-weight="bold" lengthAdjust="spacing" textLength="15.1709" x="35" y="803.9736">alt</text><text fill="#000000" font-family="sans-serif" font-size="11" font-weight="bold" lengthAdjust="spacing" textLength="100.2407" x="95.1709" y="802.8154">[user wants to exit]</text><polygon fill="#181818" points="349.2988,827.5273,359.2988,831.5273,349.2988,835.5273,353.2988,831.5273" style="stroke:#181818;stroke-width:1.0;"/><line style="stroke:#181818;stroke-width:1.0;" x1="71.6206" x2="355.2988" y1="831.5273" y2="831.5273"/><text fill="#000000" font-family="sans-serif" font-size="13" lengthAdjust="spacing" textLength="70.0654" x="78.6206" y="826.2646">END_CHAT</text><polygon fill="#181818" points="192.21,858.8184,182.21,862.8184,192.21,866.8184,188.21,862.8184" style="stroke:#181818;stroke-width:1.0;"/><line style="stroke:#181818;stroke-width:1.0;" x1="186.21" x2="360.2988" y1="862.8184" y2="862.8184"/><text fill="#000000" font-family="sans-serif" font-size="13" lengthAdjust="spacing" textLength="146.6245" x="198.21" y="857.5557">CHAT_DISCONNECTED</text><polygon fill="#181818" points="82.6206,890.1094,72.6206,894.1094,82.6206,898.1094,78.6206,894.1094" style="stroke:#181818;stroke-width:1.0;"/><line style="stroke:#181818;stroke-width:1.0;" x1="76.6206" x2="360.2988" y1="894.1094" y2="894.1094"/><text fill="#000000" font-family="sans-serif" font-size="13" lengthAdjust="spacing" textLength="146.6245" x="88.6206" y="888.8467">CHAT_DISCONNECTED</text><line style="stroke:#000000;stroke-width:1.0;stroke-dasharray:2.0,2.0;" x1="20" x2="398.916" y1="903.1094" y2="903.1094"/><text fill="#000000" font-family="sans-serif" font-size="11" font-weight="bold" lengthAdjust="spacing" textLength="127.7515" x="25" y="914.9795">[employee wants to exit]</text><polygon fill="#181818" points="349.2988,938.0313,359.2988,942.0313,349.2988,946.0313,353.2988,942.0313" style="stroke:#181818;stroke-width:1.0;"/><line style="stroke:#181818;stroke-width:1.0;" x1="181.21" x2="355.2988" y1="942.0313" y2="942.0313"/><text fill="#000000" font-family="sans-serif" font-size="13" lengthAdjust="spacing" textLength="70.0654" x="188.21" y="936.7686">END_CHAT</text><polygon fill="#181818" points="192.21,969.3223,182.21,973.3223,192.21,977.3223,188.21,973.3223" style="stroke:#181818;stroke-width:1.0;"/><line style="stroke:#181818;stroke-width:1.0;" x1="186.21" x2="360.2988" y1="973.3223" y2="973.3223"/><text fill="#000000" font-family="sans-serif" font-size="13" lengthAdjust="spacing" textLength="146.6245" x="198.21" y="968.0596">CHAT_DISCONNECTED</text><polygon fill="#181818" points="82.6206,1000.6133,72.6206,1004.6133,82.6206,1008.6133,78.6206,1004.6133" style="stroke:#181818;stroke-width:1.0;"/><line style="stroke:#181818;stroke-width:1.0;" x1="76.6206" x2="360.2988" y1="1004.6133" y2="1004.6133"/><text fill="#000000" font-family="sans-serif" font-size="13" lengthAdjust="spacing" textLength="146.6245" x="88.6206" y="999.3506">CHAT_DISCONNECTED</text><!--SRC=[jLD1ReCm4BppYbNk_K0FbHndsoAbKCMG7953LWagiH5sc_RtDI60AMdKIv5ym3FCxCoAIjQso8jAAWkpr50Dl2n8sHb80sbG-J0Ugr9_4VaK75C4rHzKdn4H12dSFO2u1wwLejo2rP0Vf8KJROtEtyW6ec6aFQFG2iXOkIqBSw3T0CTHX3p1HO1_ayJRakXBTbDkM9HaIPpnPvOCDFUIiJKBbso-n7wW3GkJx35UjMHPMdXlkjkJDR3LDUr0gXsSN2Uc6P4-2nk0UpelDezNIVjnSzsvHQsxPzYZenQeDEGvvcrKbwwXTnKnpl7rfqbwYJHe-VvNe5Bh2evaZDoJo-7ALdiw8tuUWT4YUq4Xs1FsO6TukSySAHc3E80hv1YkBwP-ZD-byPPq-eiqgRQbVcVJ9Vd16lE-mKbLYr2CsvhqF66SLqVTdtJT7F_Dt8LlpZS0]--></g></svg>