<svg xmlns="http://www.w3.org/2000/svg" xmlns:xlink="http://www.w3.org/1999/xlink" contentStyleType="text/css" height="949px" preserveAspectRatio="none" style="width:415px;height:949px;background:#FFFFFF;" version="1.1" viewBox="0 0 415 949" width="415px" zoomAndPan="magnify"><defs/><g><rect fill="none" height="619.791" style="stroke:#000000;stroke-width:1.5;" width="398.916" x="10" y="274.6582"/><rect fill="none" height="207.0371" style="stroke:#000000;stroke-width:1.5;" width="378.916" x="20" y="505.3262"/><rect fill="none" height="98.5039" style="stroke:#000000;stroke-width:1.5;" width="378.916" x="20" y="726.3633"/><line style="stroke:#181818;stroke-width:0.5;stroke-dasharray:5.0,5.0;" x1="71" x2="71" y1="38.6211" y2="911.4492"/><line style="stroke:#181818;stroke-width:0.5;stroke-dasharray:5.0,5.0;" x1="180.2412" x2="180.2412" y1="38.6211" y2="911.4492"/><line style="stroke:#181818;stroke-width:0.5;stroke-dasharray:5.0,5.0;" x1="360.6816" x2="360.6816" y1="38.6211" y2="911.4492"/><rect fill="#E2E2F0" height="32.6211" rx="2.5" ry="2.5" style="stroke:#181818;stroke-width:0.5;" width="83.2412" x="30" y="5"/><text fill="#000000" font-family="sans-serif" font-size="14" lengthAdjust="spacing" textLength="69.2412" x="37" y="27.1074">User Client</text><rect fill="#E2E2F0" height="32.6211" rx="2.5" ry="2.5" style="stroke:#181818;stroke-width:0.5;" width="83.2412" x="30" y="910.4492"/><text fill="#000000" font-family="sans-serif" font-size="14" lengthAdjust="spacing" textLength="69.2412" x="37" y="932.5566">User Client</text><rect fill="#E2E2F0" height="32.6211" rx="2.5" ry="2.5" style="stroke:#181818;stroke-width:0.5;" width="115.9375" x="123.2412" y="5"/><text fill="#000000" font-family="sans-serif" font-size="14" lengthAdjust="spacing" textLength="101.9375" x="130.2412" y="27.1074">Employee Client</text><rect fill="#E2E2F0" height="32.6211" rx="2.5" ry="2.5" style="stroke:#181818;stroke-width:0.5;" width="115.9375" x="123.2412" y="910.4492"/><text fill="#000000" font-family="sans-serif" font-size="14" lengthAdjust="spacing" textLength="101.9375" x="130.2412" y="932.5566">Employee Client</text><rect fill="#E2E2F0" height="32.6211" rx="2.5" ry="2.5" style="stroke:#181818;stroke-width:0.5;" width="55.2344" x="333.6816" y="5"/><text fill="#000000" font-family="sans-serif" font-size="14" lengthAdjust="spacing" textLength="41.2344" x="340.6816" y="27.1074">Server</text><rect fill="#E2E2F0" height="32.6211" rx="2.5" ry="2.5" style="stroke:#181818;stroke-width:0.5;" width="55.2344" x="333.6816" y="910.4492"/><text fill="#000000" font-family="sans-serif" font-size="14" lengthAdjust="spacing" textLength="41.2344" x="340.6816" y="932.5566">Server</text><polygon fill="#181818" points="349.2988,67.9121,359.2988,71.9121,349.2988,75.9121,353.2988,71.9121" style="stroke:#181818;stroke-width:1.0;"/><line style="stroke:#181818;stroke-width:1.0;" x1="71.6206" x2="355.2988" y1="71.9121" y2="71.9121"/><text fill="#000000" font-family="sans-serif" font-size="13" lengthAdjust="spacing" textLength="156.0889" x="78.6206" y="66.6494">Connect to chat websocket</text><polygon fill="#181818" points="82.6206,99.2031,72.6206,103.2031,82.6206,107.2031,78.6206,103.2031" style="stroke:#181818;stroke-width:1.0;"/><line style="stroke:#181818;stroke-width:1.0;" x1="76.6206" x2="360.2988" y1="103.2031" y2="103.2031"/><text fill="#000000" font-family="sans-serif" font-size="13" lengthAdjust="spacing" textLength="82.3354" x="88.6206" y="97.9404">CONNECTED</text><polygon fill="#181818" points="349.2988,130.4941,359.2988,134.4941,349.2988,138.4941,353.2988,134.4941" style="stroke:#181818;stroke-width:1.0;"/><line style="stroke:#181818;stroke-width:1.0;" x1="181.21" x2="355.2988" y1="134.4941" y2="134.4941"/><text fill="#000000" font-family="sans-serif" font-size="13" lengthAdjust="spacing" textLength="156.0889" x="188.21" y="129.2314">Connect to chat websocket</text><polygon fill="#181818" points="192.21,161.7852,182.21,165.7852,192.21,169.7852,188.21,165.7852" style="stroke:#181818;stroke-width:1.0;"/><line style="stroke:#181818;stroke-width:1.0;" x1="186.21" x2="360.2988" y1="165.7852" y2="165.7852"/><text fill="#000000" font-family="sans-serif" font-size="13" lengthAdjust="spacing" textLength="82.3354" x="198.21" y="160.5225">CONNECTED</text><polygon fill="#181818" points="349.2988,193.0762,359.2988,197.0762,349.2988,201.0762,353.2988,197.0762" style="stroke:#181818;stroke-width:1.0;"/><line style="stroke:#181818;stroke-width:1.0;" x1="71.6206" x2="355.2988" y1="197.0762" y2="197.0762"/><text fill="#000000" font-family="sans-serif" font-size="13" lengthAdjust="spacing" textLength="106.1709" x="78.6206" y="191.8135">WANT_TO_CHAT</text><polygon fill="#181818" points="192.21,224.3672,182.21,228.3672,192.21,232.3672,188.21,228.3672" style="stroke:#181818;stroke-width:1.0;"/><line style="stroke:#181818;stroke-width:1.0;" x1="186.21" x2="360.2988" y1="228.3672" y2="228.3672"/><text fill="#000000" font-family="sans-serif" font-size="13" lengthAdjust="spacing" textLength="112.7153" x="198.21" y="223.1045">CHAT_AVAILABLE</text><polygon fill="#181818" points="82.6206,255.6582,72.6206,259.6582,82.6206,263.6582,78.6206,259.6582" style="stroke:#181818;stroke-width:1.0;"/><line style="stroke:#181818;stroke-width:1.0;" x1="76.6206" x2="360.2988" y1="259.6582" y2="259.6582"/><text fill="#000000" font-family="sans-serif" font-size="13" lengthAdjust="spacing" textLength="109.7827" x="88.6206" y="254.3955">WAIT_FOR_CHAT</text><path d="M10,274.6582 L70.1709,274.6582 L70.1709,283.9492 L60.1709,293.9492 L10,293.9492 L10,274.6582 " fill="#EEEEEE" style="stroke:#000000;stroke-width:1.5;"/><rect fill="none" height="619.791" style="stroke:#000000;stroke-width:1.5;" width="398.916" x="10" y="274.6582"/><text fill="#000000" font-family="sans-serif" font-size="13" font-weight="bold" lengthAdjust="spacing" textLength="15.1709" x="25" y="289.6865">alt</text><text fill="#000000" font-family="sans-serif" font-size="11" font-weight="bold" lengthAdjust="spacing" textLength="182.1392" x="85.1709" y="288.5283">[user gets bored and wants to exit]</text><polygon fill="#181818" points="349.2988,313.2402,359.2988,317.2402,349.2988,321.2402,353.2988,317.2402" style="stroke:#181818;stroke-width:1.0;"/><line style="stroke:#181818;stroke-width:1.0;" x1="71.6206" x2="355.2988" y1="317.2402" y2="317.2402"/><text fill="#000000" font-family="sans-serif" font-size="13" lengthAdjust="spacing" textLength="87.4009" x="78.6206" y="311.9775">ABORT_CHAT</text><polygon fill="#181818" points="192.21,344.5313,182.21,348.5313,192.21,352.5313,188.21,348.5313" style="stroke:#181818;stroke-width:1.0;"/><line style="stroke:#181818;stroke-width:1.0;" x1="186.21" x2="360.2988" y1="348.5313" y2="348.5313"/><text fill="#000000" font-family="sans-serif" font-size="13" lengthAdjust="spacing" textLength="139.4453" x="198.21" y="343.2686">NO_CHAT_AVAILABLE</text><polygon fill="#181818" points="82.6206,375.8223,72.6206,379.8223,82.6206,383.8223,78.6206,379.8223" style="stroke:#181818;stroke-width:1.0;"/><line style="stroke:#181818;stroke-width:1.0;" x1="76.6206" x2="360.2988" y1="379.8223" y2="379.8223"/><text fill="#000000" font-family="sans-serif" font-size="13" lengthAdjust="spacing" textLength="82.3354" x="88.6206" y="374.5596">CONNECTED</text><line style="stroke:#000000;stroke-width:1.0;stroke-dasharray:2.0,2.0;" x1="10" x2="408.916" y1="388.8223" y2="388.8223"/><text fill="#000000" font-family="sans-serif" font-size="11" font-weight="bold" lengthAdjust="spacing" textLength="114.3022" x="15" y="400.6924">[user gets connected]</text><polygon fill="#181818" points="349.2988,423.7441,359.2988,427.7441,349.2988,431.7441,353.2988,427.7441" style="stroke:#181818;stroke-width:1.0;"/><line style="stroke:#181818;stroke-width:1.0;" x1="181.21" x2="355.2988" y1="427.7441" y2="427.7441"/><text fill="#000000" font-family="sans-serif" font-size="13" lengthAdjust="spacing" textLength="95.3481" x="188.21" y="422.4814">ACCEPT_CHAT</text><polygon fill="#181818" points="82.6206,455.0352,72.6206,459.0352,82.6206,463.0352,78.6206,459.0352" style="stroke:#181818;stroke-width:1.0;"/><line style="stroke:#181818;stroke-width:1.0;" x1="76.6206" x2="360.2988" y1="459.0352" y2="459.0352"/><text fill="#000000" font-family="sans-serif" font-size="13" lengthAdjust="spacing" textLength="124.9536" x="88.6206" y="453.7725">CHAT_CONNECTED</text><polygon fill="#181818" points="192.21,486.3262,182.21,490.3262,192.21,494.3262,188.21,490.3262" style="stroke:#181818;stroke-width:1.0;"/><line style="stroke:#181818;stroke-width:1.0;" x1="186.21" x2="360.2988" y1="490.3262" y2="490.3262"/><text fill="#000000" font-family="sans-serif" font-size="13" lengthAdjust="spacing" textLength="124.9536" x="198.21" y="485.0635">CHAT_CONNECTED</text><path d="M20,505.3262 L92.4346,505.3262 L92.4346,514.6172 L82.4346,524.6172 L20,524.6172 L20,505.3262 " fill="#EEEEEE" style="stroke:#000000;stroke-width:1.5;"/><rect fill="none" height="207.0371" style="stroke:#000000;stroke-width:1.5;" width="378.916" x="20" y="505.3262"/><text fill="#000000" font-family="sans-serif" font-size="13" font-weight="bold" lengthAdjust="spacing" textLength="27.4346" x="35" y="520.3545">loop</text><text fill="#000000" font-family="sans-serif" font-size="11" font-weight="bold" lengthAdjust="spacing" textLength="108.2168" x="107.4346" y="519.1963">[message exchange]</text><polygon fill="#181818" points="349.2988,543.9082,359.2988,547.9082,349.2988,551.9082,353.2988,547.9082" style="stroke:#181818;stroke-width:1.0;"/><line style="stroke:#181818;stroke-width:1.0;" x1="71.6206" x2="355.2988" y1="547.9082" y2="547.9082"/><text fill="#000000" font-family="sans-serif" font-size="13" lengthAdjust="spacing" textLength="107.6436" x="78.6206" y="542.6455">SEND_MESSAGE</text><polygon fill="#181818" points="82.6206,575.1992,72.6206,579.1992,82.6206,583.1992,78.6206,579.1992" style="stroke:#181818;stroke-width:1.0;"/><line style="stroke:#181818;stroke-width:1.0;" x1="76.6206" x2="360.2988" y1="579.1992" y2="579.1992"/><text fill="#000000" font-family="sans-serif" font-size="13" lengthAdjust="spacing" textLength="106.1963" x="88.6206" y="573.9365">MESSAGE_SENT</text><polygon fill="#181818" points="192.21,606.4902,182.21,610.4902,192.21,614.4902,188.21,610.4902" style="stroke:#181818;stroke-width:1.0;"/><line style="stroke:#181818;stroke-width:1.0;" x1="186.21" x2="360.2988" y1="610.4902" y2="610.4902"/><text fill="#000000" font-family="sans-serif" font-size="13" lengthAdjust="spacing" textLength="137.9854" x="198.21" y="605.2275">MESSAGE_RECEIVED</text><polygon fill="#181818" points="349.2988,637.7813,359.2988,641.7813,349.2988,645.7813,353.2988,641.7813" style="stroke:#181818;stroke-width:1.0;"/><line style="stroke:#181818;stroke-width:1.0;" x1="181.21" x2="355.2988" y1="641.7813" y2="641.7813"/><text fill="#000000" font-family="sans-serif" font-size="13" lengthAdjust="spacing" textLength="107.6436" x="188.21" y="636.5186">SEND_MESSAGE</text><polygon fill="#181818" points="192.21,669.0723,182.21,673.0723,192.21,677.0723,188.21,673.0723" style="stroke:#181818;stroke-width:1.0;"/><line style="stroke:#181818;stroke-width:1.0;" x1="186.21" x2="360.2988" y1="673.0723" y2="673.0723"/><text fill="#000000" font-family="sans-serif" font-size="13" lengthAdjust="spacing" textLength="106.1963" x="198.21" y="667.8096">MESSAGE_SENT</text><polygon fill="#181818" points="82.6206,700.3633,72.6206,704.3633,82.6206,708.3633,78.6206,704.3633" style="stroke:#181818;stroke-width:1.0;"/><line style="stroke:#181818;stroke-width:1.0;" x1="76.6206" x2="360.2988" y1="704.3633" y2="704.3633"/><text fill="#000000" font-family="sans-serif" font-size="13" lengthAdjust="spacing" textLength="137.9854" x="88.6206" y="699.1006">MESSAGE_RECEIVED</text><path d="M20,726.3633 L80.1709,726.3633 L80.1709,735.6543 L70.1709,745.6543 L20,745.6543 L20,726.3633 " fill="#EEEEEE" style="stroke:#000000;stroke-width:1.5;"/><rect fill="none" height="98.5039" style="stroke:#000000;stroke-width:1.5;" width="378.916" x="20" y="726.3633"/><text fill="#000000" font-family="sans-serif" font-size="13" font-weight="bold" lengthAdjust="spacing" textLength="15.1709" x="35" y="741.3916">alt</text><text fill="#000000" font-family="sans-serif" font-size="11" font-weight="bold" lengthAdjust="spacing" textLength="100.2407" x="95.1709" y="740.2334">[user wants to exit]</text><polygon fill="#181818" points="349.2988,764.9453,359.2988,768.9453,349.2988,772.9453,353.2988,768.9453" style="stroke:#181818;stroke-width:1.0;"/><line style="stroke:#181818;stroke-width:1.0;" x1="71.6206" x2="355.2988" y1="768.9453" y2="768.9453"/><text fill="#000000" font-family="sans-serif" font-size="13" lengthAdjust="spacing" textLength="70.0654" x="78.6206" y="763.6826">END_CHAT</text><line style="stroke:#000000;stroke-width:1.0;stroke-dasharray:2.0,2.0;" x1="20" x2="398.916" y1="777.9453" y2="777.9453"/><text fill="#000000" font-family="sans-serif" font-size="11" font-weight="bold" lengthAdjust="spacing" textLength="127.7515" x="25" y="789.8154">[employee wants to exit]</text><polygon fill="#181818" points="349.2988,812.8672,359.2988,816.8672,349.2988,820.8672,353.2988,816.8672" style="stroke:#181818;stroke-width:1.0;"/><line style="stroke:#181818;stroke-width:1.0;" x1="181.21" x2="355.2988" y1="816.8672" y2="816.8672"/><text fill="#000000" font-family="sans-serif" font-size="13" lengthAdjust="spacing" textLength="70.0654" x="188.21" y="811.6045">END_CHAT</text><polygon fill="#181818" points="192.21,851.1582,182.21,855.1582,192.21,859.1582,188.21,855.1582" style="stroke:#181818;stroke-width:1.0;"/><line style="stroke:#181818;stroke-width:1.0;" x1="186.21" x2="360.2988" y1="855.1582" y2="855.1582"/><text fill="#000000" font-family="sans-serif" font-size="13" lengthAdjust="spacing" textLength="146.6245" x="198.21" y="849.8955">CHAT_DISCONNECTED</text><polygon fill="#181818" points="82.6206,882.4492,72.6206,886.4492,82.6206,890.4492,78.6206,886.4492" style="stroke:#181818;stroke-width:1.0;"/><line style="stroke:#181818;stroke-width:1.0;" x1="76.6206" x2="360.2988" y1="886.4492" y2="886.4492"/><text fill="#000000" font-family="sans-serif" font-size="13" lengthAdjust="spacing" textLength="146.6245" x="88.6206" y="881.1865">CHAT_DISCONNECTED</text><!--SRC=[ZPBDJiCm48JlUOfLxxm01oJNNI1IIL1jjyV8JLSb8dMYs51uU_9V1zAAtEAPsI-pJgahbwLPgOs3XR9K0SypCcu1se8AIb_6KvaNtqI-1QSMGTKdLQqYWa31tGE8U-25CPGwS0MaRzh1cVQsID_91Q9ngDeHHn5oYQi0_vT1FpDmTYoIYOmJ_ipanLQ_96pBmZLRhd4axbWeayTuqvbrxk2ZQNyaPs5VL7G0RGvmhblPvXleAtC1rC_0Oiju8xjmSppGeexk0KTrKfDoInunxThIeRKFEs2Su-jlYEehNMRv_1afBueIJcIjFbBTezwcELAh-7q4Hgla1OLWJpYA0x0_JsgJd8fu4JV8CTpsKB_6zT5uQxIwCffCjwNnplvUab-iWOyRRDTEmtyy7yJPO0-Tx7aLYfbRK7Dga_y1]--></g></svg>