<svg xmlns="http://www.w3.org/2000/svg" xmlns:xlink="http://www.w3.org/1999/xlink" contentStyleType="text/css" height="716px" preserveAspectRatio="none" style="width:737px;height:716px;background:#FFFFFF;" version="1.1" viewBox="0 0 737 716" width="737px" zoomAndPan="magnify"><defs/><g><!--cluster WebServer--><g id="cluster_WebServer"><path d="M252.5,6.0137 L326.6445,6.0137 A3.75,3.75 0 0 1 329.1445,8.5137 L336.1445,30.6348 L471.5,30.6348 A2.5,2.5 0 0 1 474,33.1348 L474,160.5137 A2.5,2.5 0 0 1 471.5,163.0137 L252.5,163.0137 A2.5,2.5 0 0 1 250,160.5137 L250,8.5137 A2.5,2.5 0 0 1 252.5,6.0137 " fill="none" style="stroke:#000000;stroke-width:1.5;"/><line style="stroke:#000000;stroke-width:1.5;" x1="250" x2="336.1445" y1="30.6348" y2="30.6348"/><text fill="#000000" font-family="sans-serif" font-size="14" font-weight="bold" lengthAdjust="spacing" textLength="73.1445" x="254" y="23.1211">WebServer</text></g><!--cluster SampleApp--><g id="cluster_SampleApp"><path d="M8.5,187.0137 L86.5137,187.0137 A3.75,3.75 0 0 1 89.0137,189.5137 L96.0137,211.6348 L727.5,211.6348 A2.5,2.5 0 0 1 730,214.1348 L730,706.5137 A2.5,2.5 0 0 1 727.5,709.0137 L8.5,709.0137 A2.5,2.5 0 0 1 6,706.5137 L6,189.5137 A2.5,2.5 0 0 1 8.5,187.0137 " fill="none" style="stroke:#000000;stroke-width:1.5;"/><line style="stroke:#000000;stroke-width:1.5;" x1="6" x2="96.0137" y1="211.6348" y2="211.6348"/><text fill="#000000" font-family="sans-serif" font-size="14" font-weight="bold" lengthAdjust="spacing" textLength="77.0137" x="10" y="204.1211">SampleApp</text></g><!--class HttpResponseBody--><g id="elem_HttpResponseBody"><rect codeLine="3" fill="#F1F1F1" height="103.8633" id="HttpResponseBody" rx="2.5" ry="2.5" style="stroke:#181818;stroke-width:0.5;" width="190.958" x="266.5" y="43.0137"/><ellipse cx="298.749" cy="59.0137" fill="#B4A7E5" rx="11" ry="11" style="stroke:#181818;stroke-width:1.0;"/><path d="M299.7021,55.6543 L299.7021,62.3105 L301.4208,62.3105 Q302.0302,62.3105 302.2958,62.5449 Q302.5615,62.7793 302.5615,63.1699 Q302.5615,63.5449 302.2958,63.7793 Q302.0302,64.0137 301.4208,64.0137 L296.2802,64.0137 Q295.6708,64.0137 295.4052,63.7793 Q295.1396,63.5449 295.1396,63.1543 Q295.1396,62.7793 295.4052,62.5449 Q295.6708,62.3105 296.2802,62.3105 L297.999,62.3105 L297.999,55.6543 L296.2802,55.6543 Q295.6708,55.6543 295.4052,55.4199 Q295.1396,55.1855 295.1396,54.7949 Q295.1396,54.4199 295.4052,54.1855 Q295.6708,53.9512 296.2802,53.9512 L301.4208,53.9512 Q302.0302,53.9512 302.2958,54.1855 Q302.5615,54.4199 302.5615,54.7949 Q302.5615,55.1855 302.2958,55.4199 Q302.0302,55.6543 301.4208,55.6543 L299.7021,55.6543 Z " fill="#000000"/><text fill="#000000" font-family="sans-serif" font-size="14" font-style="italic" lengthAdjust="spacing" textLength="120.627" x="316.5821" y="64.8105">HttpResponseBody</text><line style="stroke:#181818;stroke-width:0.5;" x1="267.5" x2="456.458" y1="75.0137" y2="75.0137"/><line style="stroke:#181818;stroke-width:0.5;" x1="267.5" x2="456.458" y1="83.0137" y2="83.0137"/><text fill="#000000" font-family="sans-serif" font-size="14" lengthAdjust="spacing" textLength="178.958" x="272.5" y="102.1211">void write(OutputStream out)</text><text fill="#000000" font-family="sans-serif" font-size="14" lengthAdjust="spacing" textLength="133.1025" x="272.5" y="120.7422">Long contentLength()</text><text fill="#000000" font-family="sans-serif" font-size="14" lengthAdjust="spacing" textLength="126.834" x="272.5" y="139.3633">String contentType()</text></g><!--class IHtmlElement--><g id="elem_IHtmlElement"><rect codeLine="11" fill="#F1F1F1" height="103.8633" id="IHtmlElement" rx="2.5" ry="2.5" style="stroke:#181818;stroke-width:0.5;" width="190.958" x="266.5" y="224.0137"/><ellipse cx="315.7188" cy="240.0137" fill="#B4A7E5" rx="11" ry="11" style="stroke:#181818;stroke-width:1.0;"/><path d="M316.6719,236.6543 L316.6719,243.3105 L318.3906,243.3105 Q319,243.3105 319.2656,243.5449 Q319.5313,243.7793 319.5313,244.1699 Q319.5313,244.5449 319.2656,244.7793 Q319,245.0137 318.3906,245.0137 L313.25,245.0137 Q312.6406,245.0137 312.375,244.7793 Q312.1094,244.5449 312.1094,244.1543 Q312.1094,243.7793 312.375,243.5449 Q312.6406,243.3105 313.25,243.3105 L314.9688,243.3105 L314.9688,236.6543 L313.25,236.6543 Q312.6406,236.6543 312.375,236.4199 Q312.1094,236.1855 312.1094,235.7949 Q312.1094,235.4199 312.375,235.1855 Q312.6406,234.9512 313.25,234.9512 L318.3906,234.9512 Q319,234.9512 319.2656,235.1855 Q319.5313,235.4199 319.5313,235.7949 Q319.5313,236.1855 319.2656,236.4199 Q319,236.6543 318.3906,236.6543 L316.6719,236.6543 Z " fill="#000000"/><text fill="#000000" font-family="sans-serif" font-size="14" font-style="italic" lengthAdjust="spacing" textLength="84.0205" x="336.2188" y="245.8105">IHtmlElement</text><line style="stroke:#181818;stroke-width:0.5;" x1="267.5" x2="456.458" y1="256.0137" y2="256.0137"/><line style="stroke:#181818;stroke-width:0.5;" x1="267.5" x2="456.458" y1="264.0137" y2="264.0137"/><text fill="#000000" font-family="sans-serif" font-size="14" lengthAdjust="spacing" textLength="178.958" x="272.5" y="283.1211">void write(OutputStream out)</text><text fill="#000000" font-family="sans-serif" font-size="14" lengthAdjust="spacing" textLength="133.1025" x="272.5" y="301.7422">Long contentLength()</text><text fill="#000000" font-family="sans-serif" font-size="14" lengthAdjust="spacing" textLength="126.834" x="272.5" y="320.3633">String contentType()</text></g><!--class HtmlElement--><g id="elem_HtmlElement"><rect codeLine="17" fill="#F1F1F1" height="141.1055" id="HtmlElement" rx="2.5" ry="2.5" style="stroke:#181818;stroke-width:0.5;" width="216.6201" x="252.5" y="552.0137"/><ellipse cx="316.4946" cy="568.0137" fill="#ADD1B2" rx="11" ry="11" style="stroke:#181818;stroke-width:1.0;"/><path d="M319.2603,563.8887 Q319.4165,563.6699 319.604,563.5605 Q319.7915,563.4512 320.0103,563.4512 Q320.3853,563.4512 320.6196,563.7168 Q320.854,563.9668 320.854,564.5762 L320.854,566.0293 Q320.854,566.6387 320.6196,566.9043 Q320.3853,567.1699 320.0103,567.1699 Q319.6665,567.1699 319.4634,566.9668 Q319.2603,566.7793 319.1509,566.2637 Q319.104,565.9043 318.9165,565.7168 Q318.5884,565.3418 317.979,565.123 Q317.3696,564.9043 316.7446,564.9043 Q315.979,564.9043 315.3384,565.2324 Q314.7134,565.5605 314.2134,566.3105 Q313.729,567.0605 313.729,568.0918 L313.729,569.1855 Q313.729,570.4199 314.6196,571.248 Q315.5103,572.0605 317.104,572.0605 Q318.0415,572.0605 318.6978,571.8105 Q319.0884,571.6543 319.5103,571.2168 Q319.7759,570.9512 319.9165,570.873 Q320.0728,570.7949 320.2759,570.7949 Q320.604,570.7949 320.854,571.0605 Q321.1196,571.3105 321.1196,571.6543 Q321.1196,571.998 320.7759,572.4043 Q320.2759,572.9824 319.479,573.3105 Q318.4009,573.7637 317.104,573.7637 Q315.5884,573.7637 314.3853,573.1387 Q313.4009,572.6387 312.7134,571.5762 Q312.0259,570.498 312.0259,569.2168 L312.0259,568.0605 Q312.0259,566.7324 312.6353,565.5918 Q313.2603,564.4355 314.354,563.8262 Q315.4478,563.2012 316.6821,563.2012 Q317.4165,563.2012 318.0571,563.373 Q318.7134,563.5293 319.2603,563.8887 Z " fill="#000000"/><text fill="#000000" font-family="sans-serif" font-size="14" lengthAdjust="spacing" textLength="80.1309" x="336.9946" y="573.8105">HtmlElement</text><line style="stroke:#181818;stroke-width:0.5;" x1="253.5" x2="468.1201" y1="584.0137" y2="584.0137"/><text fill="#000000" font-family="sans-serif" font-size="14" lengthAdjust="spacing" textLength="75.4824" x="258.5" y="603.1211">String name</text><text fill="#000000" font-family="sans-serif" font-size="14" lengthAdjust="spacing" textLength="182.875" x="258.5" y="621.7422">Map&lt;String, String&gt; attrbutes</text><line style="stroke:#181818;stroke-width:0.5;" x1="253.5" x2="468.1201" y1="629.2559" y2="629.2559"/><text fill="#000000" font-family="sans-serif" font-size="14" lengthAdjust="spacing" textLength="182.8477" x="258.5" y="648.3633">void write(OutputStream out);</text><text fill="#000000" font-family="sans-serif" font-size="14" lengthAdjust="spacing" textLength="204.6201" x="258.5" y="666.9844">void setAttribute(IHtmlElement c)</text><text fill="#000000" font-family="sans-serif" font-size="14" lengthAdjust="spacing" textLength="184.3857" x="258.5" y="685.6055">many more utility methods...()</text></g><!--class TextElement--><g id="elem_TextElement"><rect codeLine="26" fill="#F1F1F1" height="85.2422" id="TextElement" rx="2.5" ry="2.5" style="stroke:#181818;stroke-width:0.5;" width="195.6201" x="22" y="397.5137"/><ellipse cx="76.2671" cy="413.5137" fill="#ADD1B2" rx="11" ry="11" style="stroke:#181818;stroke-width:1.0;"/><path d="M79.0327,409.3887 Q79.189,409.1699 79.3765,409.0605 Q79.564,408.9512 79.7827,408.9512 Q80.1577,408.9512 80.3921,409.2168 Q80.6265,409.4668 80.6265,410.0762 L80.6265,411.5293 Q80.6265,412.1387 80.3921,412.4043 Q80.1577,412.6699 79.7827,412.6699 Q79.439,412.6699 79.2358,412.4668 Q79.0327,412.2793 78.9233,411.7637 Q78.8765,411.4043 78.689,411.2168 Q78.3608,410.8418 77.7515,410.623 Q77.1421,410.4043 76.5171,410.4043 Q75.7515,410.4043 75.1108,410.7324 Q74.4858,411.0605 73.9858,411.8105 Q73.5015,412.5605 73.5015,413.5918 L73.5015,414.6855 Q73.5015,415.9199 74.3921,416.748 Q75.2827,417.5605 76.8765,417.5605 Q77.814,417.5605 78.4702,417.3105 Q78.8608,417.1543 79.2827,416.7168 Q79.5483,416.4512 79.689,416.373 Q79.8452,416.2949 80.0483,416.2949 Q80.3765,416.2949 80.6265,416.5605 Q80.8921,416.8105 80.8921,417.1543 Q80.8921,417.498 80.5483,417.9043 Q80.0483,418.4824 79.2515,418.8105 Q78.1733,419.2637 76.8765,419.2637 Q75.3608,419.2637 74.1577,418.6387 Q73.1733,418.1387 72.4858,417.0762 Q71.7983,415.998 71.7983,414.7168 L71.7983,413.5605 Q71.7983,412.2324 72.4077,411.0918 Q73.0327,409.9355 74.1265,409.3262 Q75.2202,408.7012 76.4546,408.7012 Q77.189,408.7012 77.8296,408.873 Q78.4858,409.0293 79.0327,409.3887 Z " fill="#000000"/><text fill="#000000" font-family="sans-serif" font-size="14" lengthAdjust="spacing" textLength="78.5859" x="96.7671" y="419.3105">TextElement</text><line style="stroke:#181818;stroke-width:0.5;" x1="23" x2="216.6201" y1="429.5137" y2="429.5137"/><text fill="#000000" font-family="sans-serif" font-size="14" lengthAdjust="spacing" textLength="86.3857" x="28" y="448.6211">String content</text><line style="stroke:#181818;stroke-width:0.5;" x1="23" x2="216.6201" y1="456.1348" y2="456.1348"/><text fill="#000000" font-family="sans-serif" font-size="14" lengthAdjust="spacing" textLength="183.6201" x="28" y="475.2422">void write(OutputStream out))</text></g><!--class NoElement--><g id="elem_NoElement"><rect codeLine="32" fill="#F1F1F1" height="66.6211" id="NoElement" rx="2.5" ry="2.5" style="stroke:#181818;stroke-width:0.5;" width="194.8477" x="506.5" y="406.5137"/><ellipse cx="565.0464" cy="422.5137" fill="#ADD1B2" rx="11" ry="11" style="stroke:#181818;stroke-width:1.0;"/><path d="M567.812,418.3887 Q567.9683,418.1699 568.1558,418.0605 Q568.3433,417.9512 568.562,417.9512 Q568.937,417.9512 569.1714,418.2168 Q569.4058,418.4668 569.4058,419.0762 L569.4058,420.5293 Q569.4058,421.1387 569.1714,421.4043 Q568.937,421.6699 568.562,421.6699 Q568.2183,421.6699 568.0151,421.4668 Q567.812,421.2793 567.7026,420.7637 Q567.6558,420.4043 567.4683,420.2168 Q567.1401,419.8418 566.5308,419.623 Q565.9214,419.4043 565.2964,419.4043 Q564.5308,419.4043 563.8901,419.7324 Q563.2651,420.0605 562.7651,420.8105 Q562.2808,421.5605 562.2808,422.5918 L562.2808,423.6855 Q562.2808,424.9199 563.1714,425.748 Q564.062,426.5605 565.6558,426.5605 Q566.5933,426.5605 567.2495,426.3105 Q567.6401,426.1543 568.062,425.7168 Q568.3276,425.4512 568.4683,425.373 Q568.6245,425.2949 568.8276,425.2949 Q569.1558,425.2949 569.4058,425.5605 Q569.6714,425.8105 569.6714,426.1543 Q569.6714,426.498 569.3276,426.9043 Q568.8276,427.4824 568.0308,427.8105 Q566.9526,428.2637 565.6558,428.2637 Q564.1401,428.2637 562.937,427.6387 Q561.9526,427.1387 561.2651,426.0762 Q560.5776,424.998 560.5776,423.7168 L560.5776,422.5605 Q560.5776,421.2324 561.187,420.0918 Q561.812,418.9355 562.9058,418.3262 Q563.9995,417.7012 565.2339,417.7012 Q565.9683,417.7012 566.6089,417.873 Q567.2651,418.0293 567.812,418.3887 Z " fill="#000000"/><text fill="#000000" font-family="sans-serif" font-size="14" lengthAdjust="spacing" textLength="69.2549" x="585.5464" y="428.3105">NoElement</text><line style="stroke:#181818;stroke-width:0.5;" x1="507.5" x2="700.3477" y1="438.5137" y2="438.5137"/><line style="stroke:#181818;stroke-width:0.5;" x1="507.5" x2="700.3477" y1="446.5137" y2="446.5137"/><text fill="#000000" font-family="sans-serif" font-size="14" lengthAdjust="spacing" textLength="182.8477" x="512.5" y="465.6211">void write(OutputStream out);</text></g><!--class TextInputElement--><g id="elem_TextInputElement"><rect codeLine="36" fill="#F1F1F1" height="122.4844" id="TextInputElement" rx="2.5" ry="2.5" style="stroke:#181818;stroke-width:0.5;" width="208.8613" x="504.5" y="561.5137"/><ellipse cx="549.8188" cy="577.5137" fill="#ADD1B2" rx="11" ry="11" style="stroke:#181818;stroke-width:1.0;"/><path d="M552.5845,573.3887 Q552.7407,573.1699 552.9282,573.0605 Q553.1157,572.9512 553.3345,572.9512 Q553.7095,572.9512 553.9438,573.2168 Q554.1782,573.4668 554.1782,574.0762 L554.1782,575.5293 Q554.1782,576.1387 553.9438,576.4043 Q553.7095,576.6699 553.3345,576.6699 Q552.9907,576.6699 552.7876,576.4668 Q552.5845,576.2793 552.4751,575.7637 Q552.4282,575.4043 552.2407,575.2168 Q551.9126,574.8418 551.3032,574.623 Q550.6938,574.4043 550.0688,574.4043 Q549.3032,574.4043 548.6626,574.7324 Q548.0376,575.0605 547.5376,575.8105 Q547.0532,576.5605 547.0532,577.5918 L547.0532,578.6855 Q547.0532,579.9199 547.9438,580.748 Q548.8345,581.5605 550.4282,581.5605 Q551.3657,581.5605 552.022,581.3105 Q552.4126,581.1543 552.8345,580.7168 Q553.1001,580.4512 553.2407,580.373 Q553.397,580.2949 553.6001,580.2949 Q553.9282,580.2949 554.1782,580.5605 Q554.4438,580.8105 554.4438,581.1543 Q554.4438,581.498 554.1001,581.9043 Q553.6001,582.4824 552.8032,582.8105 Q551.7251,583.2637 550.4282,583.2637 Q548.9126,583.2637 547.7095,582.6387 Q546.7251,582.1387 546.0376,581.0762 Q545.3501,579.998 545.3501,578.7168 L545.3501,577.5605 Q545.3501,576.2324 545.9595,575.0918 Q546.5845,573.9355 547.6782,573.3262 Q548.772,572.7012 550.0063,572.7012 Q550.7407,572.7012 551.3813,572.873 Q552.0376,573.0293 552.5845,573.3887 Z " fill="#000000"/><text fill="#000000" font-family="sans-serif" font-size="14" lengthAdjust="spacing" textLength="109.7236" x="570.3188" y="583.3105">TextInputElement</text><line style="stroke:#181818;stroke-width:0.5;" x1="505.5" x2="712.3613" y1="593.5137" y2="593.5137"/><text fill="#000000" font-family="sans-serif" font-size="14" lengthAdjust="spacing" textLength="196.8613" x="510.5" y="612.6211">HtmlElement containerElement;</text><text fill="#000000" font-family="sans-serif" font-size="14" lengthAdjust="spacing" textLength="169.627" x="510.5" y="631.2422">HtmlElement inputElement;</text><text fill="#000000" font-family="sans-serif" font-size="14" lengthAdjust="spacing" textLength="168.8477" x="510.5" y="649.8633">HtmlElement labelElement;</text><line style="stroke:#181818;stroke-width:0.5;" x1="505.5" x2="712.3613" y1="657.377" y2="657.377"/><text fill="#000000" font-family="sans-serif" font-size="14" lengthAdjust="spacing" textLength="182.8477" x="510.5" y="676.4844">void write(OutputStream out);</text></g><!--class CustomElement--><g id="elem_CustomElement"><rect codeLine="44" fill="#F1F1F1" height="85.2422" id="CustomElement" rx="2.5" ry="2.5" style="stroke:#181818;stroke-width:0.5;" width="194.8477" x="22.5" y="580.0137"/><ellipse cx="65.9647" cy="596.0137" fill="#ADD1B2" rx="11" ry="11" style="stroke:#181818;stroke-width:1.0;"/><path d="M68.7303,591.8887 Q68.8866,591.6699 69.0741,591.5605 Q69.2616,591.4512 69.4803,591.4512 Q69.8553,591.4512 70.0897,591.7168 Q70.3241,591.9668 70.3241,592.5762 L70.3241,594.0293 Q70.3241,594.6387 70.0897,594.9043 Q69.8553,595.1699 69.4803,595.1699 Q69.1366,595.1699 68.9334,594.9668 Q68.7303,594.7793 68.6209,594.2637 Q68.5741,593.9043 68.3866,593.7168 Q68.0584,593.3418 67.4491,593.123 Q66.8397,592.9043 66.2147,592.9043 Q65.4491,592.9043 64.8084,593.2324 Q64.1834,593.5605 63.6834,594.3105 Q63.1991,595.0605 63.1991,596.0918 L63.1991,597.1855 Q63.1991,598.4199 64.0897,599.248 Q64.9803,600.0605 66.5741,600.0605 Q67.5116,600.0605 68.1678,599.8105 Q68.5584,599.6543 68.9803,599.2168 Q69.2459,598.9512 69.3866,598.873 Q69.5428,598.7949 69.7459,598.7949 Q70.0741,598.7949 70.3241,599.0605 Q70.5897,599.3105 70.5897,599.6543 Q70.5897,599.998 70.2459,600.4043 Q69.7459,600.9824 68.9491,601.3105 Q67.8709,601.7637 66.5741,601.7637 Q65.0584,601.7637 63.8553,601.1387 Q62.8709,600.6387 62.1834,599.5762 Q61.4959,598.498 61.4959,597.2168 L61.4959,596.0605 Q61.4959,594.7324 62.1053,593.5918 Q62.7303,592.4355 63.8241,591.8262 Q64.9178,591.2012 66.1522,591.2012 Q66.8866,591.2012 67.5272,591.373 Q68.1834,591.5293 68.7303,591.8887 Z " fill="#000000"/><text fill="#000000" font-family="sans-serif" font-size="14" lengthAdjust="spacing" textLength="99.5928" x="86.2902" y="601.8105">CustomElement</text><line style="stroke:#181818;stroke-width:0.5;" x1="23.5" x2="216.3477" y1="612.0137" y2="612.0137"/><text fill="#000000" font-family="sans-serif" font-size="14" lengthAdjust="spacing" textLength="11.6689" x="28.5" y="631.1211">...</text><line style="stroke:#181818;stroke-width:0.5;" x1="23.5" x2="216.3477" y1="638.6348" y2="638.6348"/><text fill="#000000" font-family="sans-serif" font-size="14" lengthAdjust="spacing" textLength="182.8477" x="28.5" y="657.7422">void write(OutputStream out);</text></g><!--class ElementGroup--><g id="elem_ElementGroup"><rect codeLine="49" fill="#F1F1F1" height="103.8633" id="ElementGroup" rx="2.5" ry="2.5" style="stroke:#181818;stroke-width:0.5;" width="218.1992" x="253" y="388.0137"/><ellipse cx="312.7153" cy="404.0137" fill="#ADD1B2" rx="11" ry="11" style="stroke:#181818;stroke-width:1.0;"/><path d="M315.481,399.8887 Q315.6372,399.6699 315.8247,399.5605 Q316.0122,399.4512 316.231,399.4512 Q316.606,399.4512 316.8403,399.7168 Q317.0747,399.9668 317.0747,400.5762 L317.0747,402.0293 Q317.0747,402.6387 316.8403,402.9043 Q316.606,403.1699 316.231,403.1699 Q315.8872,403.1699 315.6841,402.9668 Q315.481,402.7793 315.3716,402.2637 Q315.3247,401.9043 315.1372,401.7168 Q314.8091,401.3418 314.1997,401.123 Q313.5903,400.9043 312.9653,400.9043 Q312.1997,400.9043 311.5591,401.2324 Q310.9341,401.5605 310.4341,402.3105 Q309.9497,403.0605 309.9497,404.0918 L309.9497,405.1855 Q309.9497,406.4199 310.8403,407.248 Q311.731,408.0605 313.3247,408.0605 Q314.2622,408.0605 314.9185,407.8105 Q315.3091,407.6543 315.731,407.2168 Q315.9966,406.9512 316.1372,406.873 Q316.2935,406.7949 316.4966,406.7949 Q316.8247,406.7949 317.0747,407.0605 Q317.3403,407.3105 317.3403,407.6543 Q317.3403,407.998 316.9966,408.4043 Q316.4966,408.9824 315.6997,409.3105 Q314.6216,409.7637 313.3247,409.7637 Q311.8091,409.7637 310.606,409.1387 Q309.6216,408.6387 308.9341,407.5762 Q308.2466,406.498 308.2466,405.2168 L308.2466,404.0605 Q308.2466,402.7324 308.856,401.5918 Q309.481,400.4355 310.5747,399.8262 Q311.6685,399.2012 312.9028,399.2012 Q313.6372,399.2012 314.2778,399.373 Q314.9341,399.5293 315.481,399.8887 Z " fill="#000000"/><text fill="#000000" font-family="sans-serif" font-size="14" lengthAdjust="spacing" textLength="90.2686" x="333.2153" y="409.8105">ElementGroup</text><line style="stroke:#181818;stroke-width:0.5;" x1="254" x2="470.1992" y1="420.0137" y2="420.0137"/><text fill="#000000" font-family="sans-serif" font-size="14" lengthAdjust="spacing" textLength="141.6133" x="259" y="439.1211">IHtmlElement[] content</text><line style="stroke:#181818;stroke-width:0.5;" x1="254" x2="470.1992" y1="446.6348" y2="446.6348"/><text fill="#000000" font-family="sans-serif" font-size="14" lengthAdjust="spacing" textLength="206.1992" x="259" y="465.7422">void addContent(IHtmlElement c)</text><text fill="#000000" font-family="sans-serif" font-size="14" lengthAdjust="spacing" textLength="182.8477" x="259" y="484.3633">void write(OutputStream out);</text></g><!--reverse link HttpResponseBody to IHtmlElement--><g id="link_HttpResponseBody_IHtmlElement"><path codeLine="58" d="M362,165.3037 C362,189.2737 362,199.7437 362,223.7137 " fill="none" id="HttpResponseBody-backto-IHtmlElement" style="stroke:#181818;stroke-width:1.0;"/><polygon fill="none" points="362,147.3037,356,165.3037,368,165.3037,362,147.3037" style="stroke:#181818;stroke-width:1.0;"/></g><!--reverse link IHtmlElement to NoElement--><g id="link_IHtmlElement_NoElement"><path codeLine="59" d="M453.1994,338.0644 C491.4394,363.6544 521.66,383.8937 555.18,406.3337 " fill="none" id="IHtmlElement-backto-NoElement" style="stroke:#181818;stroke-width:1.0;"/><polygon fill="none" points="438.24,328.0537,449.8625,343.0509,456.5364,333.078,438.24,328.0537" style="stroke:#181818;stroke-width:1.0;"/></g><!--reverse link IHtmlElement to TextElement--><g id="link_IHtmlElement_TextElement"><path codeLine="60" d="M270.8017,338.0662 C237.4117,360.4162 213.69,376.2937 182.09,397.4437 " fill="none" id="IHtmlElement-backto-TextElement" style="stroke:#181818;stroke-width:1.0;"/><polygon fill="none" points="285.76,328.0537,267.4642,333.0801,274.1392,343.0523,285.76,328.0537" style="stroke:#181818;stroke-width:1.0;"/></g><!--reverse link IHtmlElement to ElementGroup--><g id="link_IHtmlElement_ElementGroup"><path codeLine="61" d="M362,346.2737 C362,365.2737 362,368.8137 362,387.8137 " fill="none" id="IHtmlElement-backto-ElementGroup" style="stroke:#181818;stroke-width:1.0;"/><polygon fill="none" points="362,328.2737,356,346.2737,368,346.2737,362,328.2737" style="stroke:#181818;stroke-width:1.0;"/></g><!--reverse link ElementGroup to HtmlElement--><g id="link_ElementGroup_HtmlElement"><path codeLine="62" d="M361.6133,510.2534 C361.5033,528.8034 361.5,532.0837 361.39,551.9437 " fill="none" id="ElementGroup-backto-HtmlElement" style="stroke:#181818;stroke-width:1.0;"/><polygon fill="none" points="361.72,492.2537,355.6134,510.2178,367.6132,510.2889,361.72,492.2537" style="stroke:#181818;stroke-width:1.0;"/></g><!--reverse link HtmlElement to TextInputElement--><g id="link_HtmlElement_TextInputElement"><path codeLine="63" d="M487.98,622.5137 C499.48,622.5137 492.97,622.5137 504.47,622.5137 " fill="none" id="HtmlElement-backto-TextInputElement" style="stroke:#181818;stroke-width:1.0;"/><polygon fill="none" points="469.98,622.5137,487.98,628.5137,487.98,616.5137,469.98,622.5137" style="stroke:#181818;stroke-width:1.0;"/></g><!--link CustomElement to HtmlElement--><g id="link_CustomElement_HtmlElement"><path codeLine="64" d="M217.91,622.5137 C229.36,622.5137 222.82,622.5137 234.28,622.5137 " fill="none" id="CustomElement-to-HtmlElement" style="stroke:#181818;stroke-width:1.0;"/><polygon fill="none" points="252.28,622.5137,234.28,616.5137,234.28,628.5137,252.28,622.5137" style="stroke:#181818;stroke-width:1.0;"/></g><!--link TextElement to ElementGroup--><!--SRC=[lLHTQy8m57tFhmY-pC7g7t08JiOKt0PJs8Fu4Djh6zOc8Rbrayt_ldGDRRfMSJxiKYZDEVVqt8zMiV2DnK1xhx1PWDw1xj5FGcrmWQ2tB0GwHLGlO9GK1kvaj2_n8dQIH_HTSuJ-SuugnmLgO1cLELvNfBaKCGsbbHCu1n5Zqgz1cy1hUBbNuC03EH2YdBi5orGAOwLQtcPJpDBx53ARJV_9sCyjJ9anjFljBbUm3AgpHwPko_CRXuyeGzIR7C6GiumFcom3EBO2l53eD_eGrcLaJEnf9ZNG77dAqJu09Z8oWy6Wgw0bVE3HWbmppdFR8Vua_pQfORU_cR2qjbAZ0zOfumAqEnXsihWdrCr8sGRIYd6fwKbkK6PjntO6bqewiGSjS-Kf-ckmMXyP68kYIGaSNPkptDYhaLz4aAlWQ-JwsFnja7hyBZooBqJy9Jn9R7JX5F6tJP_eYv3MVWKfRB6a-eBDaHQ2ciT9IVHvv6ehDLNISEHIs8-eKLomIdWKWLXNoRwPRm00]--></g></svg>