<svg xmlns="http://www.w3.org/2000/svg" xmlns:xlink="http://www.w3.org/1999/xlink" contentStyleType="text/css" height="459px" preserveAspectRatio="none" style="width:649px;height:459px;background:#FFFFFF;" version="1.1" viewBox="0 0 649 459" width="649px" zoomAndPan="magnify"><defs/><g><!--cluster com.simonebasile.sampleapp--><g id="cluster_com.simonebasile.sampleapp"><path d="M8.5,6.0137 L207.9063,6.0137 A3.75,3.75 0 0 1 210.4063,8.5137 L217.4063,30.6348 L639.5,30.6348 A2.5,2.5 0 0 1 642,33.1348 L642,449.5137 A2.5,2.5 0 0 1 639.5,452.0137 L8.5,452.0137 A2.5,2.5 0 0 1 6,449.5137 L6,8.5137 A2.5,2.5 0 0 1 8.5,6.0137 " fill="none" style="stroke:#000000;stroke-width:1.5;"/><line style="stroke:#000000;stroke-width:1.5;" x1="6" x2="217.4063" y1="30.6348" y2="30.6348"/><text fill="#000000" font-family="sans-serif" font-size="14" font-weight="bold" lengthAdjust="spacing" textLength="198.4063" x="10" y="23.1211">com.simonebasile.sampleapp</text></g><!--entity controller--><g id="elem_controller"><path d="M47,52.0137 L124.5654,52.0137 A3.75,3.75 0 0 1 127.0654,54.5137 L134.0654,76.6348 L198.8271,76.6348 A2.5,2.5 0 0 1 201.3271,79.1348 L201.3271,128.377 A2.5,2.5 0 0 1 198.8271,130.877 L47,130.877 A2.5,2.5 0 0 1 44.5,128.377 L44.5,54.5137 A2.5,2.5 0 0 1 47,52.0137 " fill="#F1F1F1" style="stroke:#181818;stroke-width:0.5;"/><line style="stroke:#181818;stroke-width:0.5;" x1="44.5" x2="134.0654" y1="76.6348" y2="76.6348"/><text fill="#000000" font-family="sans-serif" font-size="14" font-weight="bold" lengthAdjust="spacing" textLength="64.5654" x="54.5" y="70.1211">controller</text><text fill="#000000" font-family="sans-serif" font-size="14" lengthAdjust="spacing" textLength="91.8203" x="54.5" y="98.7422">http controllers</text><text fill="#000000" font-family="sans-serif" font-size="14" lengthAdjust="spacing" textLength="126.8271" x="54.5" y="117.3633">wesocket controllers</text></g><!--entity dto--><g id="elem_dto"><path d="M239,52.0137 L273.7656,52.0137 A3.75,3.75 0 0 1 276.2656,54.5137 L283.2656,76.6348 L399.4199,76.6348 A2.5,2.5 0 0 1 401.9199,79.1348 L401.9199,128.377 A2.5,2.5 0 0 1 399.4199,130.877 L239,130.877 A2.5,2.5 0 0 1 236.5,128.377 L236.5,54.5137 A2.5,2.5 0 0 1 239,52.0137 " fill="#F1F1F1" style="stroke:#181818;stroke-width:0.5;"/><line style="stroke:#181818;stroke-width:0.5;" x1="236.5" x2="283.2656" y1="76.6348" y2="76.6348"/><text fill="#000000" font-family="sans-serif" font-size="14" font-weight="bold" lengthAdjust="spacing" textLength="21.7656" x="246.5" y="70.1211">dto</text><text fill="#000000" font-family="sans-serif" font-size="14" lengthAdjust="spacing" textLength="135.4199" x="246.5" y="98.7422">classes that hold data</text><text fill="#000000" font-family="sans-serif" font-size="14" lengthAdjust="spacing" textLength="83.2617" x="246.5" y="117.3633">sent by users</text></g><!--entity interceptors--><g id="elem_interceptors"><path d="M439,43.0137 L532.9102,43.0137 A3.75,3.75 0 0 1 535.4102,45.5137 L542.4102,67.6348 L611.0957,67.6348 A2.5,2.5 0 0 1 613.5957,70.1348 L613.5957,137.998 A2.5,2.5 0 0 1 611.0957,140.498 L439,140.498 A2.5,2.5 0 0 1 436.5,137.998 L436.5,45.5137 A2.5,2.5 0 0 1 439,43.0137 " fill="#F1F1F1" style="stroke:#181818;stroke-width:0.5;"/><line style="stroke:#181818;stroke-width:0.5;" x1="436.5" x2="542.4102" y1="67.6348" y2="67.6348"/><text fill="#000000" font-family="sans-serif" font-size="14" font-weight="bold" lengthAdjust="spacing" textLength="80.9102" x="446.5" y="61.1211">interceptors</text><text fill="#000000" font-family="sans-serif" font-size="14" lengthAdjust="spacing" textLength="122.9512" x="446.5" y="89.7422">interceptors that act</text><text fill="#000000" font-family="sans-serif" font-size="14" lengthAdjust="spacing" textLength="147.0957" x="446.5" y="108.3633">on requests before they</text><text fill="#000000" font-family="sans-serif" font-size="14" lengthAdjust="spacing" textLength="92.6133" x="446.5" y="126.9844">reach handlers</text></g><!--entity mapping--><g id="elem_mapping"><path d="M25,200.0137 L96.3311,200.0137 A3.75,3.75 0 0 1 98.8311,202.5137 L105.8311,224.6348 L221.1787,224.6348 A2.5,2.5 0 0 1 223.6787,227.1348 L223.6787,276.377 A2.5,2.5 0 0 1 221.1787,278.877 L25,278.877 A2.5,2.5 0 0 1 22.5,276.377 L22.5,202.5137 A2.5,2.5 0 0 1 25,200.0137 " fill="#F1F1F1" style="stroke:#181818;stroke-width:0.5;"/><line style="stroke:#181818;stroke-width:0.5;" x1="22.5" x2="105.8311" y1="224.6348" y2="224.6348"/><text fill="#000000" font-family="sans-serif" font-size="14" font-weight="bold" lengthAdjust="spacing" textLength="58.3311" x="32.5" y="218.1211">mapping</text><text fill="#000000" font-family="sans-serif" font-size="14" lengthAdjust="spacing" textLength="171.1787" x="32.5" y="246.7422">utility classes for converting</text><text fill="#000000" font-family="sans-serif" font-size="14" lengthAdjust="spacing" textLength="118.2959" x="32.5" y="265.3633">user input into dtos</text></g><!--entity model--><g id="elem_model"><path d="M261.5,200.0137 L315.7275,200.0137 A3.75,3.75 0 0 1 318.2275,202.5137 L325.2275,224.6348 L414.1338,224.6348 A2.5,2.5 0 0 1 416.6338,227.1348 L416.6338,276.377 A2.5,2.5 0 0 1 414.1338,278.877 L261.5,278.877 A2.5,2.5 0 0 1 259,276.377 L259,202.5137 A2.5,2.5 0 0 1 261.5,200.0137 " fill="#F1F1F1" style="stroke:#181818;stroke-width:0.5;"/><line style="stroke:#181818;stroke-width:0.5;" x1="259" x2="325.2275" y1="224.6348" y2="224.6348"/><text fill="#000000" font-family="sans-serif" font-size="14" font-weight="bold" lengthAdjust="spacing" textLength="41.2275" x="269" y="218.1211">model</text><text fill="#000000" font-family="sans-serif" font-size="14" lengthAdjust="spacing" textLength="127.6338" x="269" y="246.7422">classes that hold the</text><text fill="#000000" font-family="sans-serif" font-size="14" lengthAdjust="spacing" textLength="98.0752" x="269" y="265.3633">application data</text></g><!--entity repository--><g id="elem_repository"><path d="M455,200.0137 L536.4619,200.0137 A3.75,3.75 0 0 1 538.9619,202.5137 L545.9619,224.6348 L623.1992,224.6348 A2.5,2.5 0 0 1 625.6992,227.1348 L625.6992,276.377 A2.5,2.5 0 0 1 623.1992,278.877 L455,278.877 A2.5,2.5 0 0 1 452.5,276.377 L452.5,202.5137 A2.5,2.5 0 0 1 455,200.0137 " fill="#F1F1F1" style="stroke:#181818;stroke-width:0.5;"/><line style="stroke:#181818;stroke-width:0.5;" x1="452.5" x2="545.9619" y1="224.6348" y2="224.6348"/><text fill="#000000" font-family="sans-serif" font-size="14" font-weight="bold" lengthAdjust="spacing" textLength="68.4619" x="462.5" y="218.1211">repository</text><text fill="#000000" font-family="sans-serif" font-size="14" lengthAdjust="spacing" textLength="136.958" x="462.5" y="246.7422">classes to access and</text><text fill="#000000" font-family="sans-serif" font-size="14" lengthAdjust="spacing" textLength="143.1992" x="462.5" y="265.3633">modify application data</text></g><!--entity security--><g id="elem_security"><path d="M32.5,348.0137 L99.1963,348.0137 A3.75,3.75 0 0 1 101.6963,350.5137 L108.6963,372.6348 L213.127,372.6348 A2.5,2.5 0 0 1 215.627,375.1348 L215.627,424.377 A2.5,2.5 0 0 1 213.127,426.877 L32.5,426.877 A2.5,2.5 0 0 1 30,424.377 L30,350.5137 A2.5,2.5 0 0 1 32.5,348.0137 " fill="#F1F1F1" style="stroke:#181818;stroke-width:0.5;"/><line style="stroke:#181818;stroke-width:0.5;" x1="30" x2="108.6963" y1="372.6348" y2="372.6348"/><text fill="#000000" font-family="sans-serif" font-size="14" font-weight="bold" lengthAdjust="spacing" textLength="53.6963" x="40" y="366.1211">security</text><text fill="#000000" font-family="sans-serif" font-size="14" lengthAdjust="spacing" textLength="155.627" x="40" y="394.7422">utility classes for hashing</text><text fill="#000000" font-family="sans-serif" font-size="14" lengthAdjust="spacing" textLength="143.1855" x="40" y="413.3633">and password verifying</text></g><!--entity service--><g id="elem_service"><path d="M253.5,339.0137 L314.7686,339.0137 A3.75,3.75 0 0 1 317.2686,341.5137 L324.2686,363.6348 L406.1338,363.6348 A2.5,2.5 0 0 1 408.6338,366.1348 L408.6338,433.998 A2.5,2.5 0 0 1 406.1338,436.498 L253.5,436.498 A2.5,2.5 0 0 1 251,433.998 L251,341.5137 A2.5,2.5 0 0 1 253.5,339.0137 " fill="#F1F1F1" style="stroke:#181818;stroke-width:0.5;"/><line style="stroke:#181818;stroke-width:0.5;" x1="251" x2="324.2686" y1="363.6348" y2="363.6348"/><text fill="#000000" font-family="sans-serif" font-size="14" font-weight="bold" lengthAdjust="spacing" textLength="48.2686" x="261" y="357.1211">service</text><text fill="#000000" font-family="sans-serif" font-size="14" lengthAdjust="spacing" textLength="127.6338" x="261" y="385.7422">classes that hold the</text><text fill="#000000" font-family="sans-serif" font-size="14" lengthAdjust="spacing" textLength="103.5029" x="261" y="404.3633">business logic of</text><text fill="#000000" font-family="sans-serif" font-size="14" lengthAdjust="spacing" textLength="90.2891" x="261" y="422.9844">the application</text></g><!--entity views--><g id="elem_views"><path d="M446.5,339.0137 L497.6377,339.0137 A3.75,3.75 0 0 1 500.1377,341.5137 L507.1377,363.6348 L597.582,363.6348 A2.5,2.5 0 0 1 600.082,366.1348 L600.082,433.998 A2.5,2.5 0 0 1 597.582,436.498 L446.5,436.498 A2.5,2.5 0 0 1 444,433.998 L444,341.5137 A2.5,2.5 0 0 1 446.5,339.0137 " fill="#F1F1F1" style="stroke:#181818;stroke-width:0.5;"/><line style="stroke:#181818;stroke-width:0.5;" x1="444" x2="507.1377" y1="363.6348" y2="363.6348"/><text fill="#000000" font-family="sans-serif" font-size="14" font-weight="bold" lengthAdjust="spacing" textLength="38.1377" x="454" y="357.1211">views</text><text fill="#000000" font-family="sans-serif" font-size="14" lengthAdjust="spacing" textLength="119.8545" x="454" y="385.7422">classes that handle</text><text fill="#000000" font-family="sans-serif" font-size="14" lengthAdjust="spacing" textLength="121.4199" x="454" y="404.3633">the rendering of the</text><text fill="#000000" font-family="sans-serif" font-size="14" lengthAdjust="spacing" textLength="126.082" x="454" y="422.9844">pages the user sees</text></g><!--SRC=[ZLBRRi8m37tdA_m5-w5f3sxYKeiqpc8NL4txzxcL22q3H1vpZiujKJ9GAbZHf4AMJ8U2uOH7WY3ZX_BeLnqg9_fG74iYB0L-3k3dHinM9IMgyBa2ondCoWRH1bn89PpSzXxyseb6aurQIAXA2ZQWmI0fGaJ31YjbWsw6IMzYEpNEHZLGyPAwaTrThzeOhA6IeTBtH6eA7VLIoJaqDxmIXW46p34ziHrzBCx7ZUDadDZcLiXLbo7ELCs9DveNyNHbiYMZB6iyDf18wULEdhYXdYPnG6DlrlQxKwnKHDa7cH_9YWyKI1MyT4Cz1FVpM-fAOQfB_zUB3AZ3TWvtSmdLYzG8lfNRNU5_1lNCWTwUf9kKyr8eoP43IDyGPsqhFJ8xCrtqgTNwBtPobNBqyFuXfD-bAAwcAsLzU2MwllRl7m00]--></g></svg>