<svg xmlns="http://www.w3.org/2000/svg" xmlns:xlink="http://www.w3.org/1999/xlink" contentStyleType="text/css" height="1280px" preserveAspectRatio="none" style="width:762px;height:1280px;background:#FFFFFF;" version="1.1" viewBox="0 0 762 1280" width="762px" zoomAndPan="magnify"><defs/><g><!--cluster Chat--><g id="cluster_Chat"><path d="M181,6.0137 L213.1104,6.0137 A3.75,3.75 0 0 1 215.6104,8.5137 L222.6104,30.6348 L752.5,30.6348 A2.5,2.5 0 0 1 755,33.1348 L755,175.5137 A2.5,2.5 0 0 1 752.5,178.0137 L181,178.0137 A2.5,2.5 0 0 1 178.5,175.5137 L178.5,8.5137 A2.5,2.5 0 0 1 181,6.0137 " fill="none" style="stroke:#000000;stroke-width:1.5;"/><line style="stroke:#000000;stroke-width:1.5;" x1="178.5" x2="222.6104" y1="30.6348" y2="30.6348"/><text fill="#000000" font-family="sans-serif" font-size="14" font-weight="bold" lengthAdjust="spacing" textLength="31.1104" x="182.5" y="23.1211">Chat</text></g><!--cluster Tickets--><g id="cluster_Tickets"><path d="M159.5,202.0137 L208.748,202.0137 A3.75,3.75 0 0 1 211.248,204.5137 L218.248,226.6348 L370.5,226.6348 A2.5,2.5 0 0 1 373,229.1348 L373,945.5137 A2.5,2.5 0 0 1 370.5,948.0137 L159.5,948.0137 A2.5,2.5 0 0 1 157,945.5137 L157,204.5137 A2.5,2.5 0 0 1 159.5,202.0137 " fill="none" style="stroke:#000000;stroke-width:1.5;"/><line style="stroke:#000000;stroke-width:1.5;" x1="157" x2="218.248" y1="226.6348" y2="226.6348"/><text fill="#000000" font-family="sans-serif" font-size="14" font-weight="bold" lengthAdjust="spacing" textLength="48.248" x="161" y="219.1211">Tickets</text></g><!--cluster Administration--><g id="cluster_Administration"><path d="M170,1019.0137 L269.7793,1019.0137 A3.75,3.75 0 0 1 272.2793,1021.5137 L279.2793,1043.6348 L531.5,1043.6348 A2.5,2.5 0 0 1 534,1046.1348 L534,1175.5137 A2.5,2.5 0 0 1 531.5,1178.0137 L170,1178.0137 A2.5,2.5 0 0 1 167.5,1175.5137 L167.5,1021.5137 A2.5,2.5 0 0 1 170,1019.0137 " fill="none" style="stroke:#000000;stroke-width:1.5;"/><line style="stroke:#000000;stroke-width:1.5;" x1="167.5" x2="279.2793" y1="1043.6348" y2="1043.6348"/><text fill="#000000" font-family="sans-serif" font-size="14" font-weight="bold" lengthAdjust="spacing" textLength="98.7793" x="171.5" y="1036.1211">Administration</text></g><g id="elem_Cht"><ellipse cx="264.896" cy="146.1808" fill="#F1F1F1" rx="32.396" ry="16.1671" style="stroke:#181818;stroke-width:0.5;"/><text fill="#000000" font-family="sans-serif" font-size="14" lengthAdjust="spacing" textLength="29.5723" x="250.1099" y="149.9776">Chat</text></g><g id="elem_RS"><ellipse cx="659.7975" cy="135.1732" fill="#F1F1F1" rx="78.7975" ry="18.1595" style="stroke:#181818;stroke-width:0.5;"/><text fill="#000000" font-family="sans-serif" font-size="14" lengthAdjust="spacing" textLength="105.0684" x="604.2633" y="139.9769">Request Support</text></g><g id="elem_GS"><ellipse cx="265.2087" cy="60.0554" fill="#F1F1F1" rx="70.7087" ry="16.5417" style="stroke:#181818;stroke-width:0.5;"/><text fill="#000000" font-family="sans-serif" font-size="14" lengthAdjust="spacing" textLength="81.71" x="221.3537" y="64.8591">Give Support</text></g><g id="elem_VCT"><ellipse cx="265.1776" cy="635.1492" fill="#F1F1F1" rx="86.1776" ry="19.6355" style="stroke:#181818;stroke-width:0.5;"/><text fill="#000000" font-family="sans-serif" font-size="14" lengthAdjust="spacing" textLength="124.4961" x="199.9296" y="639.9529">View created tickets</text></g><g id="elem_CT"><ellipse cx="264.9892" cy="487.9763" fill="#F1F1F1" rx="63.9892" ry="16.4626" style="stroke:#181818;stroke-width:0.5;"/><text fill="#000000" font-family="sans-serif" font-size="14" lengthAdjust="spacing" textLength="72.3584" x="225.81" y="492.78">Close ticket</text></g><g id="elem_ET"><ellipse cx="264.7872" cy="705.9082" fill="#F1F1F1" rx="55.2872" ry="16.3946" style="stroke:#181818;stroke-width:0.5;"/><text fill="#000000" font-family="sans-serif" font-size="14" lengthAdjust="spacing" textLength="60.6895" x="231.4424" y="710.712">Edit ticket</text></g><g id="elem_ST"><ellipse cx="264.7915" cy="774.0123" fill="#F1F1F1" rx="69.7915" ry="16.4986" style="stroke:#181818;stroke-width:0.5;"/><text fill="#000000" font-family="sans-serif" font-size="14" lengthAdjust="spacing" textLength="80.1377" x="221.7226" y="778.816">Submit ticket</text></g><g id="elem_DT"><ellipse cx="264.9766" cy="841.9987" fill="#F1F1F1" rx="67.4766" ry="16.485" style="stroke:#181818;stroke-width:0.5;"/><text fill="#000000" font-family="sans-serif" font-size="14" lengthAdjust="spacing" textLength="77.0342" x="223.4595" y="846.8024">Delete ticket</text></g><g id="elem_UA"><ellipse cx="264.9692" cy="913.1075" fill="#F1F1F1" rx="83.4692" ry="19.0938" style="stroke:#181818;stroke-width:0.5;"/><text fill="#000000" font-family="sans-serif" font-size="14" lengthAdjust="spacing" textLength="117.5166" x="203.2109" y="917.9112">Upload attachment</text></g><g id="elem_DA"><ellipse cx="265.025" cy="560.0187" fill="#F1F1F1" rx="90.525" ry="20.505" style="stroke:#181818;stroke-width:0.5;"/><text fill="#000000" font-family="sans-serif" font-size="14" lengthAdjust="spacing" textLength="135.4131" x="194.3185" y="564.8224">Download attachment</text></g><g id="elem_VST"><ellipse cx="264.7749" cy="414.7687" fill="#F1F1F1" rx="91.7749" ry="20.755" style="stroke:#181818;stroke-width:0.5;"/><text fill="#000000" font-family="sans-serif" font-size="14" lengthAdjust="spacing" textLength="138.4961" x="192.5269" y="419.5724">View submitted tickets</text></g><g id="elem_AT"><ellipse cx="265.134" cy="256.0056" fill="#F1F1F1" rx="68.634" ry="16.4919" style="stroke:#181818;stroke-width:0.5;"/><text fill="#000000" font-family="sans-serif" font-size="14" lengthAdjust="spacing" textLength="78.5859" x="222.841" y="260.8093">Assign ticket</text></g><g id="elem_VT"><ellipse cx="264.9259" cy="323.947" fill="#F1F1F1" rx="59.9259" ry="16.4333" style="stroke:#181818;stroke-width:0.5;"/><text fill="#000000" font-family="sans-serif" font-size="14" lengthAdjust="spacing" textLength="66.9102" x="228.4709" y="328.7507">View ticket</text></g><g id="elem_REG"><ellipse cx="468.9063" cy="1144.8431" fill="#F1F1F1" rx="48.9063" ry="16.3294" style="stroke:#181818;stroke-width:0.5;"/><text fill="#000000" font-family="sans-serif" font-size="14" lengthAdjust="spacing" textLength="52.1309" x="439.8409" y="1149.6468">Register</text></g><g id="elem_UCRT"><ellipse cx="265.0755" cy="1144.9802" fill="#F1F1F1" rx="64.5755" ry="16.4665" style="stroke:#181818;stroke-width:0.5;"/><text fill="#000000" font-family="sans-serif" font-size="14" lengthAdjust="spacing" textLength="73.1445" x="225.5032" y="1149.7839">Create user</text></g><g id="elem_CP"><ellipse cx="265.1918" cy="1075.252" fill="#F1F1F1" rx="81.6918" ry="18.7384" style="stroke:#181818;stroke-width:0.5;"/><text fill="#000000" font-family="sans-serif" font-size="14" lengthAdjust="spacing" textLength="112.8477" x="205.768" y="1080.0557">Change password</text></g><!--entity ADM--><g id="elem_ADM"><ellipse cx="36.8413" cy="1082.0137" fill="#F1F1F1" rx="8" ry="8" style="stroke:#181818;stroke-width:0.5;"/><path d="M36.8413,1090.0137 L36.8413,1117.0137 M23.8413,1098.0137 L49.8413,1098.0137 M36.8413,1117.0137 L23.8413,1132.0137 M36.8413,1117.0137 L49.8413,1132.0137 " fill="none" style="stroke:#181818;stroke-width:0.5;"/><text fill="#000000" font-family="sans-serif" font-size="14" lengthAdjust="spacing" textLength="39.6826" x="17" y="1148.6211">Admin</text></g><!--entity UUSR--><g id="elem_UUSR"><ellipse cx="264.8516" cy="1205.0137" fill="#F1F1F1" rx="8" ry="8" style="stroke:#181818;stroke-width:0.5;"/><path d="M264.8516,1213.0137 L264.8516,1240.0137 M251.8516,1221.0137 L277.8516,1221.0137 M264.8516,1240.0137 L251.8516,1255.0137 M264.8516,1240.0137 L277.8516,1255.0137 " fill="none" style="stroke:#181818;stroke-width:0.5;"/><text fill="#000000" font-family="sans-serif" font-size="14" lengthAdjust="spacing" textLength="88.7031" x="220.5" y="1271.6211">Unknows user</text></g><!--entity USR--><g id="elem_USR"><ellipse cx="36.7793" cy="743.0137" fill="#F1F1F1" rx="8" ry="8" style="stroke:#181818;stroke-width:0.5;"/><path d="M36.7793,751.0137 L36.7793,778.0137 M23.7793,759.0137 L49.7793,759.0137 M36.7793,778.0137 L23.7793,793.0137 M36.7793,778.0137 L49.7793,793.0137 " fill="none" style="stroke:#181818;stroke-width:0.5;"/><text fill="#000000" font-family="sans-serif" font-size="14" lengthAdjust="spacing" textLength="29.5586" x="22" y="809.6211">User</text></g><!--entity EMP--><g id="elem_EMP"><ellipse cx="37.1274" cy="406.0137" fill="#F1F1F1" rx="8" ry="8" style="stroke:#181818;stroke-width:0.5;"/><path d="M37.1274,414.0137 L37.1274,441.0137 M24.1274,422.0137 L50.1274,422.0137 M37.1274,441.0137 L24.1274,456.0137 M37.1274,441.0137 L50.1274,456.0137 " fill="none" style="stroke:#181818;stroke-width:0.5;"/><text fill="#000000" font-family="sans-serif" font-size="14" lengthAdjust="spacing" textLength="62.2549" x="6" y="472.6211">Employee</text></g><!--reverse link Cht to GS--><g id="link_Cht_GS"><path d="M265,123.8337 C265,108.6537 265,92.0537 265,76.7037 " fill="none" id="Cht-backto-GS" style="stroke:#181818;stroke-width:1.0;stroke-dasharray:7.0,7.0;"/><polygon fill="#181818" points="265,129.8337,269,120.8337,265,124.8337,261,120.8337,265,129.8337" style="stroke:#181818;stroke-width:1.0;"/><text fill="#000000" font-family="sans-serif" font-size="13" lengthAdjust="spacing" textLength="41.1963" x="232" y="108.792">include</text></g><!--reverse link Cht to RS--><g id="link_Cht_RS"><path d="M303.4977,144.9658 C364.6077,143.2558 494.85,139.6037 581.53,137.1837 " fill="none" id="Cht-backto-RS" style="stroke:#181818;stroke-width:1.0;stroke-dasharray:7.0,7.0;"/><polygon fill="#181818" points="297.5,145.1337,306.6084,148.8804,302.498,144.9938,306.3846,140.8835,297.5,145.1337" style="stroke:#181818;stroke-width:1.0;"/><text fill="#000000" font-family="sans-serif" font-size="13" lengthAdjust="spacing" textLength="41.1963" x="448.5" y="135.042">include</text></g><!--link VCT to VT--><g id="link_VCT_VT"><path d="M196.93,622.9837 C179.91,617.5037 162.64,609.5537 149,598.0137 C128.97,581.0637 128.17,571.0137 122,545.5137 C108.46,489.5637 77.49,467.5037 149,376.0137 C165.79,354.5437 187.6459,343.4823 211.7059,335.9223 " fill="none" id="VCT-to-VT" style="stroke:#181818;stroke-width:1.0;stroke-dasharray:7.0,7.0;"/><polygon fill="#181818" points="217.43,334.1237,207.6448,333.0055,212.6599,335.6225,210.0429,340.6376,217.43,334.1237" style="stroke:#181818;stroke-width:1.0;"/><text fill="#000000" font-family="sans-serif" font-size="13" lengthAdjust="spacing" textLength="41.1963" x="99" y="541.542">include</text></g><!--link VST to VT--><g id="link_VST_VT"><path d="M265,393.9037 C265,377.7337 265,361.7237 265,346.7537 " fill="none" id="VST-to-VT" style="stroke:#181818;stroke-width:1.0;stroke-dasharray:7.0,7.0;"/><polygon fill="#181818" points="265,340.7537,261,349.7537,265,345.7537,269,349.7537,265,340.7537" style="stroke:#181818;stroke-width:1.0;"/><text fill="#000000" font-family="sans-serif" font-size="13" lengthAdjust="spacing" textLength="41.1963" x="232" y="372.792">include</text></g><!--reverse link UCRT to REG--><g id="link_UCRT_REG"><path d="M347.64,1145.0137 C376.78,1145.0137 392.75,1145.0137 419.74,1145.0137 " fill="none" id="UCRT-backto-REG" style="stroke:#181818;stroke-width:1.0;"/><polygon fill="none" points="329.64,1145.0137,347.64,1151.0137,347.64,1139.0137,329.64,1145.0137" style="stroke:#181818;stroke-width:1.0;"/></g><!--link UUSR to REG--><g id="link_UUSR_REG"><path d="M309.83,1216.2637 C348.93,1198.6537 399.6194,1175.8179 433.4294,1160.5879 " fill="none" id="UUSR-to-REG" style="stroke:#181818;stroke-width:1.0;"/><polygon fill="#181818" points="438.9,1158.1237,429.0513,1158.173,434.3412,1160.1772,432.337,1165.4671,438.9,1158.1237" style="stroke:#181818;stroke-width:1.0;"/></g><!--link USR to VCT--><g id="link_USR_VCT"><path d="M52.08,757.1437 C71.66,734.7137 109.19,695.1937 149,672.0137 C165.95,662.1437 180.125,656.3171 198.565,650.6471 " fill="none" id="USR-to-VCT" style="stroke:#FF0000;stroke-width:1.0;"/><polygon fill="#FF0000" points="204.3,648.8837,194.5219,647.7055,199.5208,650.3532,196.8731,655.3521,204.3,648.8837" style="stroke:#FF0000;stroke-width:1.0;"/></g><!--link USR to CT--><g id="link_USR_CT"><path d="M47.87,734.2137 C57.69,698.3237 74.67,644.7637 98,602.0137 C112.86,574.7737 126.49,574.4437 141,547.0137 C146.46,536.7037 140.66,530.1737 149,522.0137 C164.11,507.2337 179.4715,500.2163 199.5715,495.4563 " fill="none" id="USR-to-CT" style="stroke:#FF0000;stroke-width:1.0;"/><polygon fill="#FF0000" points="205.41,494.0737,195.7305,492.2553,200.5446,495.2259,197.574,500.04,205.41,494.0737" style="stroke:#FF0000;stroke-width:1.0;"/></g><!--link USR to ET--><g id="link_USR_ET"><path d="M52.28,769.4037 C64.42,765.5037 82.33,759.8037 98,755.0137 C141.25,741.7837 185.2586,728.8489 218.9286,719.0589 " fill="none" id="USR-to-ET" style="stroke:#FF0000;stroke-width:1.0;"/><polygon fill="#FF0000" points="224.69,717.3837,214.9311,716.0555,219.8888,718.7797,217.1647,723.7374,224.69,717.3837" style="stroke:#FF0000;stroke-width:1.0;"/></g><!--link USR to ST--><g id="link_USR_ST"><path d="M52.14,774.0137 C80.16,774.0137 138.41,774.0137 188.85,774.0137 " fill="none" id="USR-to-ST" style="stroke:#FF0000;stroke-width:1.0;"/><polygon fill="#FF0000" points="194.85,774.0137,185.85,770.0137,189.85,774.0137,185.85,778.0137,194.85,774.0137" style="stroke:#FF0000;stroke-width:1.0;"/></g><!--link USR to DT--><g id="link_USR_DT"><path d="M52,778.3537 C73.04,784.8537 114.07,797.5037 149,808.0137 C172.82,815.1837 193.7035,821.3818 215.3435,827.7418 " fill="none" id="USR-to-DT" style="stroke:#FF0000;stroke-width:1.0;"/><polygon fill="#FF0000" points="221.1,829.4337,213.5931,823.0582,216.3029,828.0238,211.3373,830.7336,221.1,829.4337" style="stroke:#FF0000;stroke-width:1.0;"/></g><!--link USR to UA--><g id="link_USR_UA"><path d="M52.08,790.8837 C71.66,813.3137 109.19,852.8337 149,876.0137 C166.4,886.1437 181.1774,892.1451 200.0374,897.8551 " fill="none" id="USR-to-UA" style="stroke:#FF0000;stroke-width:1.0;"/><polygon fill="#FF0000" points="205.78,899.5937,198.3252,893.1574,200.9945,898.1448,196.0071,900.8141,205.78,899.5937" style="stroke:#FF0000;stroke-width:1.0;"/></g><!--link USR to DA--><g id="link_USR_DA"><path d="M52,736.0537 C68.85,695.7137 100.99,633.0337 149,598.0137 C163.61,587.3537 175.68,581.4471 192.84,575.8071 " fill="none" id="USR-to-DA" style="stroke:#FF0000;stroke-width:1.0;"/><polygon fill="#FF0000" points="198.54,573.9337,188.741,572.9438,193.79,575.4949,191.2389,580.5438,198.54,573.9337" style="stroke:#FF0000;stroke-width:1.0;"/></g><!--link EMP to DA--><g id="link_EMP_DA"><path d="M68.14,464.5637 C89.45,482.8837 119.39,506.3537 149,522.0137 C166.38,531.2037 180.6942,536.9191 199.1142,542.7991 " fill="none" id="EMP-to-DA" style="stroke:#008000;stroke-width:1.0;"/><polygon fill="#008000" points="204.83,544.6237,197.4726,538.0762,200.0668,543.1032,195.0398,545.6973,204.83,544.6237" style="stroke:#008000;stroke-width:1.0;"/></g><!--link USR to CP--><g id="link_USR_CP"><path d="M37.43,813.9337 C38.84,865.6137 48.86,955.5937 98,1011.0137 C123.51,1039.7837 157.6564,1054.2298 191.9764,1062.9898 " fill="none" id="USR-to-CP" style="stroke:#FF0000;stroke-width:1.0;"/><polygon fill="#FF0000" points="197.79,1064.4737,190.0588,1058.3721,192.9453,1063.2371,188.0803,1066.1236,197.79,1064.4737" style="stroke:#FF0000;stroke-width:1.0;"/></g><!--link EMP to CP--><g id="link_EMP_CP"><path d="M39.71,476.8237 C44.98,566.0337 66.09,786.7337 149,948.0137 C172.12,992.9837 210.6984,1030.3244 237.0584,1052.9644 " fill="none" id="EMP-to-CP" style="stroke:#008000;stroke-width:1.0;"/><polygon fill="#008000" points="241.61,1056.8737,237.3887,1047.9753,237.817,1053.6159,232.1763,1054.0442,241.61,1056.8737" style="stroke:#008000;stroke-width:1.0;"/></g><!--link EMP to VST--><g id="link_EMP_VST"><path d="M68.01,434.0937 C96.47,431.3237 134.5982,427.6045 173.7682,423.7945 " fill="none" id="EMP-to-VST" style="stroke:#008000;stroke-width:1.0;"/><polygon fill="#008000" points="179.74,423.2137,170.395,420.1038,174.7635,423.6977,171.1695,428.0662,179.74,423.2137" style="stroke:#008000;stroke-width:1.0;"/></g><!--link EMP to AT--><g id="link_EMP_AT"><path d="M58.48,397.3137 C77.61,364.0137 109.17,317.6037 149,290.0137 C166.29,278.0437 182.019,271.7176 201.779,266.6376 " fill="none" id="EMP-to-AT" style="stroke:#008000;stroke-width:1.0;"/><polygon fill="#008000" points="207.59,265.1437,197.8775,263.5105,202.7475,266.3886,199.8694,271.2586,207.59,265.1437" style="stroke:#008000;stroke-width:1.0;"/></g><!--link EMP to CT--><g id="link_EMP_CT"><path d="M68.01,443.7837 C105.83,452.3237 165.4473,465.7723 210.2273,475.8823 " fill="none" id="EMP-to-CT" style="stroke:#008000;stroke-width:1.0;"/><polygon fill="#008000" points="216.08,477.2037,208.1819,471.3198,211.2028,476.1025,206.4201,479.1234,216.08,477.2037" style="stroke:#008000;stroke-width:1.0;"/></g><!--link ADM to UCRT--><g id="link_ADM_UCRT"><path d="M57.27,1115.7437 C90.36,1120.4237 153.2291,1129.3334 202.3691,1136.2834 " fill="none" id="ADM-to-UCRT" style="stroke:#0000FF;stroke-width:1.0;"/><polygon fill="#0000FF" points="208.31,1137.1237,199.9588,1131.9027,203.3593,1136.4235,198.8385,1139.8239,208.31,1137.1237" style="stroke:#0000FF;stroke-width:1.0;"/></g><!--link ADM to CP--><g id="link_ADM_CP"><path d="M57.27,1109.7737 C88.33,1104.5537 144.953,1095.0282 193.143,1086.9282 " fill="none" id="ADM-to-CP" style="stroke:#0000FF;stroke-width:1.0;"/><polygon fill="#0000FF" points="199.06,1085.9337,189.5215,1083.4808,194.1292,1086.7625,190.8475,1091.3702,199.06,1085.9337" style="stroke:#0000FF;stroke-width:1.0;"/></g><!--link USR to RS--><g id="link_USR_RS"><path d="M49.99,813.7937 C65.24,856.2837 96.14,921.1237 149,948.0137 C240.9,994.7637 297.12,1007.9837 381,948.0137 C659.19,749.1337 662.2246,260.4719 659.7846,159.2719 " fill="none" id="USR-to-RS" style="stroke:#FF0000;stroke-width:1.0;"/><polygon fill="#FF0000" points="659.64,153.2737,655.8581,162.3675,659.7605,158.2722,663.8558,162.1746,659.64,153.2737" style="stroke:#FF0000;stroke-width:1.0;"/></g><!--link EMP to GS--><g id="link_EMP_GS"><path d="M41.44,397.4337 C49.22,330.6337 73.81,194.7537 149,112.0137 C166.68,92.5537 187.3877,81.8693 210.4177,73.9293 " fill="none" id="EMP-to-GS" style="stroke:#008000;stroke-width:1.0;"/><polygon fill="#008000" points="216.09,71.9737,206.2777,71.1256,211.363,73.6034,208.8852,78.6887,216.09,71.9737" style="stroke:#008000;stroke-width:1.0;"/></g><!--SRC=[TPJ1Zfim48RlVWfhUsXp8BcZQYK4AAUL8bXoz-8fM366sgPHrVRTQnjZ864vHFZ_9kD_F6E-jbeFAZwT1aw47Zj-hFlkD2g8Qc9-A2ED91r2SK8x9c9C54woDnHNuYRwky8cKZgrgih2o65fLtatyFutW5Fojmj20wblf07yahP4l-0_29ldcrqSR8nvquT9A-3d24hZSXo6NdfSb9wUsI_OehD7dfS7V8mu_D3HwvGrPgBc8mMVtV5nUAB_LXxVMNq3hOBDAuCxhYKG3HJh2KwRNzDtRonrs5DVqynoolI6v3Cfnu_kWPKpou33GyPiPfKvNq8nqPhKRGV2yoev8F_d_YvsGx8GugfIpi1pNS55eXHhnCP54chclNekUPLzZQuBCb7u-EgaRNVijazatHatZ4nfIJJhHMXG0OqHGVfXoS_RfjXPzGUK5i5yIuH9EH2bxhsatlzbFc0RYB__ZIAVpxYmKuLrZoLhMeqfar1R5yZU01pPYNAHA2nTeLyu4n1Be8l-YMocOaSjTzLiLpNzNzHLy5esr_51RII0MBcxx4K7TOfUm3KOd4W0oITwkjMH-Qnuz_RC9_J1HrX0sDl9YrDpcNUSdijr_ly0]--></g></svg>