<svg xmlns="http://www.w3.org/2000/svg" xmlns:xlink="http://www.w3.org/1999/xlink" contentStyleType="text/css" height="864px" preserveAspectRatio="none" style="width:991px;height:864px;background:#FFFFFF;" version="1.1" viewBox="0 0 991 864" width="991px" zoomAndPan="magnify"><defs/><g><!--cluster Chat--><g id="cluster_Chat"><path d="M8.5,240.0137 L40.6104,240.0137 A3.75,3.75 0 0 1 43.1104,242.5137 L50.1104,264.6348 L398,264.6348 A2.5,2.5 0 0 1 400.5,267.1348 L400.5,427.5137 A2.5,2.5 0 0 1 398,430.0137 L8.5,430.0137 A2.5,2.5 0 0 1 6,427.5137 L6,242.5137 A2.5,2.5 0 0 1 8.5,240.0137 " fill="none" style="stroke:#000000;stroke-width:1.5;"/><line style="stroke:#000000;stroke-width:1.5;" x1="6" x2="50.1104" y1="264.6348" y2="264.6348"/><text fill="#000000" font-family="sans-serif" font-size="14" font-weight="bold" lengthAdjust="spacing" textLength="31.1104" x="10" y="257.1211">Chat</text></g><!--cluster Tickets--><g id="cluster_Tickets"><path d="M771,23.0137 L820.248,23.0137 A3.75,3.75 0 0 1 822.748,25.5137 L829.748,47.6348 L982,47.6348 A2.5,2.5 0 0 1 984.5,50.1348 L984.5,854.5137 A2.5,2.5 0 0 1 982,857.0137 L771,857.0137 A2.5,2.5 0 0 1 768.5,854.5137 L768.5,25.5137 A2.5,2.5 0 0 1 771,23.0137 " fill="none" style="stroke:#000000;stroke-width:1.5;"/><line style="stroke:#000000;stroke-width:1.5;" x1="768.5" x2="829.748" y1="47.6348" y2="47.6348"/><text fill="#000000" font-family="sans-serif" font-size="14" font-weight="bold" lengthAdjust="spacing" textLength="48.248" x="772.5" y="40.1211">Tickets</text></g><!--cluster Administration--><g id="cluster_Administration"><path d="M194.5,6.0137 L294.2793,6.0137 A3.75,3.75 0 0 1 296.7793,8.5137 L303.7793,30.6348 L575,30.6348 A2.5,2.5 0 0 1 577.5,33.1348 L577.5,197.5137 A2.5,2.5 0 0 1 575,200.0137 L194.5,200.0137 A2.5,2.5 0 0 1 192,197.5137 L192,8.5137 A2.5,2.5 0 0 1 194.5,6.0137 " fill="none" style="stroke:#000000;stroke-width:1.5;"/><line style="stroke:#000000;stroke-width:1.5;" x1="192" x2="303.7793" y1="30.6348" y2="30.6348"/><text fill="#000000" font-family="sans-serif" font-size="14" font-weight="bold" lengthAdjust="spacing" textLength="98.7793" x="196" y="23.1211">Administration</text></g><g id="elem_CHT"><ellipse cx="62.396" cy="346.1808" fill="#F1F1F1" rx="32.396" ry="16.1671" style="stroke:#181818;stroke-width:0.5;"/><text fill="#000000" font-family="sans-serif" font-size="14" lengthAdjust="spacing" textLength="29.5723" x="47.6099" y="349.9776">Chat</text></g><g id="elem_RS"><ellipse cx="297.2975" cy="385.1732" fill="#F1F1F1" rx="78.7975" ry="18.1595" style="stroke:#181818;stroke-width:0.5;"/><text fill="#000000" font-family="sans-serif" font-size="14" lengthAdjust="spacing" textLength="105.0684" x="241.7633" y="389.9769">Request Support</text></g><g id="elem_GS"><ellipse cx="297.7087" cy="314.0554" fill="#F1F1F1" rx="70.7087" ry="16.5417" style="stroke:#181818;stroke-width:0.5;"/><text fill="#000000" font-family="sans-serif" font-size="14" lengthAdjust="spacing" textLength="81.71" x="253.8537" y="318.8591">Give Support</text></g><g id="elem_VCT"><ellipse cx="876.6776" cy="399.1492" fill="#F1F1F1" rx="86.1776" ry="19.6355" style="stroke:#181818;stroke-width:0.5;"/><text fill="#000000" font-family="sans-serif" font-size="14" lengthAdjust="spacing" textLength="124.4961" x="811.4296" y="403.9529">View created tickets</text></g><g id="elem_CT"><ellipse cx="876.634" cy="546.0056" fill="#F1F1F1" rx="68.634" ry="16.4919" style="stroke:#181818;stroke-width:0.5;"/><text fill="#000000" font-family="sans-serif" font-size="14" lengthAdjust="spacing" textLength="78.5859" x="834.341" y="550.8093">Create ticket</text></g><g id="elem_ET"><ellipse cx="876.2872" cy="613.9082" fill="#F1F1F1" rx="55.2872" ry="16.3946" style="stroke:#181818;stroke-width:0.5;"/><text fill="#000000" font-family="sans-serif" font-size="14" lengthAdjust="spacing" textLength="60.6895" x="842.9424" y="618.712">Edit ticket</text></g><g id="elem_ST"><ellipse cx="876.2915" cy="682.0123" fill="#F1F1F1" rx="69.7915" ry="16.4986" style="stroke:#181818;stroke-width:0.5;"/><text fill="#000000" font-family="sans-serif" font-size="14" lengthAdjust="spacing" textLength="80.1377" x="833.2226" y="686.816">Submit ticket</text></g><g id="elem_DT"><ellipse cx="876.4766" cy="823.9987" fill="#F1F1F1" rx="67.4766" ry="16.485" style="stroke:#181818;stroke-width:0.5;"/><text fill="#000000" font-family="sans-serif" font-size="14" lengthAdjust="spacing" textLength="77.0342" x="834.9595" y="828.8024">Delete ticket</text></g><g id="elem_UA"><ellipse cx="876.4692" cy="753.1075" fill="#F1F1F1" rx="83.4692" ry="19.0938" style="stroke:#181818;stroke-width:0.5;"/><text fill="#000000" font-family="sans-serif" font-size="14" lengthAdjust="spacing" textLength="117.5166" x="814.7109" y="757.9112">Upload attachment</text></g><g id="elem_DA"><ellipse cx="876.525" cy="474.0187" fill="#F1F1F1" rx="90.525" ry="20.505" style="stroke:#181818;stroke-width:0.5;"/><text fill="#000000" font-family="sans-serif" font-size="14" lengthAdjust="spacing" textLength="135.4131" x="805.8185" y="478.8224">Download attachment</text></g><g id="elem_VST"><ellipse cx="876.2749" cy="217.7687" fill="#F1F1F1" rx="91.7749" ry="20.755" style="stroke:#181818;stroke-width:0.5;"/><text fill="#000000" font-family="sans-serif" font-size="14" lengthAdjust="spacing" textLength="138.4961" x="804.0269" y="222.5724">View submitted tickets</text></g><g id="elem_AT"><ellipse cx="876.634" cy="145.0056" fill="#F1F1F1" rx="68.634" ry="16.4919" style="stroke:#181818;stroke-width:0.5;"/><text fill="#000000" font-family="sans-serif" font-size="14" lengthAdjust="spacing" textLength="78.5859" x="834.341" y="149.8093">Assign ticket</text></g><g id="elem_CST"><ellipse cx="876.4892" cy="76.9763" fill="#F1F1F1" rx="63.9892" ry="16.4626" style="stroke:#181818;stroke-width:0.5;"/><text fill="#000000" font-family="sans-serif" font-size="14" lengthAdjust="spacing" textLength="72.3584" x="837.31" y="81.78">Close ticket</text></g><g id="elem_VT"><ellipse cx="876.4259" cy="308.947" fill="#F1F1F1" rx="59.9259" ry="16.4333" style="stroke:#181818;stroke-width:0.5;"/><text fill="#000000" font-family="sans-serif" font-size="14" lengthAdjust="spacing" textLength="66.9102" x="839.9709" y="313.7507">View ticket</text></g><g id="elem_REG"><ellipse cx="504.4063" cy="70.8431" fill="#F1F1F1" rx="48.9063" ry="16.3294" style="stroke:#181818;stroke-width:0.5;"/><text fill="#000000" font-family="sans-serif" font-size="14" lengthAdjust="spacing" textLength="52.1309" x="475.3409" y="75.6468">Register</text></g><g id="elem_UCRT"><ellipse cx="297.5755" cy="67.9802" fill="#F1F1F1" rx="64.5755" ry="16.4665" style="stroke:#181818;stroke-width:0.5;"/><text fill="#000000" font-family="sans-serif" font-size="14" lengthAdjust="spacing" textLength="73.1445" x="258.0032" y="72.7839">Create user</text></g><g id="elem_CP"><ellipse cx="297.6918" cy="138.252" fill="#F1F1F1" rx="81.6918" ry="18.7384" style="stroke:#181818;stroke-width:0.5;"/><text fill="#000000" font-family="sans-serif" font-size="14" lengthAdjust="spacing" textLength="112.8477" x="238.268" y="143.0557">Change password</text></g><!--entity ADM--><g id="elem_ADM"><ellipse cx="504.3413" cy="233.0137" fill="#F1F1F1" rx="8" ry="8" style="stroke:#181818;stroke-width:0.5;"/><path d="M504.3413,241.0137 L504.3413,268.0137 M491.3413,249.0137 L517.3413,249.0137 M504.3413,268.0137 L491.3413,283.0137 M504.3413,268.0137 L517.3413,283.0137 " fill="none" style="stroke:#181818;stroke-width:0.5;"/><text fill="#000000" font-family="sans-serif" font-size="14" lengthAdjust="spacing" textLength="39.6826" x="484.5" y="299.6211">Admin</text></g><!--entity UUSR--><g id="elem_UUSR"><ellipse cx="676.8516" cy="45.0137" fill="#F1F1F1" rx="8" ry="8" style="stroke:#181818;stroke-width:0.5;"/><path d="M676.8516,53.0137 L676.8516,80.0137 M663.8516,61.0137 L689.8516,61.0137 M676.8516,80.0137 L663.8516,95.0137 M676.8516,80.0137 L689.8516,95.0137 " fill="none" style="stroke:#181818;stroke-width:0.5;"/><text fill="#000000" font-family="sans-serif" font-size="14" lengthAdjust="spacing" textLength="88.7031" x="632.5" y="111.6211">Unknows user</text></g><!--entity USR--><g id="elem_USR"><ellipse cx="676.7793" cy="539.0137" fill="#F1F1F1" rx="8" ry="8" style="stroke:#181818;stroke-width:0.5;"/><path d="M676.7793,547.0137 L676.7793,574.0137 M663.7793,555.0137 L689.7793,555.0137 M676.7793,574.0137 L663.7793,589.0137 M676.7793,574.0137 L689.7793,589.0137 " fill="none" style="stroke:#181818;stroke-width:0.5;"/><text fill="#000000" font-family="sans-serif" font-size="14" lengthAdjust="spacing" textLength="29.5586" x="662" y="605.6211">User</text></g><!--entity EMP--><g id="elem_EMP"><ellipse cx="677.1274" cy="306.0137" fill="#F1F1F1" rx="8" ry="8" style="stroke:#181818;stroke-width:0.5;"/><path d="M677.1274,314.0137 L677.1274,341.0137 M664.1274,322.0137 L690.1274,322.0137 M677.1274,341.0137 L664.1274,356.0137 M677.1274,341.0137 L690.1274,356.0137 " fill="none" style="stroke:#181818;stroke-width:0.5;"/><text fill="#000000" font-family="sans-serif" font-size="14" lengthAdjust="spacing" textLength="62.2549" x="646" y="372.6211">Employee</text></g><!--link CHT to GS--><g id="link_CHT_GS"><path d="M93.96,341.8337 C129.98,336.8837 184.8459,329.3508 230.4559,323.0808 " fill="none" id="CHT-to-GS" style="stroke:#181818;stroke-width:1.0;stroke-dasharray:7.0,7.0;"/><polygon fill="#181818" points="236.4,322.2637,226.9391,319.5266,231.4466,322.9446,228.0286,327.4521,236.4,322.2637" style="stroke:#181818;stroke-width:1.0;"/><text fill="#000000" font-family="sans-serif" font-size="13" lengthAdjust="spacing" textLength="41.1963" x="126" y="328.042">include</text></g><!--link CHT to RS--><g id="link_CHT_RS"><path d="M89.26,355.1237 C100.16,358.6837 113.08,362.5037 125,365.0137 C156.53,371.6637 185.8509,375.6457 216.1909,378.7357 " fill="none" id="CHT-to-RS" style="stroke:#181818;stroke-width:1.0;stroke-dasharray:7.0,7.0;"/><polygon fill="#181818" points="222.16,379.3437,213.6116,374.4524,217.1857,378.8371,212.801,382.4112,222.16,379.3437" style="stroke:#181818;stroke-width:1.0;"/><text fill="#000000" font-family="sans-serif" font-size="13" lengthAdjust="spacing" textLength="41.1963" x="126" y="361.042">include</text></g><!--link VCT to VT--><g id="link_VCT_VT"><path d="M876.5,379.4837 C876.5,363.4537 876.5,347.0037 876.5,331.7837 " fill="none" id="VCT-to-VT" style="stroke:#181818;stroke-width:1.0;stroke-dasharray:7.0,7.0;"/><polygon fill="#181818" points="876.5,325.7837,872.5,334.7837,876.5,330.7837,880.5,334.7837,876.5,325.7837" style="stroke:#181818;stroke-width:1.0;"/><text fill="#000000" font-family="sans-serif" font-size="13" lengthAdjust="spacing" textLength="41.1963" x="843.5" y="358.042">include</text></g><!--link VST to VT--><g id="link_VST_VT"><path d="M876.5,239.0837 C876.5,255.2737 876.5,271.3437 876.5,286.3237 " fill="none" id="VST-to-VT" style="stroke:#181818;stroke-width:1.0;stroke-dasharray:7.0,7.0;"/><polygon fill="#181818" points="876.5,292.3237,880.5,283.3237,876.5,287.3237,872.5,283.3237,876.5,292.3237" style="stroke:#181818;stroke-width:1.0;"/><text fill="#000000" font-family="sans-serif" font-size="13" lengthAdjust="spacing" textLength="41.1963" x="843.5" y="271.292">include</text></g><!--reverse link UCRT to REG--><g id="link_UCRT_REG"><path d="M379.9581,69.2068 C410.0581,69.6468 427.45,69.9037 455.31,70.3037 " fill="none" id="UCRT-backto-REG" style="stroke:#181818;stroke-width:1.0;"/><polygon fill="none" points="361.96,68.9437,379.8704,75.2061,380.0458,63.2074,361.96,68.9437" style="stroke:#181818;stroke-width:1.0;"/></g><!--link USR to VCT--><g id="link_USR_VCT"><path d="M692,533.4237 C705.32,503.2437 728.15,461.3837 760.5,436.0137 C774.77,424.8137 786.8123,418.7823 804.0723,413.2923 " fill="none" id="USR-to-VCT" style="stroke:#FF0000;stroke-width:1.0;"/><polygon fill="#FF0000" points="809.79,411.4737,800.001,410.3899,805.0252,412.9892,802.4259,418.0135,809.79,411.4737" style="stroke:#FF0000;stroke-width:1.0;"/></g><!--link USR to CT--><g id="link_USR_CT"><path d="M692.2,568.2837 C717.59,565.2037 766.1537,559.2966 809.1637,554.0766 " fill="none" id="USR-to-CT" style="stroke:#FF0000;stroke-width:1.0;"/><polygon fill="#FF0000" points="815.12,553.3537,805.7036,550.4672,810.1564,553.9561,806.6675,558.4089,815.12,553.3537" style="stroke:#FF0000;stroke-width:1.0;"/></g><!--link USR to ET--><g id="link_USR_ET"><path d="M692.2,573.1737 C720.95,579.5837 781.2035,593.0093 825.6535,602.9093 " fill="none" id="USR-to-ET" style="stroke:#FF0000;stroke-width:1.0;"/><polygon fill="#FF0000" points="831.51,604.2137,823.5948,598.3528,826.6296,603.1267,821.8557,606.1614,831.51,604.2137" style="stroke:#FF0000;stroke-width:1.0;"/></g><!--link USR to ST--><g id="link_USR_ST"><path d="M692.01,587.3937 C707.14,605.0737 732.83,632.0837 760.5,648.0137 C779.17,658.7637 795.747,664.859 815.767,670.119 " fill="none" id="USR-to-ST" style="stroke:#FF0000;stroke-width:1.0;"/><polygon fill="#FF0000" points="821.57,671.6437,813.8819,665.488,816.7341,670.3731,811.849,673.2254,821.57,671.6437" style="stroke:#FF0000;stroke-width:1.0;"/></g><!--link USR to DT--><g id="link_USR_DT"><path d="M682.35,609.8437 C689.8,658.7937 709.51,741.2237 760.5,789.0137 C775.58,803.1437 790.3789,810.0801 809.9889,815.1201 " fill="none" id="USR-to-DT" style="stroke:#FF0000;stroke-width:1.0;"/><polygon fill="#FF0000" points="815.8,816.6137,808.079,810.4993,810.9574,815.3691,806.0876,818.2475,815.8,816.6137" style="stroke:#FF0000;stroke-width:1.0;"/></g><!--link USR to UA--><g id="link_USR_UA"><path d="M691.05,609.5337 C703.84,642.4337 726.42,688.2337 760.5,716.0137 C774.89,727.7437 787.342,733.9977 804.982,739.4977 " fill="none" id="USR-to-UA" style="stroke:#FF0000;stroke-width:1.0;"/><polygon fill="#FF0000" points="810.71,741.2837,803.3086,734.7861,805.9366,739.7954,800.9273,742.4234,810.71,741.2837" style="stroke:#FF0000;stroke-width:1.0;"/></g><!--link USR to DA--><g id="link_USR_DA"><path d="M692.08,558.1537 C707.88,545.3337 734.69,524.9937 760.5,512.0137 C778.35,503.0437 793.063,497.3145 811.713,491.3745 " fill="none" id="USR-to-DA" style="stroke:#FF0000;stroke-width:1.0;"/><polygon fill="#FF0000" points="817.43,489.5537,807.6405,488.4736,812.6658,491.0711,810.0684,496.0963,817.43,489.5537" style="stroke:#FF0000;stroke-width:1.0;"/></g><!--link EMP to DA--><g id="link_EMP_DA"><path d="M703.24,376.8737 C717.82,397.0737 737.75,420.5337 760.5,436.0137 C775.71,446.3637 788.2543,452.2276 805.6843,457.8976 " fill="none" id="EMP-to-DA" style="stroke:#008000;stroke-width:1.0;"/><polygon fill="#008000" points="811.39,459.7537,804.0688,453.1658,806.6353,458.2069,801.5941,460.7734,811.39,459.7537" style="stroke:#008000;stroke-width:1.0;"/></g><!--reverse link CP to USR--><g id="link_CP_USR"><path d="M384.5773,141.3099 C398.6373,145.0599 406.23,149.8037 416.5,160.0137 C420.57,164.0637 452.68,358.0137 455.5,363.0137 C496.06,434.8037 533.75,430.1937 593.5,487.0137 C618.09,510.3937 645.7,538.5937 661.93,555.3737 " fill="none" id="CP-backto-USR" style="stroke:#FF0000;stroke-width:1.0;"/><polygon fill="#FF0000" points="378.78,139.7637,386.4452,145.9479,383.6111,141.0522,388.5068,138.2181,378.78,139.7637" style="stroke:#FF0000;stroke-width:1.0;"/></g><!--reverse link CP to EMP--><g id="link_CP_EMP"><path d="M384.4982,141.7865 C398.4782,145.5065 406.07,150.1237 416.5,160.0137 C429.86,172.6737 441.46,309.1137 455.5,321.0137 C509.24,366.5337 599.23,355.0237 645.89,344.8437 " fill="none" id="CP-backto-EMP" style="stroke:#008000;stroke-width:1.0;"/><polygon fill="#008000" points="378.7,140.2437,386.3688,146.4235,383.5319,141.5294,388.4259,138.6925,378.7,140.2437" style="stroke:#008000;stroke-width:1.0;"/></g><!--link EMP to VST--><g id="link_EMP_VST"><path d="M708.16,329.2837 C723.4,323.9437 741.04,315.3437 752.5,302.0137 C760.66,292.5237 752.44,284.5937 760.5,275.0137 C775.99,256.5937 793.3442,245.8878 814.6342,236.9878 " fill="none" id="EMP-to-VST" style="stroke:#008000;stroke-width:1.0;"/><polygon fill="#008000" points="820.17,234.6737,810.3236,234.4544,815.5569,236.6021,813.4091,241.8354,820.17,234.6737" style="stroke:#008000;stroke-width:1.0;"/></g><!--link EMP to AT--><g id="link_EMP_AT"><path d="M688.98,297.2137 C700.89,261.3137 723.34,209.5837 760.5,179.0137 C776.34,165.9837 791.1954,159.4235 810.6454,154.4735 " fill="none" id="EMP-to-AT" style="stroke:#008000;stroke-width:1.0;"/><polygon fill="#008000" points="816.46,152.9937,806.7515,151.337,811.6145,154.2269,808.7246,159.0898,816.46,152.9937" style="stroke:#008000;stroke-width:1.0;"/></g><!--link EMP to CST--><g id="link_EMP_CST"><path d="M681.72,297.1837 C688.56,246.8037 707.68,160.6337 760.5,111.0137 C775.9,96.5437 791.3347,89.5999 811.3947,84.7999 " fill="none" id="EMP-to-CST" style="stroke:#008000;stroke-width:1.0;"/><polygon fill="#008000" points="817.23,83.4037,807.5462,81.6079,812.3673,84.5672,809.4079,89.3883,817.23,83.4037" style="stroke:#008000;stroke-width:1.0;"/></g><!--reverse link UCRT to ADM--><g id="link_UCRT_ADM"><path d="M361.802,76.4415 C382.602,81.3115 399.33,88.1537 416.5,102.0137 C417.88,103.1237 459.17,180.5737 484.36,227.9737 " fill="none" id="UCRT-backto-ADM" style="stroke:#0000FF;stroke-width:1.0;"/><polygon fill="#0000FF" points="355.96,75.0737,363.8111,81.0201,360.8283,76.2135,365.6349,73.2307,355.96,75.0737" style="stroke:#0000FF;stroke-width:1.0;"/></g><!--reverse link CP to ADM--><g id="link_CP_ADM"><path d="M380.4572,145.589 C395.0172,148.939 403.82,152.5937 416.5,160.0137 C445.35,176.8937 468.97,207.0437 484.27,230.5537 " fill="none" id="CP-backto-ADM" style="stroke:#0000FF;stroke-width:1.0;"/><polygon fill="#0000FF" points="374.61,144.2437,382.4839,150.1598,379.4827,145.3648,384.2777,142.3635,374.61,144.2437" style="stroke:#0000FF;stroke-width:1.0;"/></g><!--reverse link REG to UUSR--><g id="link_REG_UUSR"><path d="M559.4475,72.5977 C584.2675,73.3177 608.34,74.0337 632.49,74.7337 " fill="none" id="REG-backto-UUSR" style="stroke:#181818;stroke-width:1.0;"/><polygon fill="#181818" points="553.45,72.4237,562.3302,76.683,558.4479,72.5687,562.5622,68.6863,553.45,72.4237" style="stroke:#181818;stroke-width:1.0;"/></g><!--reverse link RS to USR--><g id="link_RS_USR"><path d="M327.9104,405.6585 C358.1204,426.4785 406.58,458.3537 455.5,483.0137 C530.65,520.8937 626.44,553.7737 661.94,565.4637 " fill="none" id="RS-backto-USR" style="stroke:#FF0000;stroke-width:1.0;"/><polygon fill="#FF0000" points="322.97,402.2537,328.1107,410.6544,327.087,405.091,332.6504,404.0673,322.97,402.2537" style="stroke:#FF0000;stroke-width:1.0;"/></g><!--reverse link GS to EMP--><g id="link_GS_EMP"><path d="M370.19,320.7724 C389.82,325.6924 403.68,333.1337 416.5,349.0137 C431.2,367.2237 407.34,438.1037 424.5,454.0137 C490.73,515.3837 594.86,424.0937 645.84,370.8437 " fill="none" id="GS-backto-EMP" style="stroke:#008000;stroke-width:1.0;"/><polygon fill="#008000" points="364.37,319.3137,372.1275,325.3817,369.22,320.5293,374.0724,317.6217,364.37,319.3137" style="stroke:#008000;stroke-width:1.0;"/></g><!--link Chat to Administration--><!--link Chat to Administration--><!--link Chat to Administration--><!--link UUSR to CST--><!--SRC=[hPJ1Zfim48RlVWfhUzZTGpPtLAs40AMNbIBOv5BruCKJi69iQfkYgksxrpQ60A6tvX29_nkFv_UC_LWRq-felsyv4QPh-4ifctsdOLSI-qSPgHHf48fYsZ0HOQ9ndBwXw2IkGlOQsqZbrTEfoAqyVRglh6cv_0dWbUpjY51BoYkf03yaDJ4F-1V2zlVaFfvTp5FovVrvq7Bute4skEZQLgg0yoBG0_i1ItImA6IpEV3BxjLh4HCbxoYiKJv3VsPrlRFo2aPFfPqPzBXKG0nGR0OuR7XEnb8JZmCDFaQMKMOM91j9qNqqArQCB0KEgupfo4xsJ0d5n1XIrWs8m4_nw3-LlTWCIQSGxqhx0kvzJLN4MhDABAg89yzSwfLbjswMVixEDvIu3hnwQTaRj-yTcRV6Jo3JHX73f9Wwb4DbHL1XGhB3iYjkGCC99VbKVKs4JTaIhNkfQ31m76WuPXUDF__UxK9IMmhYSB4TarYngZQOCWMbgmKXE-xOZPMtzuap0P42EidRgXs5Ux7O4jCjqNRy9WwgZvtBzjAjr4e1Y27QkV7L7TShxiYmwfRkF9Kva0d4_z2JrG8q7h0zN_kWXDFvu1qWj-kcxjhWWNjhSB3SjU4whomC-g5OxlfuaPpBdeaACs57gVFzqvWem1UfS2irSueDGE6Dsdsj6QKWljbywndyRp7UqIqYtAQ_]--></g></svg>