<svg xmlns="http://www.w3.org/2000/svg" xmlns:xlink="http://www.w3.org/1999/xlink" contentStyleType="text/css" height="282px" preserveAspectRatio="none" style="width:658px;height:282px;background:#FFFFFF;" version="1.1" viewBox="0 0 658 282" width="658px" zoomAndPan="magnify"><defs/><g><!--class HttpRequestHandler--><g id="elem_HttpRequestHandler"><rect codeLine="1" fill="#F1F1F1" height="66.6211" id="HttpRequestHandler" rx="2.5" ry="2.5" style="stroke:#181818;stroke-width:0.5;" width="162.9785" x="261" y="7"/><ellipse cx="277.8589" cy="23" fill="#B4A7E5" rx="11" ry="11" style="stroke:#181818;stroke-width:1.0;"/><path d="M278.812,19.6406 L278.812,26.2969 L280.5308,26.2969 Q281.1401,26.2969 281.4058,26.5313 Q281.6714,26.7656 281.6714,27.1563 Q281.6714,27.5313 281.4058,27.7656 Q281.1401,28 280.5308,28 L275.3901,28 Q274.7808,28 274.5151,27.7656 Q274.2495,27.5313 274.2495,27.1406 Q274.2495,26.7656 274.5151,26.5313 Q274.7808,26.2969 275.3901,26.2969 L277.1089,26.2969 L277.1089,19.6406 L275.3901,19.6406 Q274.7808,19.6406 274.5151,19.4063 Q274.2495,19.1719 274.2495,18.7813 Q274.2495,18.4063 274.5151,18.1719 Q274.7808,17.9375 275.3901,17.9375 L280.5308,17.9375 Q281.1401,17.9375 281.4058,18.1719 Q281.6714,18.4063 281.6714,18.7813 Q281.6714,19.1719 281.4058,19.4063 Q281.1401,19.6406 280.5308,19.6406 L278.812,19.6406 Z " fill="#000000"/><text fill="#000000" font-family="sans-serif" font-size="14" font-style="italic" lengthAdjust="spacing" textLength="126.8477" x="292.272" y="28.7969">HttpRequestHandler</text><line style="stroke:#181818;stroke-width:0.5;" x1="262" x2="422.9785" y1="39" y2="39"/><line style="stroke:#181818;stroke-width:0.5;" x1="262" x2="422.9785" y1="47" y2="47"/><text fill="#000000" font-family="sans-serif" font-size="14" lengthAdjust="spacing" textLength="150.9785" x="267" y="66.1074">handle(request, context)</text></g><!--class MethodHandler--><g id="elem_MethodHandler"><rect codeLine="5" fill="#F1F1F1" height="141.1055" id="MethodHandler" rx="2.5" ry="2.5" style="stroke:#181818;stroke-width:0.5;" width="217.4473" x="9" y="134"/><ellipse cx="65.6118" cy="150" fill="#ADD1B2" rx="11" ry="11" style="stroke:#181818;stroke-width:1.0;"/><path d="M68.3774,145.875 Q68.5337,145.6563 68.7212,145.5469 Q68.9087,145.4375 69.1274,145.4375 Q69.5024,145.4375 69.7368,145.7031 Q69.9712,145.9531 69.9712,146.5625 L69.9712,148.0156 Q69.9712,148.625 69.7368,148.8906 Q69.5024,149.1563 69.1274,149.1563 Q68.7837,149.1563 68.5806,148.9531 Q68.3774,148.7656 68.2681,148.25 Q68.2212,147.8906 68.0337,147.7031 Q67.7056,147.3281 67.0962,147.1094 Q66.4868,146.8906 65.8618,146.8906 Q65.0962,146.8906 64.4556,147.2188 Q63.8306,147.5469 63.3306,148.2969 Q62.8462,149.0469 62.8462,150.0781 L62.8462,151.1719 Q62.8462,152.4063 63.7368,153.2344 Q64.6274,154.0469 66.2212,154.0469 Q67.1587,154.0469 67.8149,153.7969 Q68.2056,153.6406 68.6274,153.2031 Q68.8931,152.9375 69.0337,152.8594 Q69.1899,152.7813 69.3931,152.7813 Q69.7212,152.7813 69.9712,153.0469 Q70.2368,153.2969 70.2368,153.6406 Q70.2368,153.9844 69.8931,154.3906 Q69.3931,154.9688 68.5962,155.2969 Q67.5181,155.75 66.2212,155.75 Q64.7056,155.75 63.5024,155.125 Q62.5181,154.625 61.8306,153.5625 Q61.1431,152.4844 61.1431,151.2031 L61.1431,150.0469 Q61.1431,148.7188 61.7524,147.5781 Q62.3774,146.4219 63.4712,145.8125 Q64.5649,145.1875 65.7993,145.1875 Q66.5337,145.1875 67.1743,145.3594 Q67.8306,145.5156 68.3774,145.875 Z " fill="#000000"/><text fill="#000000" font-family="sans-serif" font-size="14" lengthAdjust="spacing" textLength="95.7236" x="86.1118" y="155.7969">MethodHandler</text><line style="stroke:#181818;stroke-width:0.5;" x1="10" x2="225.4473" y1="166" y2="166"/><line style="stroke:#181818;stroke-width:0.5;" x1="10" x2="225.4473" y1="174" y2="174"/><text fill="#000000" font-family="sans-serif" font-size="14" lengthAdjust="spacing" textLength="150.9785" x="29" y="193.1074">handle(request, context)</text><polygon fill="#FFFF44" points="20,202.4316,24,206.4316,20,210.4316,16,206.4316" style="stroke:#B38D22;stroke-width:1.0;"/><text fill="#000000" font-family="sans-serif" font-size="14" lengthAdjust="spacing" textLength="173.5439" x="29" y="211.7285">handleGet(request, context)</text><polygon fill="#FFFF44" points="20,221.0527,24,225.0527,20,229.0527,16,225.0527" style="stroke:#B38D22;stroke-width:1.0;"/><text fill="#000000" font-family="sans-serif" font-size="14" lengthAdjust="spacing" textLength="178.9922" x="29" y="230.3496">handlePost(request, context)</text><polygon fill="#FFFF44" points="20,239.6738,24,243.6738,20,247.6738,16,243.6738" style="stroke:#B38D22;stroke-width:1.0;"/><text fill="#000000" font-family="sans-serif" font-size="14" lengthAdjust="spacing" textLength="171.9922" x="29" y="248.9707">handlePut(request, context)</text><polygon fill="#FFFF44" points="20,258.2949,24,262.2949,20,266.2949,16,262.2949" style="stroke:#B38D22;stroke-width:1.0;"/><text fill="#000000" font-family="sans-serif" font-size="14" lengthAdjust="spacing" textLength="191.4473" x="29" y="267.5918">handleDelete(request, context)</text></g><!--class StaticFileHandler--><g id="elem_StaticFileHandler"><rect codeLine="13" fill="#F1F1F1" height="66.6211" id="StaticFileHandler" rx="2.5" ry="2.5" style="stroke:#181818;stroke-width:0.5;" width="162.9785" x="261" y="171"/><ellipse cx="286.9705" cy="187" fill="#ADD1B2" rx="11" ry="11" style="stroke:#181818;stroke-width:1.0;"/><path d="M289.7361,182.875 Q289.8924,182.6563 290.0799,182.5469 Q290.2674,182.4375 290.4861,182.4375 Q290.8611,182.4375 291.0955,182.7031 Q291.3299,182.9531 291.3299,183.5625 L291.3299,185.0156 Q291.3299,185.625 291.0955,185.8906 Q290.8611,186.1563 290.4861,186.1563 Q290.1424,186.1563 289.9393,185.9531 Q289.7361,185.7656 289.6268,185.25 Q289.5799,184.8906 289.3924,184.7031 Q289.0643,184.3281 288.4549,184.1094 Q287.8455,183.8906 287.2205,183.8906 Q286.4549,183.8906 285.8143,184.2188 Q285.1893,184.5469 284.6893,185.2969 Q284.2049,186.0469 284.2049,187.0781 L284.2049,188.1719 Q284.2049,189.4063 285.0955,190.2344 Q285.9861,191.0469 287.5799,191.0469 Q288.5174,191.0469 289.1736,190.7969 Q289.5643,190.6406 289.9861,190.2031 Q290.2518,189.9375 290.3924,189.8594 Q290.5486,189.7813 290.7518,189.7813 Q291.0799,189.7813 291.3299,190.0469 Q291.5955,190.2969 291.5955,190.6406 Q291.5955,190.9844 291.2518,191.3906 Q290.7518,191.9688 289.9549,192.2969 Q288.8768,192.75 287.5799,192.75 Q286.0643,192.75 284.8611,192.125 Q283.8768,191.625 283.1893,190.5625 Q282.5018,189.4844 282.5018,188.2031 L282.5018,187.0469 Q282.5018,185.7188 283.1111,184.5781 Q283.7361,183.4219 284.8299,182.8125 Q285.9236,182.1875 287.158,182.1875 Q287.8924,182.1875 288.533,182.3594 Q289.1893,182.5156 289.7361,182.875 Z " fill="#000000"/><text fill="#000000" font-family="sans-serif" font-size="14" lengthAdjust="spacing" textLength="106.5996" x="303.4084" y="192.7969">StaticFileHandler</text><line style="stroke:#181818;stroke-width:0.5;" x1="262" x2="422.9785" y1="203" y2="203"/><line style="stroke:#181818;stroke-width:0.5;" x1="262" x2="422.9785" y1="211" y2="211"/><text fill="#000000" font-family="sans-serif" font-size="14" lengthAdjust="spacing" textLength="150.9785" x="267" y="230.1074">handle(request, context)</text></g><!--class UserImplementedHandler--><g id="elem_UserImplementedHandler"><rect codeLine="17" fill="#F1F1F1" height="66.6211" id="UserImplementedHandler" rx="2.5" ry="2.5" style="stroke:#181818;stroke-width:0.5;" width="191.5166" x="459.5" y="171"/><ellipse cx="474.5" cy="187" fill="#ADD1B2" rx="11" ry="11" style="stroke:#181818;stroke-width:1.0;"/><path d="M477.2656,182.875 Q477.4219,182.6563 477.6094,182.5469 Q477.7969,182.4375 478.0156,182.4375 Q478.3906,182.4375 478.625,182.7031 Q478.8594,182.9531 478.8594,183.5625 L478.8594,185.0156 Q478.8594,185.625 478.625,185.8906 Q478.3906,186.1563 478.0156,186.1563 Q477.6719,186.1563 477.4688,185.9531 Q477.2656,185.7656 477.1563,185.25 Q477.1094,184.8906 476.9219,184.7031 Q476.5938,184.3281 475.9844,184.1094 Q475.375,183.8906 474.75,183.8906 Q473.9844,183.8906 473.3438,184.2188 Q472.7188,184.5469 472.2188,185.2969 Q471.7344,186.0469 471.7344,187.0781 L471.7344,188.1719 Q471.7344,189.4063 472.625,190.2344 Q473.5156,191.0469 475.1094,191.0469 Q476.0469,191.0469 476.7031,190.7969 Q477.0938,190.6406 477.5156,190.2031 Q477.7813,189.9375 477.9219,189.8594 Q478.0781,189.7813 478.2813,189.7813 Q478.6094,189.7813 478.8594,190.0469 Q479.125,190.2969 479.125,190.6406 Q479.125,190.9844 478.7813,191.3906 Q478.2813,191.9688 477.4844,192.2969 Q476.4063,192.75 475.1094,192.75 Q473.5938,192.75 472.3906,192.125 Q471.4063,191.625 470.7188,190.5625 Q470.0313,189.4844 470.0313,188.2031 L470.0313,187.0469 Q470.0313,185.7188 470.6406,184.5781 Q471.2656,183.4219 472.3594,182.8125 Q473.4531,182.1875 474.6875,182.1875 Q475.4219,182.1875 476.0625,182.3594 Q476.7188,182.5156 477.2656,182.875 Z " fill="#000000"/><text fill="#000000" font-family="sans-serif" font-size="14" lengthAdjust="spacing" textLength="159.5166" x="488.5" y="192.7969">UserImplementedHandler</text><line style="stroke:#181818;stroke-width:0.5;" x1="460.5" x2="650.0166" y1="203" y2="203"/><line style="stroke:#181818;stroke-width:0.5;" x1="460.5" x2="650.0166" y1="211" y2="211"/><text fill="#000000" font-family="sans-serif" font-size="14" lengthAdjust="spacing" textLength="150.9785" x="465.5" y="230.1074">handle(request, context)</text></g><!--reverse link HttpRequestHandler to MethodHandler--><g id="link_HttpRequestHandler_MethodHandler"><path codeLine="21" d="M282.6305,84.6049 C258.7605,101.7849 243.12,113.05 214.28,133.82 " fill="none" id="HttpRequestHandler-backto-MethodHandler" style="stroke:#181818;stroke-width:1.0;"/><polygon fill="none" points="297.24,74.09,279.1256,79.7351,286.1355,89.4747,297.24,74.09" style="stroke:#181818;stroke-width:1.0;"/></g><!--reverse link HttpRequestHandler to StaticFileHandler--><g id="link_HttpRequestHandler_StaticFileHandler"><path codeLine="22" d="M342.5,92.28 C342.5,120.39 342.5,142.67 342.5,170.77 " fill="none" id="HttpRequestHandler-backto-StaticFileHandler" style="stroke:#181818;stroke-width:1.0;"/><polygon fill="none" points="342.5,74.28,336.5,92.28,348.5,92.28,342.5,74.28" style="stroke:#181818;stroke-width:1.0;"/></g><!--reverse link HttpRequestHandler to UserImplementedHandler--><g id="link_HttpRequestHandler_UserImplementedHandler"><path codeLine="23" d="M399.6768,84.9869 C436.7268,113.1669 475.69,142.8 512.72,170.96 " fill="none" id="HttpRequestHandler-backto-UserImplementedHandler" style="stroke:#181818;stroke-width:1.0;"/><polygon fill="none" points="385.35,74.09,396.0445,89.7625,403.3091,80.2113,385.35,74.09" style="stroke:#181818;stroke-width:1.0;"/></g><!--SRC=[oymhIIrAIqnELV0eAIa8IYqiJIqkyKZCIyb9BLAevb80WWmmJwC88gUZa9mFr5DHeibLoyMLd9DONApWcrgIaPz2f2wGf394rZsr1B-2WFnYGYfA2IXmISr9BS7h-k2In9BCPBVCd5HI_HrQd5hacLkGavgR2fHA8LuxQe3fbXRerjXXYG0kJAVXLel3CJWr0000]--></g></svg>