<svg xmlns="http://www.w3.org/2000/svg" xmlns:xlink="http://www.w3.org/1999/xlink" contentStyleType="text/css" height="207px" preserveAspectRatio="none" style="width:602px;height:207px;background:#FFFFFF;" version="1.1" viewBox="0 0 602 207" width="602px" zoomAndPan="magnify"><defs/><g><!--class HttpRequestHandler--><g id="elem_HttpRequestHandler"><rect codeLine="1" fill="#F1F1F1" height="66.6211" id="HttpRequestHandler" rx="2.5" ry="2.5" style="stroke:#181818;stroke-width:0.5;" width="162.9785" x="205" y="7"/><ellipse cx="221.8589" cy="23" fill="#B4A7E5" rx="11" ry="11" style="stroke:#181818;stroke-width:1.0;"/><path d="M222.812,19.6406 L222.812,26.2969 L224.5308,26.2969 Q225.1401,26.2969 225.4058,26.5313 Q225.6714,26.7656 225.6714,27.1563 Q225.6714,27.5313 225.4058,27.7656 Q225.1401,28 224.5308,28 L219.3901,28 Q218.7808,28 218.5151,27.7656 Q218.2495,27.5313 218.2495,27.1406 Q218.2495,26.7656 218.5151,26.5313 Q218.7808,26.2969 219.3901,26.2969 L221.1089,26.2969 L221.1089,19.6406 L219.3901,19.6406 Q218.7808,19.6406 218.5151,19.4063 Q218.2495,19.1719 218.2495,18.7813 Q218.2495,18.4063 218.5151,18.1719 Q218.7808,17.9375 219.3901,17.9375 L224.5308,17.9375 Q225.1401,17.9375 225.4058,18.1719 Q225.6714,18.4063 225.6714,18.7813 Q225.6714,19.1719 225.4058,19.4063 Q225.1401,19.6406 224.5308,19.6406 L222.812,19.6406 Z " fill="#000000"/><text fill="#000000" font-family="sans-serif" font-size="14" font-style="italic" lengthAdjust="spacing" textLength="126.8477" x="236.272" y="28.7969">HttpRequestHandler</text><line style="stroke:#181818;stroke-width:0.5;" x1="206" x2="366.9785" y1="39" y2="39"/><line style="stroke:#181818;stroke-width:0.5;" x1="206" x2="366.9785" y1="47" y2="47"/><text fill="#000000" font-family="sans-serif" font-size="14" lengthAdjust="spacing" textLength="150.9785" x="211" y="66.1074">handle(request, context)</text></g><!--class MethodHandler--><g id="elem_MethodHandler"><rect codeLine="5" fill="#F1F1F1" height="66.6211" id="MethodHandler" rx="2.5" ry="2.5" style="stroke:#181818;stroke-width:0.5;" width="162.9785" x="7" y="134"/><ellipse cx="37.8647" cy="150" fill="#ADD1B2" rx="11" ry="11" style="stroke:#181818;stroke-width:1.0;"/><path d="M40.6303,145.875 Q40.7866,145.6563 40.9741,145.5469 Q41.1616,145.4375 41.3803,145.4375 Q41.7553,145.4375 41.9897,145.7031 Q42.2241,145.9531 42.2241,146.5625 L42.2241,148.0156 Q42.2241,148.625 41.9897,148.8906 Q41.7553,149.1563 41.3803,149.1563 Q41.0366,149.1563 40.8334,148.9531 Q40.6303,148.7656 40.5209,148.25 Q40.4741,147.8906 40.2866,147.7031 Q39.9584,147.3281 39.3491,147.1094 Q38.7397,146.8906 38.1147,146.8906 Q37.3491,146.8906 36.7084,147.2188 Q36.0834,147.5469 35.5834,148.2969 Q35.0991,149.0469 35.0991,150.0781 L35.0991,151.1719 Q35.0991,152.4063 35.9897,153.2344 Q36.8803,154.0469 38.4741,154.0469 Q39.4116,154.0469 40.0678,153.7969 Q40.4584,153.6406 40.8803,153.2031 Q41.1459,152.9375 41.2866,152.8594 Q41.4428,152.7813 41.6459,152.7813 Q41.9741,152.7813 42.2241,153.0469 Q42.4897,153.2969 42.4897,153.6406 Q42.4897,153.9844 42.1459,154.3906 Q41.6459,154.9688 40.8491,155.2969 Q39.7709,155.75 38.4741,155.75 Q36.9584,155.75 35.7553,155.125 Q34.7709,154.625 34.0834,153.5625 Q33.3959,152.4844 33.3959,151.2031 L33.3959,150.0469 Q33.3959,148.7188 34.0053,147.5781 Q34.6303,146.4219 35.7241,145.8125 Q36.8178,145.1875 38.0522,145.1875 Q38.7866,145.1875 39.4272,145.3594 Q40.0834,145.5156 40.6303,145.875 Z " fill="#000000"/><text fill="#000000" font-family="sans-serif" font-size="14" lengthAdjust="spacing" textLength="95.7236" x="55.3902" y="155.7969">MethodHandler</text><line style="stroke:#181818;stroke-width:0.5;" x1="8" x2="168.9785" y1="166" y2="166"/><line style="stroke:#181818;stroke-width:0.5;" x1="8" x2="168.9785" y1="174" y2="174"/><text fill="#000000" font-family="sans-serif" font-size="14" lengthAdjust="spacing" textLength="150.9785" x="13" y="193.1074">handle(request, context)</text></g><!--class StaticFileHandler--><g id="elem_StaticFileHandler"><rect codeLine="9" fill="#F1F1F1" height="66.6211" id="StaticFileHandler" rx="2.5" ry="2.5" style="stroke:#181818;stroke-width:0.5;" width="162.9785" x="205" y="134"/><ellipse cx="230.9705" cy="150" fill="#ADD1B2" rx="11" ry="11" style="stroke:#181818;stroke-width:1.0;"/><path d="M233.7361,145.875 Q233.8924,145.6563 234.0799,145.5469 Q234.2674,145.4375 234.4861,145.4375 Q234.8611,145.4375 235.0955,145.7031 Q235.3299,145.9531 235.3299,146.5625 L235.3299,148.0156 Q235.3299,148.625 235.0955,148.8906 Q234.8611,149.1563 234.4861,149.1563 Q234.1424,149.1563 233.9393,148.9531 Q233.7361,148.7656 233.6268,148.25 Q233.5799,147.8906 233.3924,147.7031 Q233.0643,147.3281 232.4549,147.1094 Q231.8455,146.8906 231.2205,146.8906 Q230.4549,146.8906 229.8143,147.2188 Q229.1893,147.5469 228.6893,148.2969 Q228.2049,149.0469 228.2049,150.0781 L228.2049,151.1719 Q228.2049,152.4063 229.0955,153.2344 Q229.9861,154.0469 231.5799,154.0469 Q232.5174,154.0469 233.1736,153.7969 Q233.5643,153.6406 233.9861,153.2031 Q234.2518,152.9375 234.3924,152.8594 Q234.5486,152.7813 234.7518,152.7813 Q235.0799,152.7813 235.3299,153.0469 Q235.5955,153.2969 235.5955,153.6406 Q235.5955,153.9844 235.2518,154.3906 Q234.7518,154.9688 233.9549,155.2969 Q232.8768,155.75 231.5799,155.75 Q230.0643,155.75 228.8611,155.125 Q227.8768,154.625 227.1893,153.5625 Q226.5018,152.4844 226.5018,151.2031 L226.5018,150.0469 Q226.5018,148.7188 227.1111,147.5781 Q227.7361,146.4219 228.8299,145.8125 Q229.9236,145.1875 231.158,145.1875 Q231.8924,145.1875 232.533,145.3594 Q233.1893,145.5156 233.7361,145.875 Z " fill="#000000"/><text fill="#000000" font-family="sans-serif" font-size="14" lengthAdjust="spacing" textLength="106.5996" x="247.4084" y="155.7969">StaticFileHandler</text><line style="stroke:#181818;stroke-width:0.5;" x1="206" x2="366.9785" y1="166" y2="166"/><line style="stroke:#181818;stroke-width:0.5;" x1="206" x2="366.9785" y1="174" y2="174"/><text fill="#000000" font-family="sans-serif" font-size="14" lengthAdjust="spacing" textLength="150.9785" x="211" y="193.1074">handle(request, context)</text></g><!--class UserImplementedHandler--><g id="elem_UserImplementedHandler"><rect codeLine="13" fill="#F1F1F1" height="66.6211" id="UserImplementedHandler" rx="2.5" ry="2.5" style="stroke:#181818;stroke-width:0.5;" width="191.5166" x="403.5" y="134"/><ellipse cx="418.5" cy="150" fill="#ADD1B2" rx="11" ry="11" style="stroke:#181818;stroke-width:1.0;"/><path d="M421.2656,145.875 Q421.4219,145.6563 421.6094,145.5469 Q421.7969,145.4375 422.0156,145.4375 Q422.3906,145.4375 422.625,145.7031 Q422.8594,145.9531 422.8594,146.5625 L422.8594,148.0156 Q422.8594,148.625 422.625,148.8906 Q422.3906,149.1563 422.0156,149.1563 Q421.6719,149.1563 421.4688,148.9531 Q421.2656,148.7656 421.1563,148.25 Q421.1094,147.8906 420.9219,147.7031 Q420.5938,147.3281 419.9844,147.1094 Q419.375,146.8906 418.75,146.8906 Q417.9844,146.8906 417.3438,147.2188 Q416.7188,147.5469 416.2188,148.2969 Q415.7344,149.0469 415.7344,150.0781 L415.7344,151.1719 Q415.7344,152.4063 416.625,153.2344 Q417.5156,154.0469 419.1094,154.0469 Q420.0469,154.0469 420.7031,153.7969 Q421.0938,153.6406 421.5156,153.2031 Q421.7813,152.9375 421.9219,152.8594 Q422.0781,152.7813 422.2813,152.7813 Q422.6094,152.7813 422.8594,153.0469 Q423.125,153.2969 423.125,153.6406 Q423.125,153.9844 422.7813,154.3906 Q422.2813,154.9688 421.4844,155.2969 Q420.4063,155.75 419.1094,155.75 Q417.5938,155.75 416.3906,155.125 Q415.4063,154.625 414.7188,153.5625 Q414.0313,152.4844 414.0313,151.2031 L414.0313,150.0469 Q414.0313,148.7188 414.6406,147.5781 Q415.2656,146.4219 416.3594,145.8125 Q417.4531,145.1875 418.6875,145.1875 Q419.4219,145.1875 420.0625,145.3594 Q420.7188,145.5156 421.2656,145.875 Z " fill="#000000"/><text fill="#000000" font-family="sans-serif" font-size="14" lengthAdjust="spacing" textLength="159.5166" x="432.5" y="155.7969">UserImplementedHandler</text><line style="stroke:#181818;stroke-width:0.5;" x1="404.5" x2="594.0166" y1="166" y2="166"/><line style="stroke:#181818;stroke-width:0.5;" x1="404.5" x2="594.0166" y1="174" y2="174"/><text fill="#000000" font-family="sans-serif" font-size="14" lengthAdjust="spacing" textLength="150.9785" x="409.5" y="193.1074">handle(request, context)</text></g><!--reverse link HttpRequestHandler to MethodHandler--><g id="link_HttpRequestHandler_MethodHandler"><path codeLine="17" d="M219.7692,83.6287 C190.5592,102.0687 169.32,115.47 140.09,133.93 " fill="none" id="HttpRequestHandler-backto-MethodHandler" style="stroke:#181818;stroke-width:1.0;"/><polygon fill="none" points="234.99,74.02,216.5663,78.5551,222.9721,88.7023,234.99,74.02" style="stroke:#181818;stroke-width:1.0;"/></g><!--reverse link HttpRequestHandler to StaticFileHandler--><g id="link_HttpRequestHandler_StaticFileHandler"><path codeLine="18" d="M286.5,92.02 C286.5,110.39 286.5,115.29 286.5,133.71 " fill="none" id="HttpRequestHandler-backto-StaticFileHandler" style="stroke:#181818;stroke-width:1.0;"/><polygon fill="none" points="286.5,74.02,280.5,92.02,292.5,92.02,286.5,74.02" style="stroke:#181818;stroke-width:1.0;"/></g><!--reverse link HttpRequestHandler to UserImplementedHandler--><g id="link_HttpRequestHandler_UserImplementedHandler"><path codeLine="19" d="M357.4352,83.1287 C388.8652,101.5687 412.55,115.47 444,133.93 " fill="none" id="HttpRequestHandler-backto-UserImplementedHandler" style="stroke:#181818;stroke-width:1.0;"/><polygon fill="none" points="341.91,74.02,354.399,88.3037,360.4714,77.9536,341.91,74.02" style="stroke:#181818;stroke-width:1.0;"/></g><!--SRC=[oymhIIrAIqnELV0eAIa8IYqiJIqkyKZCIyb9BLAevb80WWmmJwC88gUZa9mFr5DHeibLoyMLd9DONApWcrgIaPz2ggxWaiIIp6Itp9nKKdM65gSMUUOMvAJcfWAbIB0OrQ6wfGMwDNPOFCw5wJJSQd4u1gS60000]--></g></svg>