<svg xmlns="http://www.w3.org/2000/svg" xmlns:xlink="http://www.w3.org/1999/xlink" contentStyleType="text/css" height="262px" preserveAspectRatio="none" style="width:183px;height:262px;background:#FFFFFF;" version="1.1" viewBox="0 0 183 262" width="183px" zoomAndPan="magnify"><defs/><g><!--class InputStream--><g id="elem_InputStream"><rect codeLine="1" fill="#F1F1F1" height="85.2422" id="InputStream" rx="2.5" ry="2.5" style="stroke:#181818;stroke-width:0.5;" width="108.2617" x="38" y="7"/><ellipse cx="53" cy="23" fill="#B4A7E5" rx="11" ry="11" style="stroke:#181818;stroke-width:1.0;"/><path d="M53.9531,19.6406 L53.9531,26.2969 L55.6719,26.2969 Q56.2813,26.2969 56.5469,26.5313 Q56.8125,26.7656 56.8125,27.1563 Q56.8125,27.5313 56.5469,27.7656 Q56.2813,28 55.6719,28 L50.5313,28 Q49.9219,28 49.6563,27.7656 Q49.3906,27.5313 49.3906,27.1406 Q49.3906,26.7656 49.6563,26.5313 Q49.9219,26.2969 50.5313,26.2969 L52.25,26.2969 L52.25,19.6406 L50.5313,19.6406 Q49.9219,19.6406 49.6563,19.4063 Q49.3906,19.1719 49.3906,18.7813 Q49.3906,18.4063 49.6563,18.1719 Q49.9219,17.9375 50.5313,17.9375 L55.6719,17.9375 Q56.2813,17.9375 56.5469,18.1719 Q56.8125,18.4063 56.8125,18.7813 Q56.8125,19.1719 56.5469,19.4063 Q56.2813,19.6406 55.6719,19.6406 L53.9531,19.6406 Z " fill="#000000"/><text fill="#000000" font-family="sans-serif" font-size="14" font-style="italic" lengthAdjust="spacing" textLength="76.2617" x="67" y="28.7969">InputStream</text><line style="stroke:#181818;stroke-width:0.5;" x1="39" x2="145.2617" y1="39" y2="39"/><line style="stroke:#181818;stroke-width:0.5;" x1="39" x2="145.2617" y1="47" y2="47"/><text fill="#000000" font-family="sans-serif" font-size="14" lengthAdjust="spacing" textLength="56.0205" x="44" y="66.1074">int read()</text><text fill="#000000" font-family="sans-serif" font-size="14" lengthAdjust="spacing" textLength="20.9932" x="44" y="84.7285">...()</text></g><!--class InputStreamDecorator--><g id="elem_InputStreamDecorator"><rect codeLine="6" fill="#F1F1F1" height="103.8633" id="InputStreamDecorator" rx="2.5" ry="2.5" style="stroke:#181818;stroke-width:0.5;" width="169.7305" x="7" y="152"/><ellipse cx="22" cy="168" fill="#ADD1B2" rx="11" ry="11" style="stroke:#181818;stroke-width:1.0;"/><path d="M24.7656,163.875 Q24.9219,163.6563 25.1094,163.5469 Q25.2969,163.4375 25.5156,163.4375 Q25.8906,163.4375 26.125,163.7031 Q26.3594,163.9531 26.3594,164.5625 L26.3594,166.0156 Q26.3594,166.625 26.125,166.8906 Q25.8906,167.1563 25.5156,167.1563 Q25.1719,167.1563 24.9688,166.9531 Q24.7656,166.7656 24.6563,166.25 Q24.6094,165.8906 24.4219,165.7031 Q24.0938,165.3281 23.4844,165.1094 Q22.875,164.8906 22.25,164.8906 Q21.4844,164.8906 20.8438,165.2188 Q20.2188,165.5469 19.7188,166.2969 Q19.2344,167.0469 19.2344,168.0781 L19.2344,169.1719 Q19.2344,170.4063 20.125,171.2344 Q21.0156,172.0469 22.6094,172.0469 Q23.5469,172.0469 24.2031,171.7969 Q24.5938,171.6406 25.0156,171.2031 Q25.2813,170.9375 25.4219,170.8594 Q25.5781,170.7813 25.7813,170.7813 Q26.1094,170.7813 26.3594,171.0469 Q26.625,171.2969 26.625,171.6406 Q26.625,171.9844 26.2813,172.3906 Q25.7813,172.9688 24.9844,173.2969 Q23.9063,173.75 22.6094,173.75 Q21.0938,173.75 19.8906,173.125 Q18.9063,172.625 18.2188,171.5625 Q17.5313,170.4844 17.5313,169.2031 L17.5313,168.0469 Q17.5313,166.7188 18.1406,165.5781 Q18.7656,164.4219 19.8594,163.8125 Q20.9531,163.1875 22.1875,163.1875 Q22.9219,163.1875 23.5625,163.3594 Q24.2188,163.5156 24.7656,163.875 Z " fill="#000000"/><text fill="#000000" font-family="sans-serif" font-size="14" lengthAdjust="spacing" textLength="137.7305" x="36" y="173.7969">InputStreamDecorator</text><line style="stroke:#181818;stroke-width:0.5;" x1="8" x2="175.7305" y1="184" y2="184"/><text fill="#000000" font-family="sans-serif" font-size="14" lengthAdjust="spacing" textLength="142.4199" x="13" y="203.1074">InputStream decorated</text><line style="stroke:#181818;stroke-width:0.5;" x1="8" x2="175.7305" y1="210.6211" y2="210.6211"/><text fill="#000000" font-family="sans-serif" font-size="14" lengthAdjust="spacing" textLength="56.0205" x="13" y="229.7285">int read()</text><text fill="#000000" font-family="sans-serif" font-size="14" lengthAdjust="spacing" textLength="20.9932" x="13" y="248.3496">...()</text></g><!--reverse link InputStream to InputStreamDecorator--><g id="link_InputStream_InputStreamDecorator"><path codeLine="12" d="M79.1075,110.1161 C77.6775,128.5461 78.87,132.45 79.89,151.86 " fill="none" id="InputStream-backto-InputStreamDecorator" style="stroke:#181818;stroke-width:1.0;"/><polygon fill="none" points="80.5,92.17,73.1255,109.6519,85.0896,110.5802,80.5,92.17" style="stroke:#181818;stroke-width:1.0;"/></g><!--reverse link InputStream to InputStreamDecorator--><g id="link_InputStream_InputStreamDecorator"><path codeLine="13" d="M105.1599,104.1299 C106.6699,122.5599 105.9,132.45 104.83,151.86 " fill="none" id="InputStream-backto-InputStreamDecorator-1" style="stroke:#181818;stroke-width:1.0;"/><polygon fill="#181818" points="104.18,92.17,100.6833,98.4766,105.1599,104.1299,108.6566,97.8233,104.18,92.17" style="stroke:#181818;stroke-width:1.0;"/></g><!--SRC=[oymhIIrAIqnELV3CAoWj2IufIatCLQZcKW22pBmI1I0tHKCJpDNJqmEoQhcuadCIYukHrRka9kSN9PRa5q4r8XkL0f5BJS5h95R3T4iBT6lia4t3hKuBMHa0]--></g></svg>