<svg xmlns="http://www.w3.org/2000/svg" xmlns:xlink="http://www.w3.org/1999/xlink" contentStyleType="text/css" height="207px" preserveAspectRatio="none" style="width:442px;height:207px;background:#FFFFFF;" version="1.1" viewBox="0 0 442 207" width="442px" zoomAndPan="magnify"><defs/><g><!--class RequestContextFactory--><g id="elem_RequestContextFactory"><rect codeLine="2" fill="#F1F1F1" height="66.6211" id="RequestContextFactory" rx="2.5" ry="2.5" style="stroke:#181818;stroke-width:0.5;" width="179.0684" x="145" y="7"/><ellipse cx="160" cy="23" fill="#B4A7E5" rx="11" ry="11" style="stroke:#181818;stroke-width:1.0;"/><path d="M160.9531,19.6406 L160.9531,26.2969 L162.6719,26.2969 Q163.2813,26.2969 163.5469,26.5313 Q163.8125,26.7656 163.8125,27.1563 Q163.8125,27.5313 163.5469,27.7656 Q163.2813,28 162.6719,28 L157.5313,28 Q156.9219,28 156.6563,27.7656 Q156.3906,27.5313 156.3906,27.1406 Q156.3906,26.7656 156.6563,26.5313 Q156.9219,26.2969 157.5313,26.2969 L159.25,26.2969 L159.25,19.6406 L157.5313,19.6406 Q156.9219,19.6406 156.6563,19.4063 Q156.3906,19.1719 156.3906,18.7813 Q156.3906,18.4063 156.6563,18.1719 Q156.9219,17.9375 157.5313,17.9375 L162.6719,17.9375 Q163.2813,17.9375 163.5469,18.1719 Q163.8125,18.4063 163.8125,18.7813 Q163.8125,19.1719 163.5469,19.4063 Q163.2813,19.6406 162.6719,19.6406 L160.9531,19.6406 Z " fill="#000000"/><text fill="#000000" font-family="sans-serif" font-size="14" font-style="italic" lengthAdjust="spacing" textLength="147.0684" x="174" y="28.7969">RequestContextFactory</text><line style="stroke:#181818;stroke-width:0.5;" x1="146" x2="323.0684" y1="39" y2="39"/><line style="stroke:#181818;stroke-width:0.5;" x1="146" x2="323.0684" y1="47" y2="47"/><text fill="#000000" font-family="sans-serif" font-size="14" lengthAdjust="spacing" textLength="148.627" x="151" y="66.1074">createRequestContext()</text></g><!--class DefaultRequestContextFactory--><g id="elem_DefaultRequestContextFactory"><rect codeLine="6" fill="#F1F1F1" height="66.6211" id="DefaultRequestContextFactory" rx="2.5" ry="2.5" style="stroke:#181818;stroke-width:0.5;" width="223.4268" x="7" y="134"/><ellipse cx="22" cy="150" fill="#ADD1B2" rx="11" ry="11" style="stroke:#181818;stroke-width:1.0;"/><path d="M24.7656,145.875 Q24.9219,145.6563 25.1094,145.5469 Q25.2969,145.4375 25.5156,145.4375 Q25.8906,145.4375 26.125,145.7031 Q26.3594,145.9531 26.3594,146.5625 L26.3594,148.0156 Q26.3594,148.625 26.125,148.8906 Q25.8906,149.1563 25.5156,149.1563 Q25.1719,149.1563 24.9688,148.9531 Q24.7656,148.7656 24.6563,148.25 Q24.6094,147.8906 24.4219,147.7031 Q24.0938,147.3281 23.4844,147.1094 Q22.875,146.8906 22.25,146.8906 Q21.4844,146.8906 20.8438,147.2188 Q20.2188,147.5469 19.7188,148.2969 Q19.2344,149.0469 19.2344,150.0781 L19.2344,151.1719 Q19.2344,152.4063 20.125,153.2344 Q21.0156,154.0469 22.6094,154.0469 Q23.5469,154.0469 24.2031,153.7969 Q24.5938,153.6406 25.0156,153.2031 Q25.2813,152.9375 25.4219,152.8594 Q25.5781,152.7813 25.7813,152.7813 Q26.1094,152.7813 26.3594,153.0469 Q26.625,153.2969 26.625,153.6406 Q26.625,153.9844 26.2813,154.3906 Q25.7813,154.9688 24.9844,155.2969 Q23.9063,155.75 22.6094,155.75 Q21.0938,155.75 19.8906,155.125 Q18.9063,154.625 18.2188,153.5625 Q17.5313,152.4844 17.5313,151.2031 L17.5313,150.0469 Q17.5313,148.7188 18.1406,147.5781 Q18.7656,146.4219 19.8594,145.8125 Q20.9531,145.1875 22.1875,145.1875 Q22.9219,145.1875 23.5625,145.3594 Q24.2188,145.5156 24.7656,145.875 Z " fill="#000000"/><text fill="#000000" font-family="sans-serif" font-size="14" lengthAdjust="spacing" textLength="191.4268" x="36" y="155.7969">DefaultRequestContextFactory</text><line style="stroke:#181818;stroke-width:0.5;" x1="8" x2="229.4268" y1="166" y2="166"/><line style="stroke:#181818;stroke-width:0.5;" x1="8" x2="229.4268" y1="174" y2="174"/><text fill="#000000" font-family="sans-serif" font-size="14" lengthAdjust="spacing" textLength="148.627" x="13" y="193.1074">createRequestContext()</text></g><!--class UserImplementedSSF--><g id="elem_UserImplementedSSF"><rect codeLine="10" fill="#F1F1F1" height="66.6211" id="UserImplementedSSF" rx="2.5" ry="2.5" style="stroke:#181818;stroke-width:0.5;" width="169.7168" x="265.5" y="134"/><ellipse cx="280.5" cy="150" fill="#ADD1B2" rx="11" ry="11" style="stroke:#181818;stroke-width:1.0;"/><path d="M283.2656,145.875 Q283.4219,145.6563 283.6094,145.5469 Q283.7969,145.4375 284.0156,145.4375 Q284.3906,145.4375 284.625,145.7031 Q284.8594,145.9531 284.8594,146.5625 L284.8594,148.0156 Q284.8594,148.625 284.625,148.8906 Q284.3906,149.1563 284.0156,149.1563 Q283.6719,149.1563 283.4688,148.9531 Q283.2656,148.7656 283.1563,148.25 Q283.1094,147.8906 282.9219,147.7031 Q282.5938,147.3281 281.9844,147.1094 Q281.375,146.8906 280.75,146.8906 Q279.9844,146.8906 279.3438,147.2188 Q278.7188,147.5469 278.2188,148.2969 Q277.7344,149.0469 277.7344,150.0781 L277.7344,151.1719 Q277.7344,152.4063 278.625,153.2344 Q279.5156,154.0469 281.1094,154.0469 Q282.0469,154.0469 282.7031,153.7969 Q283.0938,153.6406 283.5156,153.2031 Q283.7813,152.9375 283.9219,152.8594 Q284.0781,152.7813 284.2813,152.7813 Q284.6094,152.7813 284.8594,153.0469 Q285.125,153.2969 285.125,153.6406 Q285.125,153.9844 284.7813,154.3906 Q284.2813,154.9688 283.4844,155.2969 Q282.4063,155.75 281.1094,155.75 Q279.5938,155.75 278.3906,155.125 Q277.4063,154.625 276.7188,153.5625 Q276.0313,152.4844 276.0313,151.2031 L276.0313,150.0469 Q276.0313,148.7188 276.6406,147.5781 Q277.2656,146.4219 278.3594,145.8125 Q279.4531,145.1875 280.6875,145.1875 Q281.4219,145.1875 282.0625,145.3594 Q282.7188,145.5156 283.2656,145.875 Z " fill="#000000"/><text fill="#000000" font-family="sans-serif" font-size="14" lengthAdjust="spacing" textLength="137.7168" x="294.5" y="155.7969">UserImplementedSSF</text><line style="stroke:#181818;stroke-width:0.5;" x1="266.5" x2="434.2168" y1="166" y2="166"/><line style="stroke:#181818;stroke-width:0.5;" x1="266.5" x2="434.2168" y1="174" y2="174"/><text fill="#000000" font-family="sans-serif" font-size="14" lengthAdjust="spacing" textLength="148.627" x="271.5" y="193.1074">createRequestContext()</text></g><!--reverse link RequestContextFactory to DefaultRequestContextFactory--><g id="link_RequestContextFactory_DefaultRequestContextFactory"><path codeLine="13" d="M192.0811,87.2095 C175.0211,105.5795 166.02,115.29 148.93,133.71 " fill="none" id="RequestContextFactory-backto-DefaultRequestContextFactory" style="stroke:#181818;stroke-width:1.0;"/><polygon fill="none" points="204.33,74.02,187.6845,83.1265,196.4776,91.2925,204.33,74.02" style="stroke:#181818;stroke-width:1.0;"/></g><!--reverse link RequestContextFactory to UserImplementedSSF--><g id="link_RequestContextFactory_UserImplementedSSF"><path codeLine="14" d="M276.9189,87.2095 C293.9789,105.5795 302.98,115.29 320.07,133.71 " fill="none" id="RequestContextFactory-backto-UserImplementedSSF" style="stroke:#181818;stroke-width:1.0;"/><polygon fill="none" points="264.67,74.02,272.5224,91.2925,281.3155,83.1265,264.67,74.02" style="stroke:#181818;stroke-width:1.0;"/></g><!--SRC=[oymhIIrAIqnELGXABInDBIvnpWUAL9Iu9IQNv1TLAbHpAG11Sb5gOaaggWeDJQvQBgxadCJYOWMNrBJ4qfmIIem8BKujyimjo4dDJGNAfGG7kn7IYDqscnfTNRpkmQSFqn40]--></g></svg>