<svg xmlns="http://www.w3.org/2000/svg" xmlns:xlink="http://www.w3.org/1999/xlink" contentStyleType="text/css" height="207px" preserveAspectRatio="none" style="width:426px;height:207px;background:#FFFFFF;" version="1.1" viewBox="0 0 426 207" width="426px" zoomAndPan="magnify"><defs/><g><!--class ServerSocketFactory--><g id="elem_ServerSocketFactory"><rect codeLine="2" fill="#F1F1F1" height="66.6211" id="ServerSocketFactory" rx="2.5" ry="2.5" style="stroke:#181818;stroke-width:0.5;" width="162.71" x="141" y="7"/><ellipse cx="156" cy="23" fill="#B4A7E5" rx="11" ry="11" style="stroke:#181818;stroke-width:1.0;"/><path d="M156.9531,19.6406 L156.9531,26.2969 L158.6719,26.2969 Q159.2813,26.2969 159.5469,26.5313 Q159.8125,26.7656 159.8125,27.1563 Q159.8125,27.5313 159.5469,27.7656 Q159.2813,28 158.6719,28 L153.5313,28 Q152.9219,28 152.6563,27.7656 Q152.3906,27.5313 152.3906,27.1406 Q152.3906,26.7656 152.6563,26.5313 Q152.9219,26.2969 153.5313,26.2969 L155.25,26.2969 L155.25,19.6406 L153.5313,19.6406 Q152.9219,19.6406 152.6563,19.4063 Q152.3906,19.1719 152.3906,18.7813 Q152.3906,18.4063 152.6563,18.1719 Q152.9219,17.9375 153.5313,17.9375 L158.6719,17.9375 Q159.2813,17.9375 159.5469,18.1719 Q159.8125,18.4063 159.8125,18.7813 Q159.8125,19.1719 159.5469,19.4063 Q159.2813,19.6406 158.6719,19.6406 L156.9531,19.6406 Z " fill="#000000"/><text fill="#000000" font-family="sans-serif" font-size="14" font-style="italic" lengthAdjust="spacing" textLength="130.71" x="170" y="28.7969">ServerSocketFactory</text><line style="stroke:#181818;stroke-width:0.5;" x1="142" x2="302.71" y1="39" y2="39"/><line style="stroke:#181818;stroke-width:0.5;" x1="142" x2="302.71" y1="47" y2="47"/><text fill="#000000" font-family="sans-serif" font-size="14" lengthAdjust="spacing" textLength="132.2686" x="147" y="66.1074">createServerSocket()</text></g><!--class DefaultServerSocketFactory--><g id="elem_DefaultServerSocketFactory"><rect codeLine="6" fill="#F1F1F1" height="66.6211" id="DefaultServerSocketFactory" rx="2.5" ry="2.5" style="stroke:#181818;stroke-width:0.5;" width="207.0684" x="7" y="134"/><ellipse cx="22" cy="150" fill="#ADD1B2" rx="11" ry="11" style="stroke:#181818;stroke-width:1.0;"/><path d="M24.7656,145.875 Q24.9219,145.6563 25.1094,145.5469 Q25.2969,145.4375 25.5156,145.4375 Q25.8906,145.4375 26.125,145.7031 Q26.3594,145.9531 26.3594,146.5625 L26.3594,148.0156 Q26.3594,148.625 26.125,148.8906 Q25.8906,149.1563 25.5156,149.1563 Q25.1719,149.1563 24.9688,148.9531 Q24.7656,148.7656 24.6563,148.25 Q24.6094,147.8906 24.4219,147.7031 Q24.0938,147.3281 23.4844,147.1094 Q22.875,146.8906 22.25,146.8906 Q21.4844,146.8906 20.8438,147.2188 Q20.2188,147.5469 19.7188,148.2969 Q19.2344,149.0469 19.2344,150.0781 L19.2344,151.1719 Q19.2344,152.4063 20.125,153.2344 Q21.0156,154.0469 22.6094,154.0469 Q23.5469,154.0469 24.2031,153.7969 Q24.5938,153.6406 25.0156,153.2031 Q25.2813,152.9375 25.4219,152.8594 Q25.5781,152.7813 25.7813,152.7813 Q26.1094,152.7813 26.3594,153.0469 Q26.625,153.2969 26.625,153.6406 Q26.625,153.9844 26.2813,154.3906 Q25.7813,154.9688 24.9844,155.2969 Q23.9063,155.75 22.6094,155.75 Q21.0938,155.75 19.8906,155.125 Q18.9063,154.625 18.2188,153.5625 Q17.5313,152.4844 17.5313,151.2031 L17.5313,150.0469 Q17.5313,148.7188 18.1406,147.5781 Q18.7656,146.4219 19.8594,145.8125 Q20.9531,145.1875 22.1875,145.1875 Q22.9219,145.1875 23.5625,145.3594 Q24.2188,145.5156 24.7656,145.875 Z " fill="#000000"/><text fill="#000000" font-family="sans-serif" font-size="14" lengthAdjust="spacing" textLength="175.0684" x="36" y="155.7969">DefaultServerSocketFactory</text><line style="stroke:#181818;stroke-width:0.5;" x1="8" x2="213.0684" y1="166" y2="166"/><line style="stroke:#181818;stroke-width:0.5;" x1="8" x2="213.0684" y1="174" y2="174"/><text fill="#000000" font-family="sans-serif" font-size="14" lengthAdjust="spacing" textLength="132.2686" x="13" y="193.1074">createServerSocket()</text></g><!--class UserImplementedSSF--><g id="elem_UserImplementedSSF"><rect codeLine="10" fill="#F1F1F1" height="66.6211" id="UserImplementedSSF" rx="2.5" ry="2.5" style="stroke:#181818;stroke-width:0.5;" width="169.7168" x="249.5" y="134"/><ellipse cx="264.5" cy="150" fill="#ADD1B2" rx="11" ry="11" style="stroke:#181818;stroke-width:1.0;"/><path d="M267.2656,145.875 Q267.4219,145.6563 267.6094,145.5469 Q267.7969,145.4375 268.0156,145.4375 Q268.3906,145.4375 268.625,145.7031 Q268.8594,145.9531 268.8594,146.5625 L268.8594,148.0156 Q268.8594,148.625 268.625,148.8906 Q268.3906,149.1563 268.0156,149.1563 Q267.6719,149.1563 267.4688,148.9531 Q267.2656,148.7656 267.1563,148.25 Q267.1094,147.8906 266.9219,147.7031 Q266.5938,147.3281 265.9844,147.1094 Q265.375,146.8906 264.75,146.8906 Q263.9844,146.8906 263.3438,147.2188 Q262.7188,147.5469 262.2188,148.2969 Q261.7344,149.0469 261.7344,150.0781 L261.7344,151.1719 Q261.7344,152.4063 262.625,153.2344 Q263.5156,154.0469 265.1094,154.0469 Q266.0469,154.0469 266.7031,153.7969 Q267.0938,153.6406 267.5156,153.2031 Q267.7813,152.9375 267.9219,152.8594 Q268.0781,152.7813 268.2813,152.7813 Q268.6094,152.7813 268.8594,153.0469 Q269.125,153.2969 269.125,153.6406 Q269.125,153.9844 268.7813,154.3906 Q268.2813,154.9688 267.4844,155.2969 Q266.4063,155.75 265.1094,155.75 Q263.5938,155.75 262.3906,155.125 Q261.4063,154.625 260.7188,153.5625 Q260.0313,152.4844 260.0313,151.2031 L260.0313,150.0469 Q260.0313,148.7188 260.6406,147.5781 Q261.2656,146.4219 262.3594,145.8125 Q263.4531,145.1875 264.6875,145.1875 Q265.4219,145.1875 266.0625,145.3594 Q266.7188,145.5156 267.2656,145.875 Z " fill="#000000"/><text fill="#000000" font-family="sans-serif" font-size="14" lengthAdjust="spacing" textLength="137.7168" x="278.5" y="155.7969">UserImplementedSSF</text><line style="stroke:#181818;stroke-width:0.5;" x1="250.5" x2="418.2168" y1="166" y2="166"/><line style="stroke:#181818;stroke-width:0.5;" x1="250.5" x2="418.2168" y1="174" y2="174"/><text fill="#000000" font-family="sans-serif" font-size="14" lengthAdjust="spacing" textLength="132.2686" x="255.5" y="193.1074">createServerSocket()</text></g><!--reverse link ServerSocketFactory to DefaultServerSocketFactory--><g id="link_ServerSocketFactory_DefaultServerSocketFactory"><path codeLine="13" d="M181.3541,87.4221 C164.8841,105.7921 156.38,115.29 139.88,133.71 " fill="none" id="ServerSocketFactory-backto-DefaultServerSocketFactory" style="stroke:#181818;stroke-width:1.0;"/><polygon fill="none" points="193.37,74.02,176.8867,83.4168,185.8214,91.4274,193.37,74.02" style="stroke:#181818;stroke-width:1.0;"/></g><!--reverse link ServerSocketFactory to UserImplementedSSF--><g id="link_ServerSocketFactory_UserImplementedSSF"><path codeLine="14" d="M263.6459,87.4221 C280.1159,105.7921 288.62,115.29 305.12,133.71 " fill="none" id="ServerSocketFactory-backto-UserImplementedSSF" style="stroke:#181818;stroke-width:1.0;"/><polygon fill="none" points="251.63,74.02,259.1786,91.4274,268.1133,83.4168,251.63,74.02" style="stroke:#181818;stroke-width:1.0;"/></g><!--SRC=[oymhIIrAIqnELGXEBIfBBGhEJyvEBN5BJ2x9BwfKgEPI08BaejJ4abHaUGrDhbekhkISnE9Y1PVKjCJId19ojOSMfnPvvXRafEQc0fsI4XpiXbyRDdjiQdHryRW3jnvCom40]--></g></svg>