<svg xmlns="http://www.w3.org/2000/svg" xmlns:xlink="http://www.w3.org/1999/xlink" contentStyleType="text/css" height="117px" preserveAspectRatio="none" style="width:562px;height:117px;background:#FFFFFF;" version="1.1" viewBox="0 0 562 117" width="562px" zoomAndPan="magnify"><defs/><g><!--class WebServer--><g id="elem_WebServer"><rect codeLine="1" fill="#F1F1F1" height="66.6211" id="WebServer" rx="2.5" ry="2.5" style="stroke:#181818;stroke-width:0.5;" width="180.8408" x="7" y="25.5"/><ellipse cx="58.1602" cy="41.5" fill="#B4A7E5" rx="11" ry="11" style="stroke:#181818;stroke-width:1.0;"/><path d="M59.1133,38.1406 L59.1133,44.7969 L60.832,44.7969 Q61.4414,44.7969 61.707,45.0313 Q61.9727,45.2656 61.9727,45.6563 Q61.9727,46.0313 61.707,46.2656 Q61.4414,46.5 60.832,46.5 L55.6914,46.5 Q55.082,46.5 54.8164,46.2656 Q54.5508,46.0313 54.5508,45.6406 Q54.5508,45.2656 54.8164,45.0313 Q55.082,44.7969 55.6914,44.7969 L57.4102,44.7969 L57.4102,38.1406 L55.6914,38.1406 Q55.082,38.1406 54.8164,37.9063 Q54.5508,37.6719 54.5508,37.2813 Q54.5508,36.9063 54.8164,36.6719 Q55.082,36.4375 55.6914,36.4375 L60.832,36.4375 Q61.4414,36.4375 61.707,36.6719 Q61.9727,36.9063 61.9727,37.2813 Q61.9727,37.6719 61.707,37.9063 Q61.4414,38.1406 60.832,38.1406 L59.1133,38.1406 Z " fill="#000000"/><text fill="#000000" font-family="sans-serif" font-size="14" font-style="italic" lengthAdjust="spacing" textLength="70.0205" x="78.6602" y="47.2969">WebServer</text><line style="stroke:#181818;stroke-width:0.5;" x1="8" x2="186.8408" y1="57.5" y2="57.5"/><line style="stroke:#181818;stroke-width:0.5;" x1="8" x2="186.8408" y1="65.5" y2="65.5"/><text fill="#000000" font-family="sans-serif" font-size="14" lengthAdjust="spacing" text-decoration="underline" textLength="168.8408" x="13" y="84.6074">WebServerBuilder builder()</text></g><!--class WebServerBuilder--><g id="elem_WebServerBuilder"><rect codeLine="5" fill="#F1F1F1" height="103.8633" id="WebServerBuilder" rx="2.5" ry="2.5" style="stroke:#181818;stroke-width:0.5;" width="331.7646" x="223.5" y="7"/><ellipse cx="328.3325" cy="23" fill="#B4A7E5" rx="11" ry="11" style="stroke:#181818;stroke-width:1.0;"/><path d="M329.2856,19.6406 L329.2856,26.2969 L331.0044,26.2969 Q331.6138,26.2969 331.8794,26.5313 Q332.145,26.7656 332.145,27.1563 Q332.145,27.5313 331.8794,27.7656 Q331.6138,28 331.0044,28 L325.8638,28 Q325.2544,28 324.9888,27.7656 Q324.7231,27.5313 324.7231,27.1406 Q324.7231,26.7656 324.9888,26.5313 Q325.2544,26.2969 325.8638,26.2969 L327.5825,26.2969 L327.5825,19.6406 L325.8638,19.6406 Q325.2544,19.6406 324.9888,19.4063 Q324.7231,19.1719 324.7231,18.7813 Q324.7231,18.4063 324.9888,18.1719 Q325.2544,17.9375 325.8638,17.9375 L331.0044,17.9375 Q331.6138,17.9375 331.8794,18.1719 Q332.145,18.4063 332.145,18.7813 Q332.145,19.1719 331.8794,19.4063 Q331.6138,19.6406 331.0044,19.6406 L329.2856,19.6406 Z " fill="#000000"/><text fill="#000000" font-family="sans-serif" font-size="14" font-style="italic" lengthAdjust="spacing" textLength="113.5996" x="348.8325" y="28.7969">WebServerBuilder</text><line style="stroke:#181818;stroke-width:0.5;" x1="224.5" x2="554.2646" y1="39" y2="39"/><line style="stroke:#181818;stroke-width:0.5;" x1="224.5" x2="554.2646" y1="47" y2="47"/><text fill="#000000" font-family="sans-serif" font-size="14" lengthAdjust="spacing" textLength="112.8135" x="229.5" y="66.1074">WebServer build()</text><text fill="#000000" font-family="sans-serif" font-size="14" lengthAdjust="spacing" textLength="175.0615" x="229.5" y="84.7285">WebServerBuilder port(port)</text><text fill="#000000" font-family="sans-serif" font-size="14" lengthAdjust="spacing" textLength="319.7646" x="229.5" y="103.3496">WebServerBuilder (contextFactory)(contextFactory)</text></g><!--SRC=[oymhIIrAIqnELGXFJGfEBIfBBLAevb80WkhYaiIIpEHQX8HJQMPE2b0-2K9hQ7BLSd5bOXe0KmSn1s4kM1zG5ueeJ751Vb691eZ08Q-Hd0-qgQB4BJ6v9B-eKXETprKB0000]--></g></svg>