<svg xmlns="http://www.w3.org/2000/svg" xmlns:xlink="http://www.w3.org/1999/xlink" contentStyleType="text/css" height="319px" preserveAspectRatio="none" style="width:413px;height:319px;background:#FFFFFF;" version="1.1" viewBox="0 0 413 319" width="413px" zoomAndPan="magnify"><defs/><g><!--entity U--><g id="elem_U"><ellipse cx="37.3393" cy="14" fill="#F1F1F1" rx="8" ry="8" style="stroke:#181818;stroke-width:0.5;"/><path d="M37.3393,22 L37.3393,49 M24.3393,30 L50.3393,30 M37.3393,49 L24.3393,64 M37.3393,49 L50.3393,64 " fill="none" style="stroke:#181818;stroke-width:0.5;"/><text fill="#000000" font-family="sans-serif" font-size="14" lengthAdjust="spacing" textLength="29.5586" x="22.56" y="80.6074">User</text></g><g id="elem_T"><ellipse cx="283.5816" cy="45.0043" fill="#F1F1F1" rx="80.5216" ry="18.5043" style="stroke:#181818;stroke-width:0.5;"/><text fill="#000000" font-family="sans-serif" font-size="14" lengthAdjust="spacing" textLength="109.7305" x="225.7163" y="49.808">Accepting Thread</text></g><g id="elem_CT"><ellipse cx="114.6289" cy="294.7138" fill="#F1F1F1" rx="84.0689" ry="19.2138" style="stroke:#181818;stroke-width:0.5;"/><text fill="#000000" font-family="sans-serif" font-size="14" lengthAdjust="spacing" textLength="119.0752" x="52.0913" y="299.5175">Connection Thread</text></g><g id="elem_TP"><ellipse cx="283.4655" cy="179.9815" fill="#F1F1F1" rx="66.9055" ry="16.4815" style="stroke:#181818;stroke-width:0.5;"/><text fill="#000000" font-family="sans-serif" font-size="14" lengthAdjust="spacing" textLength="76.2686" x="242.3312" y="184.7852">Thread Pool</text></g><!--link U to T--><g id="link_U_T"><path d="M52.58,45 C81.89,45 142.61,45 196.84,45 " fill="none" id="U-to-T" style="stroke:#181818;stroke-width:1.0;"/><polygon fill="#181818" points="202.84,45,193.84,41,197.84,45,193.84,49,202.84,45" style="stroke:#181818;stroke-width:1.0;"/><text fill="#000000" font-family="sans-serif" font-size="13" lengthAdjust="spacing" textLength="114.188" x="70.81" y="38.0283">ConnectionRequest</text></g><!--link T to TP--><g id="link_T_TP"><path d="M283.56,63.66 C283.56,89.81 283.56,132.4 283.56,157.34 " fill="none" id="T-to-TP" style="stroke:#181818;stroke-width:1.0;"/><polygon fill="#181818" points="283.56,163.34,287.56,154.34,283.56,158.34,279.56,154.34,283.56,163.34" style="stroke:#181818;stroke-width:1.0;"/><text fill="#000000" font-family="sans-serif" font-size="13" lengthAdjust="spacing" textLength="120.6943" x="284.56" y="129.5283">Accepted connection</text></g><!--link TP to CT--><g id="link_TP_CT"><path d="M261.47,195.71 C230.24,216.49 178.3242,251.0546 145.2542,273.0746 " fill="none" id="TP-to-CT" style="stroke:#181818;stroke-width:1.0;"/><polygon fill="#181818" points="140.26,276.4,149.9682,274.7413,144.4218,273.6288,145.5343,268.0824,140.26,276.4" style="stroke:#181818;stroke-width:1.0;"/><text fill="#000000" font-family="sans-serif" font-size="13" lengthAdjust="spacing" textLength="101.9053" x="215.56" y="241.5283">demand to thread</text></g><!--link U to CT--><g id="link_U_CT"><path d="M23.14,84.82 C13.86,116.07 6,160.55 20.56,196.5 C34.3,230.41 61.4056,255.4026 84.2256,272.5726 " fill="none" id="U-to-CT" style="stroke:#181818;stroke-width:1.0;"/><polygon fill="#181818" points="89.02,276.18,84.2333,267.5726,85.0246,273.1738,79.4234,273.9652,89.02,276.18" style="stroke:#181818;stroke-width:1.0;"/><text fill="#000000" font-family="sans-serif" font-size="13" lengthAdjust="spacing" textLength="49.8608" x="21.56" y="185.5283">requests</text></g><!--link CT to U--><g id="link_CT_U"><path d="M109.26,275.38 C101.86,250.22 87.97,203.32 75.56,163.5 C67.33,137.1 59.6152,113.1727 52.1252,90.2727 " fill="none" id="CT-to-U" style="stroke:#181818;stroke-width:1.0;"/><polygon fill="#181818" points="50.26,84.57,49.256,94.3676,51.8143,89.3223,56.8596,91.8806,50.26,84.57" style="stroke:#181818;stroke-width:1.0;"/><text fill="#000000" font-family="sans-serif" font-size="13" lengthAdjust="spacing" textLength="65.0381" x="86.56" y="185.5283">Responses</text></g><!--SRC=[JOrD3i8W48NtSugth8jUW8L9mmL80mSWCD4cobG6xsyfYRfyxti_9YXNWwW8D2qfyTwsSeE_LuxvqdrFavLIEBLDoZ-m1naIJkGnmeueOBx26_nQAx_Uh8qyvewSmNZYZFGDaNSdjaSrypEMZ2Pevy7OxAIEAINhknKCLjPTYh9-0000]--></g></svg>