<svg xmlns="http://www.w3.org/2000/svg" xmlns:xlink="http://www.w3.org/1999/xlink" contentStyleType="text/css" height="207px" preserveAspectRatio="none" style="width:643px;height:207px;background:#FFFFFF;" version="1.1" viewBox="0 0 643 207" width="643px" zoomAndPan="magnify"><defs/><g><!--entity U--><g id="elem_U"><ellipse cx="20.7793" cy="14" fill="#F1F1F1" rx="8" ry="8" style="stroke:#181818;stroke-width:0.5;"/><path d="M20.7793,22 L20.7793,49 M7.7793,30 L33.7793,30 M20.7793,49 L7.7793,64 M20.7793,49 L33.7793,64 " fill="none" style="stroke:#181818;stroke-width:0.5;"/><text fill="#000000" font-family="sans-serif" font-size="14" lengthAdjust="spacing" textLength="29.5586" x="6" y="80.6074">User</text></g><g id="elem_T"><ellipse cx="267.0216" cy="45.0043" fill="#F1F1F1" rx="80.5216" ry="18.5043" style="stroke:#181818;stroke-width:0.5;"/><text fill="#000000" font-family="sans-serif" font-size="14" lengthAdjust="spacing" textLength="109.7305" x="209.1563" y="49.808">Accepting Thread</text></g><g id="elem_CT"><ellipse cx="106.0689" cy="182.7138" fill="#F1F1F1" rx="84.0689" ry="19.2138" style="stroke:#181818;stroke-width:0.5;"/><text fill="#000000" font-family="sans-serif" font-size="14" lengthAdjust="spacing" textLength="119.0752" x="43.5313" y="187.5175">Connection Thread</text></g><g id="elem_TP"><ellipse cx="570.9055" cy="44.9815" fill="#F1F1F1" rx="66.9055" ry="16.4815" style="stroke:#181818;stroke-width:0.5;"/><text fill="#000000" font-family="sans-serif" font-size="14" lengthAdjust="spacing" textLength="76.2686" x="529.7712" y="49.7852">Thread Pool</text></g><!--link U to T--><g id="link_U_T"><path d="M36.02,45 C65.33,45 126.04,45 180.27,45 " fill="none" id="U-to-T" style="stroke:#181818;stroke-width:1.0;"/><polygon fill="#181818" points="186.27,45,177.27,41,181.27,45,177.27,49,186.27,45" style="stroke:#181818;stroke-width:1.0;"/><text fill="#000000" font-family="sans-serif" font-size="13" lengthAdjust="spacing" textLength="114.188" x="54.25" y="38.0283">ConnectionRequest</text></g><!--link T to TP--><g id="link_T_TP"><path d="M347.67,45 C396.39,45 451.76,45 497.84,45 " fill="none" id="T-to-TP" style="stroke:#181818;stroke-width:1.0;"/><polygon fill="#181818" points="503.84,45,494.84,41,498.84,45,494.84,49,503.84,45" style="stroke:#181818;stroke-width:1.0;"/><text fill="#000000" font-family="sans-serif" font-size="13" lengthAdjust="spacing" textLength="120.6943" x="365.75" y="38.0283">Accepted connection</text></g><!--link TP to CT--><g id="link_TP_CT"><path d="M529.73,58.02 C444.16,82.96 253.4504,138.5314 161.2404,165.4014 " fill="none" id="TP-to-CT" style="stroke:#181818;stroke-width:1.0;"/><polygon fill="#181818" points="155.48,167.08,165.2397,168.4024,160.2803,165.6812,163.0016,160.7218,155.48,167.08" style="stroke:#181818;stroke-width:1.0;"/><text fill="#000000" font-family="sans-serif" font-size="13" lengthAdjust="spacing" textLength="101.9053" x="325" y="129.5283">demand to thread</text></g><!--link U to CT--><g id="link_U_CT"><path d="M10.86,84.89 C8.82,100.95 9.47,119.12 18,133.5 C26.97,148.61 37.1356,156.7057 52.7256,164.0757 " fill="none" id="U-to-CT" style="stroke:#181818;stroke-width:1.0;"/><polygon fill="#181818" points="58.15,166.64,51.7229,159.1772,53.6297,164.5031,48.3038,166.4098,58.15,166.64" style="stroke:#181818;stroke-width:1.0;"/><text fill="#000000" font-family="sans-serif" font-size="13" lengthAdjust="spacing" textLength="43.3608" x="19" y="129.5283">request</text></g><!--link CT to U--><g id="link_CT_U"><path d="M95.88,163.4 C88.18,149.81 77.21,130.81 67,114.5 C57.04,98.59 48.6229,85.9786 39.4629,72.6186 " fill="none" id="CT-to-U" style="stroke:#181818;stroke-width:1.0;"/><polygon fill="#181818" points="36.07,67.67,37.8603,77.3548,38.8974,71.7938,44.4584,72.8309,36.07,67.67" style="stroke:#181818;stroke-width:1.0;"/><text fill="#000000" font-family="sans-serif" font-size="13" lengthAdjust="spacing" textLength="58.5381" x="80" y="129.5283">Response</text></g><!--SRC=[JOr13i8W44NtdE8lww8NO65Yk01fu0049jf4PofWl7uf67Kvyzx_N_j2MICKU3LTOgIjhdo5ksKAwNJydPgCC5Eig_0_C8sC4rRaFcIhbCTyXjFufHPwlgXKvJgn6cE84kBNKSvYJlBcffYMJlG8d505jM-CseFaJvlfTLvZeR895ze1]--></g></svg>