<svg xmlns="http://www.w3.org/2000/svg" xmlns:xlink="http://www.w3.org/1999/xlink" contentStyleType="text/css" height="497px" preserveAspectRatio="none" style="width:619px;height:497px;background:#FFFFFF;" version="1.1" viewBox="0 0 619 497" width="619px" zoomAndPan="magnify"><defs/><g><!--cluster com.simonebasile.http--><g id="cluster_com.simonebasile.http"><path d="M8.5,6.0137 L161.1963,6.0137 A3.75,3.75 0 0 1 163.6963,8.5137 L170.6963,30.6348 L609.5,30.6348 A2.5,2.5 0 0 1 612,33.1348 L612,487.5137 A2.5,2.5 0 0 1 609.5,490.0137 L8.5,490.0137 A2.5,2.5 0 0 1 6,487.5137 L6,8.5137 A2.5,2.5 0 0 1 8.5,6.0137 " fill="none" style="stroke:#000000;stroke-width:1.5;"/><line style="stroke:#000000;stroke-width:1.5;" x1="6" x2="170.6963" y1="30.6348" y2="30.6348"/><text fill="#000000" font-family="sans-serif" font-size="14" font-weight="bold" lengthAdjust="spacing" textLength="151.6963" x="10" y="23.1211">com.simonebasile.http</text></g><!--entity server--><g id="elem_server"><path d="M25,43.0137 L80.041,43.0137 A3.75,3.75 0 0 1 82.541,45.5137 L89.541,67.6348 L180.7373,67.6348 A2.5,2.5 0 0 1 183.2373,70.1348 L183.2373,119.377 A2.5,2.5 0 0 1 180.7373,121.877 L25,121.877 A2.5,2.5 0 0 1 22.5,119.377 L22.5,45.5137 A2.5,2.5 0 0 1 25,43.0137 " fill="#F1F1F1" style="stroke:#181818;stroke-width:0.5;"/><line style="stroke:#181818;stroke-width:0.5;" x1="22.5" x2="89.541" y1="67.6348" y2="67.6348"/><text fill="#000000" font-family="sans-serif" font-size="14" font-weight="bold" lengthAdjust="spacing" textLength="42.041" x="32.5" y="61.1211">server</text><text fill="#000000" font-family="sans-serif" font-size="14" lengthAdjust="spacing" textLength="74.6826" x="32.5" y="89.7422">server class</text><text fill="#000000" font-family="sans-serif" font-size="14" lengthAdjust="spacing" textLength="130.7373" x="32.5" y="108.3633">configuration classes</text></g><!--entity routing--><g id="elem_routing"><path d="M221.5,43.0137 L282.707,43.0137 A3.75,3.75 0 0 1 285.207,45.5137 L292.207,67.6348 L378.7959,67.6348 A2.5,2.5 0 0 1 381.2959,70.1348 L381.2959,119.377 A2.5,2.5 0 0 1 378.7959,121.877 L221.5,121.877 A2.5,2.5 0 0 1 219,119.377 L219,45.5137 A2.5,2.5 0 0 1 221.5,43.0137 " fill="#F1F1F1" style="stroke:#181818;stroke-width:0.5;"/><line style="stroke:#181818;stroke-width:0.5;" x1="219" x2="292.207" y1="67.6348" y2="67.6348"/><text fill="#000000" font-family="sans-serif" font-size="14" font-weight="bold" lengthAdjust="spacing" textLength="48.207" x="229" y="61.1211">routing</text><text fill="#000000" font-family="sans-serif" font-size="14" lengthAdjust="spacing" textLength="132.2959" x="229" y="89.7422">classes used to route</text><text fill="#000000" font-family="sans-serif" font-size="14" lengthAdjust="spacing" textLength="119.8545" x="229" y="108.3633">requests to handler</text></g><!--entity response--><g id="elem_response"><path d="M419,52.5137 L494.248,52.5137 A3.75,3.75 0 0 1 496.748,55.0137 L503.748,77.1348 L546.7373,77.1348 A2.5,2.5 0 0 1 549.2373,79.6348 L549.2373,110.2559 A2.5,2.5 0 0 1 546.7373,112.7559 L419,112.7559 A2.5,2.5 0 0 1 416.5,110.2559 L416.5,55.0137 A2.5,2.5 0 0 1 419,52.5137 " fill="#F1F1F1" style="stroke:#181818;stroke-width:0.5;"/><line style="stroke:#181818;stroke-width:0.5;" x1="416.5" x2="503.748" y1="77.1348" y2="77.1348"/><text fill="#000000" font-family="sans-serif" font-size="14" font-weight="bold" lengthAdjust="spacing" textLength="62.248" x="426.5" y="70.6211">response</text><text fill="#000000" font-family="sans-serif" font-size="14" lengthAdjust="spacing" textLength="102.7373" x="426.5" y="99.2422">response bodies</text></g><!--entity message--><g id="elem_message"><path d="M25,182.0137 L97.9307,182.0137 A3.75,3.75 0 0 1 100.4307,184.5137 L107.4307,206.6348 L151.1719,206.6348 A2.5,2.5 0 0 1 153.6719,209.1348 L153.6719,314.2402 A2.5,2.5 0 0 1 151.1719,316.7402 L25,316.7402 A2.5,2.5 0 0 1 22.5,314.2402 L22.5,184.5137 A2.5,2.5 0 0 1 25,182.0137 " fill="#F1F1F1" style="stroke:#181818;stroke-width:0.5;"/><line style="stroke:#181818;stroke-width:0.5;" x1="22.5" x2="107.4307" y1="206.6348" y2="206.6348"/><text fill="#000000" font-family="sans-serif" font-size="14" font-weight="bold" lengthAdjust="spacing" textLength="59.9307" x="32.5" y="200.1211">message</text><text fill="#000000" font-family="sans-serif" font-size="14" lengthAdjust="spacing" textLength="94.9375" x="32.5" y="228.7422">http messages:</text><text fill="#000000" font-family="sans-serif" font-size="14" lengthAdjust="spacing" textLength="46.6963" x="32.5" y="247.3633">request</text><text fill="#000000" font-family="sans-serif" font-size="14" lengthAdjust="spacing" textLength="57.5928" x="32.5" y="265.9844">response</text><text fill="#000000" font-family="sans-serif" font-size="14" lengthAdjust="spacing" textLength="101.1719" x="32.5" y="284.6055">serialization and</text><text fill="#000000" font-family="sans-serif" font-size="14" lengthAdjust="spacing" textLength="89.4961" x="32.5" y="303.2266">deserialization</text></g><!--entity internal--><g id="elem_internal"><path d="M191.5,191.5137 L255.0654,191.5137 A3.75,3.75 0 0 1 257.5654,194.0137 L264.5654,216.1348 L388.5264,216.1348 A2.5,2.5 0 0 1 391.0264,218.6348 L391.0264,305.1191 A2.5,2.5 0 0 1 388.5264,307.6191 L191.5,307.6191 A2.5,2.5 0 0 1 189,305.1191 L189,194.0137 A2.5,2.5 0 0 1 191.5,191.5137 " fill="#F1F1F1" style="stroke:#181818;stroke-width:0.5;"/><line style="stroke:#181818;stroke-width:0.5;" x1="189" x2="264.5654" y1="216.1348" y2="216.1348"/><text fill="#000000" font-family="sans-serif" font-size="14" font-weight="bold" lengthAdjust="spacing" textLength="50.5654" x="199" y="209.6211">internal</text><text fill="#000000" font-family="sans-serif" font-size="14" lengthAdjust="spacing" textLength="110.4961" x="199" y="238.2422">Classes providing</text><text fill="#000000" font-family="sans-serif" font-size="14" lengthAdjust="spacing" textLength="145.8789" x="199" y="256.8633">functionalities that don't</text><text fill="#000000" font-family="sans-serif" font-size="14" lengthAdjust="spacing" textLength="172.0264" x="199" y="275.4844">need to be exposed outside</text><text fill="#000000" font-family="sans-serif" font-size="14" lengthAdjust="spacing" textLength="96.5098" x="199" y="294.1055">the http module</text></g><!--entity handlers--><g id="elem_handlers"><path d="M429,210.0137 L500.3516,210.0137 A3.75,3.75 0 0 1 502.8516,212.5137 L509.8516,234.6348 L592.5234,234.6348 A2.5,2.5 0 0 1 595.0234,237.1348 L595.0234,286.377 A2.5,2.5 0 0 1 592.5234,288.877 L429,288.877 A2.5,2.5 0 0 1 426.5,286.377 L426.5,212.5137 A2.5,2.5 0 0 1 429,210.0137 " fill="#F1F1F1" style="stroke:#181818;stroke-width:0.5;"/><line style="stroke:#181818;stroke-width:0.5;" x1="426.5" x2="509.8516" y1="234.6348" y2="234.6348"/><text fill="#000000" font-family="sans-serif" font-size="14" font-weight="bold" lengthAdjust="spacing" textLength="58.3516" x="436.5" y="228.1211">handlers</text><text fill="#000000" font-family="sans-serif" font-size="14" lengthAdjust="spacing" textLength="111.2891" x="436.5" y="256.7422">handler interfaces</text><text fill="#000000" font-family="sans-serif" font-size="14" lengthAdjust="spacing" textLength="138.5234" x="436.5" y="275.3633">useful handler classes</text></g><!--entity format--><g id="elem_format"><path d="M24.5,377.0137 L81.0586,377.0137 A3.75,3.75 0 0 1 83.5586,379.5137 L90.5586,401.6348 L173.9893,401.6348 A2.5,2.5 0 0 1 176.4893,404.1348 L176.4893,471.998 A2.5,2.5 0 0 1 173.9893,474.498 L24.5,474.498 A2.5,2.5 0 0 1 22,471.998 L22,379.5137 A2.5,2.5 0 0 1 24.5,377.0137 " fill="#F1F1F1" style="stroke:#181818;stroke-width:0.5;"/><line style="stroke:#181818;stroke-width:0.5;" x1="22" x2="90.5586" y1="401.6348" y2="401.6348"/><text fill="#000000" font-family="sans-serif" font-size="14" font-weight="bold" lengthAdjust="spacing" textLength="43.5586" x="32" y="395.1211">format</text><text fill="#000000" font-family="sans-serif" font-size="14" lengthAdjust="spacing" textLength="101.1719" x="32" y="423.7422">serialization and</text><text fill="#000000" font-family="sans-serif" font-size="14" lengthAdjust="spacing" textLength="105.0615" x="32" y="442.3633">deserialization of</text><text fill="#000000" font-family="sans-serif" font-size="14" lengthAdjust="spacing" textLength="124.4893" x="32" y="460.9844">http specific formats</text></g><!--SRC=[bL6xSiGW3EplA-ZItGUapMVSfC2md3N1Y22uoUGc_nviStuaJX4rpEoArMebo4eGTTAPameSS8hQlEahbE7XB3HKgDD27kS-vwZk9rNhqID8DoHrcS2n6c2y5bb0my7HjTGPn67cCBElExN49LEuRkHQhoe2gp9F7LZOXFS2oJ8olGxM8nsfGY87mKPsWJgsT6XbWCZuhd-cxHiippyz_9BU9aBQq-UyV7MvC1Oxxi05XOmKjD_OU6c9nCGtiZMjXN4bc56d2kQwbCgzpifoU5hD1SmnTb3uY3o6MWCLiglTtAEjohPu79XgISiscncQ_JfjiDw-NiuLltJyVNp7QQY6B_yFJh7RNqaY33aoJVCnxUiR]--></g></svg>